<?xml version="1.0" encoding="utf-8" standalone="no"?>
<!DOCTYPE svg PUBLIC "-//W3C//DTD SVG 1.1//EN"
  "http://www.w3.org/Graphics/SVG/1.1/DTD/svg11.dtd">
<svg height="398.582813pt" version="1.1" viewBox="0 0 506.928125 398.582813" width="506.928125pt" xmlns="http://www.w3.org/2000/svg" xmlns:xlink="http://www.w3.org/1999/xlink">
 <metadata>
  <rdf:RDF xmlns:cc="http://creativecommons.org/ns#" xmlns:dc="http://purl.org/dc/elements/1.1/" xmlns:rdf="http://www.w3.org/1999/02/22-rdf-syntax-ns#">
   <cc:Work>
    <dc:type rdf:resource="http://purl.org/dc/dcmitype/StillImage"/>
    <dc:date>2021-05-25T15:31:41.108973</dc:date>
    <dc:format>image/svg+xml</dc:format>
    <dc:creator>
     <cc:Agent>
      <dc:title>Matplotlib v3.4.1, https://matplotlib.org/</dc:title>
     </cc:Agent>
    </dc:creator>
   </cc:Work>
  </rdf:RDF>
 </metadata>
 <defs>
  <style type="text/css">*{stroke-linecap:butt;stroke-linejoin:round;}</style>
 </defs>
 <g id="figure_1">
  <g id="patch_1">
   <path d="M 0 398.582813 
L 506.928125 398.582813 
L 506.928125 -0 
L 0 -0 
z
" style="fill:none;"/>
  </g>
  <g id="axes_1">
   <g id="patch_2">
    <path d="M 53.328125 279 
L 499.728125 279 
L 499.728125 7.2 
L 53.328125 7.2 
z
" style="fill:#ffffff;"/>
   </g>
   <g id="matplotlib.axis_1">
    <g id="xtick_1">
     <g id="line2d_1">
      <defs>
       <path d="M 0 0 
L 0 3.5 
" id="m41ac2ca17c" style="stroke:#000000;stroke-width:0.8;"/>
      </defs>
      <g>
       <use style="stroke:#000000;stroke-width:0.8;" x="78.128125" xlink:href="#m41ac2ca17c" y="279"/>
      </g>
     </g>
     <g id="text_1">
      <!-- resting -->
      <g transform="translate(80.8875 320.632813)rotate(-90)scale(0.1 -0.1)">
       <defs>
        <path d="M 2631 2963 
Q 2534 3019 2420 3045 
Q 2306 3072 2169 3072 
Q 1681 3072 1420 2755 
Q 1159 2438 1159 1844 
L 1159 0 
L 581 0 
L 581 3500 
L 1159 3500 
L 1159 2956 
Q 1341 3275 1631 3429 
Q 1922 3584 2338 3584 
Q 2397 3584 2469 3576 
Q 2541 3569 2628 3553 
L 2631 2963 
z
" id="DejaVuSans-72" transform="scale(0.015625)"/>
        <path d="M 3597 1894 
L 3597 1613 
L 953 1613 
Q 991 1019 1311 708 
Q 1631 397 2203 397 
Q 2534 397 2845 478 
Q 3156 559 3463 722 
L 3463 178 
Q 3153 47 2828 -22 
Q 2503 -91 2169 -91 
Q 1331 -91 842 396 
Q 353 884 353 1716 
Q 353 2575 817 3079 
Q 1281 3584 2069 3584 
Q 2775 3584 3186 3129 
Q 3597 2675 3597 1894 
z
M 3022 2063 
Q 3016 2534 2758 2815 
Q 2500 3097 2075 3097 
Q 1594 3097 1305 2825 
Q 1016 2553 972 2059 
L 3022 2063 
z
" id="DejaVuSans-65" transform="scale(0.015625)"/>
        <path d="M 2834 3397 
L 2834 2853 
Q 2591 2978 2328 3040 
Q 2066 3103 1784 3103 
Q 1356 3103 1142 2972 
Q 928 2841 928 2578 
Q 928 2378 1081 2264 
Q 1234 2150 1697 2047 
L 1894 2003 
Q 2506 1872 2764 1633 
Q 3022 1394 3022 966 
Q 3022 478 2636 193 
Q 2250 -91 1575 -91 
Q 1294 -91 989 -36 
Q 684 19 347 128 
L 347 722 
Q 666 556 975 473 
Q 1284 391 1588 391 
Q 1994 391 2212 530 
Q 2431 669 2431 922 
Q 2431 1156 2273 1281 
Q 2116 1406 1581 1522 
L 1381 1569 
Q 847 1681 609 1914 
Q 372 2147 372 2553 
Q 372 3047 722 3315 
Q 1072 3584 1716 3584 
Q 2034 3584 2315 3537 
Q 2597 3491 2834 3397 
z
" id="DejaVuSans-73" transform="scale(0.015625)"/>
        <path d="M 1172 4494 
L 1172 3500 
L 2356 3500 
L 2356 3053 
L 1172 3053 
L 1172 1153 
Q 1172 725 1289 603 
Q 1406 481 1766 481 
L 2356 481 
L 2356 0 
L 1766 0 
Q 1100 0 847 248 
Q 594 497 594 1153 
L 594 3053 
L 172 3053 
L 172 3500 
L 594 3500 
L 594 4494 
L 1172 4494 
z
" id="DejaVuSans-74" transform="scale(0.015625)"/>
        <path d="M 603 3500 
L 1178 3500 
L 1178 0 
L 603 0 
L 603 3500 
z
M 603 4863 
L 1178 4863 
L 1178 4134 
L 603 4134 
L 603 4863 
z
" id="DejaVuSans-69" transform="scale(0.015625)"/>
        <path d="M 3513 2113 
L 3513 0 
L 2938 0 
L 2938 2094 
Q 2938 2591 2744 2837 
Q 2550 3084 2163 3084 
Q 1697 3084 1428 2787 
Q 1159 2491 1159 1978 
L 1159 0 
L 581 0 
L 581 3500 
L 1159 3500 
L 1159 2956 
Q 1366 3272 1645 3428 
Q 1925 3584 2291 3584 
Q 2894 3584 3203 3211 
Q 3513 2838 3513 2113 
z
" id="DejaVuSans-6e" transform="scale(0.015625)"/>
        <path d="M 2906 1791 
Q 2906 2416 2648 2759 
Q 2391 3103 1925 3103 
Q 1463 3103 1205 2759 
Q 947 2416 947 1791 
Q 947 1169 1205 825 
Q 1463 481 1925 481 
Q 2391 481 2648 825 
Q 2906 1169 2906 1791 
z
M 3481 434 
Q 3481 -459 3084 -895 
Q 2688 -1331 1869 -1331 
Q 1566 -1331 1297 -1286 
Q 1028 -1241 775 -1147 
L 775 -588 
Q 1028 -725 1275 -790 
Q 1522 -856 1778 -856 
Q 2344 -856 2625 -561 
Q 2906 -266 2906 331 
L 2906 616 
Q 2728 306 2450 153 
Q 2172 0 1784 0 
Q 1141 0 747 490 
Q 353 981 353 1791 
Q 353 2603 747 3093 
Q 1141 3584 1784 3584 
Q 2172 3584 2450 3431 
Q 2728 3278 2906 2969 
L 2906 3500 
L 3481 3500 
L 3481 434 
z
" id="DejaVuSans-67" transform="scale(0.015625)"/>
       </defs>
       <use xlink:href="#DejaVuSans-72"/>
       <use x="38.863281" xlink:href="#DejaVuSans-65"/>
       <use x="100.386719" xlink:href="#DejaVuSans-73"/>
       <use x="152.486328" xlink:href="#DejaVuSans-74"/>
       <use x="191.695312" xlink:href="#DejaVuSans-69"/>
       <use x="219.478516" xlink:href="#DejaVuSans-6e"/>
       <use x="282.857422" xlink:href="#DejaVuSans-67"/>
      </g>
     </g>
    </g>
    <g id="xtick_2">
     <g id="line2d_2">
      <g>
       <use style="stroke:#000000;stroke-width:0.8;" x="127.728125" xlink:href="#m41ac2ca17c" y="279"/>
      </g>
     </g>
     <g id="text_2">
      <!-- walking -->
      <g transform="translate(130.4875 324.339063)rotate(-90)scale(0.1 -0.1)">
       <defs>
        <path d="M 269 3500 
L 844 3500 
L 1563 769 
L 2278 3500 
L 2956 3500 
L 3675 769 
L 4391 3500 
L 4966 3500 
L 4050 0 
L 3372 0 
L 2619 2869 
L 1863 0 
L 1184 0 
L 269 3500 
z
" id="DejaVuSans-77" transform="scale(0.015625)"/>
        <path d="M 2194 1759 
Q 1497 1759 1228 1600 
Q 959 1441 959 1056 
Q 959 750 1161 570 
Q 1363 391 1709 391 
Q 2188 391 2477 730 
Q 2766 1069 2766 1631 
L 2766 1759 
L 2194 1759 
z
M 3341 1997 
L 3341 0 
L 2766 0 
L 2766 531 
Q 2569 213 2275 61 
Q 1981 -91 1556 -91 
Q 1019 -91 701 211 
Q 384 513 384 1019 
Q 384 1609 779 1909 
Q 1175 2209 1959 2209 
L 2766 2209 
L 2766 2266 
Q 2766 2663 2505 2880 
Q 2244 3097 1772 3097 
Q 1472 3097 1187 3025 
Q 903 2953 641 2809 
L 641 3341 
Q 956 3463 1253 3523 
Q 1550 3584 1831 3584 
Q 2591 3584 2966 3190 
Q 3341 2797 3341 1997 
z
" id="DejaVuSans-61" transform="scale(0.015625)"/>
        <path d="M 603 4863 
L 1178 4863 
L 1178 0 
L 603 0 
L 603 4863 
z
" id="DejaVuSans-6c" transform="scale(0.015625)"/>
        <path d="M 581 4863 
L 1159 4863 
L 1159 1991 
L 2875 3500 
L 3609 3500 
L 1753 1863 
L 3688 0 
L 2938 0 
L 1159 1709 
L 1159 0 
L 581 0 
L 581 4863 
z
" id="DejaVuSans-6b" transform="scale(0.015625)"/>
       </defs>
       <use xlink:href="#DejaVuSans-77"/>
       <use x="81.787109" xlink:href="#DejaVuSans-61"/>
       <use x="143.066406" xlink:href="#DejaVuSans-6c"/>
       <use x="170.849609" xlink:href="#DejaVuSans-6b"/>
       <use x="228.759766" xlink:href="#DejaVuSans-69"/>
       <use x="256.542969" xlink:href="#DejaVuSans-6e"/>
       <use x="319.921875" xlink:href="#DejaVuSans-67"/>
      </g>
     </g>
    </g>
    <g id="xtick_3">
     <g id="line2d_3">
      <g>
       <use style="stroke:#000000;stroke-width:0.8;" x="177.328125" xlink:href="#m41ac2ca17c" y="279"/>
      </g>
     </g>
     <g id="text_3">
      <!-- anterior_grooming -->
      <g transform="translate(179.948438 378.334375)rotate(-90)scale(0.1 -0.1)">
       <defs>
        <path d="M 1959 3097 
Q 1497 3097 1228 2736 
Q 959 2375 959 1747 
Q 959 1119 1226 758 
Q 1494 397 1959 397 
Q 2419 397 2687 759 
Q 2956 1122 2956 1747 
Q 2956 2369 2687 2733 
Q 2419 3097 1959 3097 
z
M 1959 3584 
Q 2709 3584 3137 3096 
Q 3566 2609 3566 1747 
Q 3566 888 3137 398 
Q 2709 -91 1959 -91 
Q 1206 -91 779 398 
Q 353 888 353 1747 
Q 353 2609 779 3096 
Q 1206 3584 1959 3584 
z
" id="DejaVuSans-6f" transform="scale(0.015625)"/>
        <path d="M 3263 -1063 
L 3263 -1509 
L -63 -1509 
L -63 -1063 
L 3263 -1063 
z
" id="DejaVuSans-5f" transform="scale(0.015625)"/>
        <path d="M 3328 2828 
Q 3544 3216 3844 3400 
Q 4144 3584 4550 3584 
Q 5097 3584 5394 3201 
Q 5691 2819 5691 2113 
L 5691 0 
L 5113 0 
L 5113 2094 
Q 5113 2597 4934 2840 
Q 4756 3084 4391 3084 
Q 3944 3084 3684 2787 
Q 3425 2491 3425 1978 
L 3425 0 
L 2847 0 
L 2847 2094 
Q 2847 2600 2669 2842 
Q 2491 3084 2119 3084 
Q 1678 3084 1418 2786 
Q 1159 2488 1159 1978 
L 1159 0 
L 581 0 
L 581 3500 
L 1159 3500 
L 1159 2956 
Q 1356 3278 1631 3431 
Q 1906 3584 2284 3584 
Q 2666 3584 2933 3390 
Q 3200 3197 3328 2828 
z
" id="DejaVuSans-6d" transform="scale(0.015625)"/>
       </defs>
       <use xlink:href="#DejaVuSans-61"/>
       <use x="61.279297" xlink:href="#DejaVuSans-6e"/>
       <use x="124.658203" xlink:href="#DejaVuSans-74"/>
       <use x="163.867188" xlink:href="#DejaVuSans-65"/>
       <use x="225.390625" xlink:href="#DejaVuSans-72"/>
       <use x="266.503906" xlink:href="#DejaVuSans-69"/>
       <use x="294.287109" xlink:href="#DejaVuSans-6f"/>
       <use x="355.46875" xlink:href="#DejaVuSans-72"/>
       <use x="396.582031" xlink:href="#DejaVuSans-5f"/>
       <use x="446.582031" xlink:href="#DejaVuSans-67"/>
       <use x="510.058594" xlink:href="#DejaVuSans-72"/>
       <use x="548.921875" xlink:href="#DejaVuSans-6f"/>
       <use x="610.103516" xlink:href="#DejaVuSans-6f"/>
       <use x="671.285156" xlink:href="#DejaVuSans-6d"/>
       <use x="768.697266" xlink:href="#DejaVuSans-69"/>
       <use x="796.480469" xlink:href="#DejaVuSans-6e"/>
       <use x="859.859375" xlink:href="#DejaVuSans-67"/>
      </g>
     </g>
    </g>
    <g id="xtick_4">
     <g id="line2d_4">
      <g>
       <use style="stroke:#000000;stroke-width:0.8;" x="226.928125" xlink:href="#m41ac2ca17c" y="279"/>
      </g>
     </g>
     <g id="text_4">
      <!-- antennal_grooming -->
      <g transform="translate(229.548438 382.796875)rotate(-90)scale(0.1 -0.1)">
       <use xlink:href="#DejaVuSans-61"/>
       <use x="61.279297" xlink:href="#DejaVuSans-6e"/>
       <use x="124.658203" xlink:href="#DejaVuSans-74"/>
       <use x="163.867188" xlink:href="#DejaVuSans-65"/>
       <use x="225.390625" xlink:href="#DejaVuSans-6e"/>
       <use x="288.769531" xlink:href="#DejaVuSans-6e"/>
       <use x="352.148438" xlink:href="#DejaVuSans-61"/>
       <use x="413.427734" xlink:href="#DejaVuSans-6c"/>
       <use x="441.210938" xlink:href="#DejaVuSans-5f"/>
       <use x="491.210938" xlink:href="#DejaVuSans-67"/>
       <use x="554.6875" xlink:href="#DejaVuSans-72"/>
       <use x="593.550781" xlink:href="#DejaVuSans-6f"/>
       <use x="654.732422" xlink:href="#DejaVuSans-6f"/>
       <use x="715.914062" xlink:href="#DejaVuSans-6d"/>
       <use x="813.326172" xlink:href="#DejaVuSans-69"/>
       <use x="841.109375" xlink:href="#DejaVuSans-6e"/>
       <use x="904.488281" xlink:href="#DejaVuSans-67"/>
      </g>
     </g>
    </g>
    <g id="xtick_5">
     <g id="line2d_5">
      <g>
       <use style="stroke:#000000;stroke-width:0.8;" x="276.528125" xlink:href="#m41ac2ca17c" y="279"/>
      </g>
     </g>
     <g id="text_5">
      <!-- foreleg_grooming -->
      <g transform="translate(279.148438 373.634375)rotate(-90)scale(0.1 -0.1)">
       <defs>
        <path d="M 2375 4863 
L 2375 4384 
L 1825 4384 
Q 1516 4384 1395 4259 
Q 1275 4134 1275 3809 
L 1275 3500 
L 2222 3500 
L 2222 3053 
L 1275 3053 
L 1275 0 
L 697 0 
L 697 3053 
L 147 3053 
L 147 3500 
L 697 3500 
L 697 3744 
Q 697 4328 969 4595 
Q 1241 4863 1831 4863 
L 2375 4863 
z
" id="DejaVuSans-66" transform="scale(0.015625)"/>
       </defs>
       <use xlink:href="#DejaVuSans-66"/>
       <use x="35.205078" xlink:href="#DejaVuSans-6f"/>
       <use x="96.386719" xlink:href="#DejaVuSans-72"/>
       <use x="135.25" xlink:href="#DejaVuSans-65"/>
       <use x="196.773438" xlink:href="#DejaVuSans-6c"/>
       <use x="224.556641" xlink:href="#DejaVuSans-65"/>
       <use x="286.080078" xlink:href="#DejaVuSans-67"/>
       <use x="349.556641" xlink:href="#DejaVuSans-5f"/>
       <use x="399.556641" xlink:href="#DejaVuSans-67"/>
       <use x="463.033203" xlink:href="#DejaVuSans-72"/>
       <use x="501.896484" xlink:href="#DejaVuSans-6f"/>
       <use x="563.078125" xlink:href="#DejaVuSans-6f"/>
       <use x="624.259766" xlink:href="#DejaVuSans-6d"/>
       <use x="721.671875" xlink:href="#DejaVuSans-69"/>
       <use x="749.455078" xlink:href="#DejaVuSans-6e"/>
       <use x="812.833984" xlink:href="#DejaVuSans-67"/>
      </g>
     </g>
    </g>
    <g id="xtick_6">
     <g id="line2d_6">
      <g>
       <use style="stroke:#000000;stroke-width:0.8;" x="326.128125" xlink:href="#m41ac2ca17c" y="279"/>
      </g>
     </g>
     <g id="text_6">
      <!-- abdominal_grooming -->
      <g transform="translate(328.748437 391.382813)rotate(-90)scale(0.1 -0.1)">
       <defs>
        <path d="M 3116 1747 
Q 3116 2381 2855 2742 
Q 2594 3103 2138 3103 
Q 1681 3103 1420 2742 
Q 1159 2381 1159 1747 
Q 1159 1113 1420 752 
Q 1681 391 2138 391 
Q 2594 391 2855 752 
Q 3116 1113 3116 1747 
z
M 1159 2969 
Q 1341 3281 1617 3432 
Q 1894 3584 2278 3584 
Q 2916 3584 3314 3078 
Q 3713 2572 3713 1747 
Q 3713 922 3314 415 
Q 2916 -91 2278 -91 
Q 1894 -91 1617 61 
Q 1341 213 1159 525 
L 1159 0 
L 581 0 
L 581 4863 
L 1159 4863 
L 1159 2969 
z
" id="DejaVuSans-62" transform="scale(0.015625)"/>
        <path d="M 2906 2969 
L 2906 4863 
L 3481 4863 
L 3481 0 
L 2906 0 
L 2906 525 
Q 2725 213 2448 61 
Q 2172 -91 1784 -91 
Q 1150 -91 751 415 
Q 353 922 353 1747 
Q 353 2572 751 3078 
Q 1150 3584 1784 3584 
Q 2172 3584 2448 3432 
Q 2725 3281 2906 2969 
z
M 947 1747 
Q 947 1113 1208 752 
Q 1469 391 1925 391 
Q 2381 391 2643 752 
Q 2906 1113 2906 1747 
Q 2906 2381 2643 2742 
Q 2381 3103 1925 3103 
Q 1469 3103 1208 2742 
Q 947 2381 947 1747 
z
" id="DejaVuSans-64" transform="scale(0.015625)"/>
       </defs>
       <use xlink:href="#DejaVuSans-61"/>
       <use x="61.279297" xlink:href="#DejaVuSans-62"/>
       <use x="124.755859" xlink:href="#DejaVuSans-64"/>
       <use x="188.232422" xlink:href="#DejaVuSans-6f"/>
       <use x="249.414062" xlink:href="#DejaVuSans-6d"/>
       <use x="346.826172" xlink:href="#DejaVuSans-69"/>
       <use x="374.609375" xlink:href="#DejaVuSans-6e"/>
       <use x="437.988281" xlink:href="#DejaVuSans-61"/>
       <use x="499.267578" xlink:href="#DejaVuSans-6c"/>
       <use x="527.050781" xlink:href="#DejaVuSans-5f"/>
       <use x="577.050781" xlink:href="#DejaVuSans-67"/>
       <use x="640.527344" xlink:href="#DejaVuSans-72"/>
       <use x="679.390625" xlink:href="#DejaVuSans-6f"/>
       <use x="740.572266" xlink:href="#DejaVuSans-6f"/>
       <use x="801.753906" xlink:href="#DejaVuSans-6d"/>
       <use x="899.166016" xlink:href="#DejaVuSans-69"/>
       <use x="926.949219" xlink:href="#DejaVuSans-6e"/>
       <use x="990.328125" xlink:href="#DejaVuSans-67"/>
      </g>
     </g>
    </g>
    <g id="xtick_7">
     <g id="line2d_7">
      <g>
       <use style="stroke:#000000;stroke-width:0.8;" x="375.728125" xlink:href="#m41ac2ca17c" y="279"/>
      </g>
     </g>
     <g id="text_7">
      <!-- abdominal_pushing -->
      <g transform="translate(378.348437 383.403125)rotate(-90)scale(0.1 -0.1)">
       <defs>
        <path d="M 1159 525 
L 1159 -1331 
L 581 -1331 
L 581 3500 
L 1159 3500 
L 1159 2969 
Q 1341 3281 1617 3432 
Q 1894 3584 2278 3584 
Q 2916 3584 3314 3078 
Q 3713 2572 3713 1747 
Q 3713 922 3314 415 
Q 2916 -91 2278 -91 
Q 1894 -91 1617 61 
Q 1341 213 1159 525 
z
M 3116 1747 
Q 3116 2381 2855 2742 
Q 2594 3103 2138 3103 
Q 1681 3103 1420 2742 
Q 1159 2381 1159 1747 
Q 1159 1113 1420 752 
Q 1681 391 2138 391 
Q 2594 391 2855 752 
Q 3116 1113 3116 1747 
z
" id="DejaVuSans-70" transform="scale(0.015625)"/>
        <path d="M 544 1381 
L 544 3500 
L 1119 3500 
L 1119 1403 
Q 1119 906 1312 657 
Q 1506 409 1894 409 
Q 2359 409 2629 706 
Q 2900 1003 2900 1516 
L 2900 3500 
L 3475 3500 
L 3475 0 
L 2900 0 
L 2900 538 
Q 2691 219 2414 64 
Q 2138 -91 1772 -91 
Q 1169 -91 856 284 
Q 544 659 544 1381 
z
M 1991 3584 
L 1991 3584 
z
" id="DejaVuSans-75" transform="scale(0.015625)"/>
        <path d="M 3513 2113 
L 3513 0 
L 2938 0 
L 2938 2094 
Q 2938 2591 2744 2837 
Q 2550 3084 2163 3084 
Q 1697 3084 1428 2787 
Q 1159 2491 1159 1978 
L 1159 0 
L 581 0 
L 581 4863 
L 1159 4863 
L 1159 2956 
Q 1366 3272 1645 3428 
Q 1925 3584 2291 3584 
Q 2894 3584 3203 3211 
Q 3513 2838 3513 2113 
z
" id="DejaVuSans-68" transform="scale(0.015625)"/>
       </defs>
       <use xlink:href="#DejaVuSans-61"/>
       <use x="61.279297" xlink:href="#DejaVuSans-62"/>
       <use x="124.755859" xlink:href="#DejaVuSans-64"/>
       <use x="188.232422" xlink:href="#DejaVuSans-6f"/>
       <use x="249.414062" xlink:href="#DejaVuSans-6d"/>
       <use x="346.826172" xlink:href="#DejaVuSans-69"/>
       <use x="374.609375" xlink:href="#DejaVuSans-6e"/>
       <use x="437.988281" xlink:href="#DejaVuSans-61"/>
       <use x="499.267578" xlink:href="#DejaVuSans-6c"/>
       <use x="527.050781" xlink:href="#DejaVuSans-5f"/>
       <use x="577.050781" xlink:href="#DejaVuSans-70"/>
       <use x="640.527344" xlink:href="#DejaVuSans-75"/>
       <use x="703.90625" xlink:href="#DejaVuSans-73"/>
       <use x="756.005859" xlink:href="#DejaVuSans-68"/>
       <use x="819.384766" xlink:href="#DejaVuSans-69"/>
       <use x="847.167969" xlink:href="#DejaVuSans-6e"/>
       <use x="910.546875" xlink:href="#DejaVuSans-67"/>
      </g>
     </g>
    </g>
    <g id="xtick_8">
     <g id="line2d_8">
      <g>
       <use style="stroke:#000000;stroke-width:0.8;" x="425.328125" xlink:href="#m41ac2ca17c" y="279"/>
      </g>
     </g>
     <g id="text_8">
      <!-- posterior_grooming -->
      <g transform="translate(427.948437 383.545313)rotate(-90)scale(0.1 -0.1)">
       <use xlink:href="#DejaVuSans-70"/>
       <use x="63.476562" xlink:href="#DejaVuSans-6f"/>
       <use x="124.658203" xlink:href="#DejaVuSans-73"/>
       <use x="176.757812" xlink:href="#DejaVuSans-74"/>
       <use x="215.966797" xlink:href="#DejaVuSans-65"/>
       <use x="277.490234" xlink:href="#DejaVuSans-72"/>
       <use x="318.603516" xlink:href="#DejaVuSans-69"/>
       <use x="346.386719" xlink:href="#DejaVuSans-6f"/>
       <use x="407.568359" xlink:href="#DejaVuSans-72"/>
       <use x="448.681641" xlink:href="#DejaVuSans-5f"/>
       <use x="498.681641" xlink:href="#DejaVuSans-67"/>
       <use x="562.158203" xlink:href="#DejaVuSans-72"/>
       <use x="601.021484" xlink:href="#DejaVuSans-6f"/>
       <use x="662.203125" xlink:href="#DejaVuSans-6f"/>
       <use x="723.384766" xlink:href="#DejaVuSans-6d"/>
       <use x="820.796875" xlink:href="#DejaVuSans-69"/>
       <use x="848.580078" xlink:href="#DejaVuSans-6e"/>
       <use x="911.958984" xlink:href="#DejaVuSans-67"/>
      </g>
     </g>
    </g>
    <g id="xtick_9">
     <g id="line2d_9">
      <g>
       <use style="stroke:#000000;stroke-width:0.8;" x="474.928125" xlink:href="#m41ac2ca17c" y="279"/>
      </g>
     </g>
     <g id="text_9">
      <!-- hindleg_grooming -->
      <g transform="translate(477.548437 375.757813)rotate(-90)scale(0.1 -0.1)">
       <use xlink:href="#DejaVuSans-68"/>
       <use x="63.378906" xlink:href="#DejaVuSans-69"/>
       <use x="91.162109" xlink:href="#DejaVuSans-6e"/>
       <use x="154.541016" xlink:href="#DejaVuSans-64"/>
       <use x="218.017578" xlink:href="#DejaVuSans-6c"/>
       <use x="245.800781" xlink:href="#DejaVuSans-65"/>
       <use x="307.324219" xlink:href="#DejaVuSans-67"/>
       <use x="370.800781" xlink:href="#DejaVuSans-5f"/>
       <use x="420.800781" xlink:href="#DejaVuSans-67"/>
       <use x="484.277344" xlink:href="#DejaVuSans-72"/>
       <use x="523.140625" xlink:href="#DejaVuSans-6f"/>
       <use x="584.322266" xlink:href="#DejaVuSans-6f"/>
       <use x="645.503906" xlink:href="#DejaVuSans-6d"/>
       <use x="742.916016" xlink:href="#DejaVuSans-69"/>
       <use x="770.699219" xlink:href="#DejaVuSans-6e"/>
       <use x="834.078125" xlink:href="#DejaVuSans-67"/>
      </g>
     </g>
    </g>
   </g>
   <g id="matplotlib.axis_2">
    <g id="ytick_1">
     <g id="line2d_10">
      <defs>
       <path d="M 0 0 
L -3.5 0 
" id="ma2c53b820d" style="stroke:#000000;stroke-width:0.8;"/>
      </defs>
      <g>
       <use style="stroke:#000000;stroke-width:0.8;" x="53.328125" xlink:href="#ma2c53b820d" y="233.117122"/>
      </g>
     </g>
     <g id="text_10">
      <!-- 1000 -->
      <g transform="translate(20.878125 236.91634)scale(0.1 -0.1)">
       <defs>
        <path d="M 794 531 
L 1825 531 
L 1825 4091 
L 703 3866 
L 703 4441 
L 1819 4666 
L 2450 4666 
L 2450 531 
L 3481 531 
L 3481 0 
L 794 0 
L 794 531 
z
" id="DejaVuSans-31" transform="scale(0.015625)"/>
        <path d="M 2034 4250 
Q 1547 4250 1301 3770 
Q 1056 3291 1056 2328 
Q 1056 1369 1301 889 
Q 1547 409 2034 409 
Q 2525 409 2770 889 
Q 3016 1369 3016 2328 
Q 3016 3291 2770 3770 
Q 2525 4250 2034 4250 
z
M 2034 4750 
Q 2819 4750 3233 4129 
Q 3647 3509 3647 2328 
Q 3647 1150 3233 529 
Q 2819 -91 2034 -91 
Q 1250 -91 836 529 
Q 422 1150 422 2328 
Q 422 3509 836 4129 
Q 1250 4750 2034 4750 
z
" id="DejaVuSans-30" transform="scale(0.015625)"/>
       </defs>
       <use xlink:href="#DejaVuSans-31"/>
       <use x="63.623047" xlink:href="#DejaVuSans-30"/>
       <use x="127.246094" xlink:href="#DejaVuSans-30"/>
       <use x="190.869141" xlink:href="#DejaVuSans-30"/>
      </g>
     </g>
    </g>
    <g id="ytick_2">
     <g id="line2d_11">
      <g>
       <use style="stroke:#000000;stroke-width:0.8;" x="53.328125" xlink:href="#ma2c53b820d" y="176.061358"/>
      </g>
     </g>
     <g id="text_11">
      <!-- 2000 -->
      <g transform="translate(20.878125 179.860577)scale(0.1 -0.1)">
       <defs>
        <path d="M 1228 531 
L 3431 531 
L 3431 0 
L 469 0 
L 469 531 
Q 828 903 1448 1529 
Q 2069 2156 2228 2338 
Q 2531 2678 2651 2914 
Q 2772 3150 2772 3378 
Q 2772 3750 2511 3984 
Q 2250 4219 1831 4219 
Q 1534 4219 1204 4116 
Q 875 4013 500 3803 
L 500 4441 
Q 881 4594 1212 4672 
Q 1544 4750 1819 4750 
Q 2544 4750 2975 4387 
Q 3406 4025 3406 3419 
Q 3406 3131 3298 2873 
Q 3191 2616 2906 2266 
Q 2828 2175 2409 1742 
Q 1991 1309 1228 531 
z
" id="DejaVuSans-32" transform="scale(0.015625)"/>
       </defs>
       <use xlink:href="#DejaVuSans-32"/>
       <use x="63.623047" xlink:href="#DejaVuSans-30"/>
       <use x="127.246094" xlink:href="#DejaVuSans-30"/>
       <use x="190.869141" xlink:href="#DejaVuSans-30"/>
      </g>
     </g>
    </g>
    <g id="ytick_3">
     <g id="line2d_12">
      <g>
       <use style="stroke:#000000;stroke-width:0.8;" x="53.328125" xlink:href="#ma2c53b820d" y="119.005595"/>
      </g>
     </g>
     <g id="text_12">
      <!-- 3000 -->
      <g transform="translate(20.878125 122.804814)scale(0.1 -0.1)">
       <defs>
        <path d="M 2597 2516 
Q 3050 2419 3304 2112 
Q 3559 1806 3559 1356 
Q 3559 666 3084 287 
Q 2609 -91 1734 -91 
Q 1441 -91 1130 -33 
Q 819 25 488 141 
L 488 750 
Q 750 597 1062 519 
Q 1375 441 1716 441 
Q 2309 441 2620 675 
Q 2931 909 2931 1356 
Q 2931 1769 2642 2001 
Q 2353 2234 1838 2234 
L 1294 2234 
L 1294 2753 
L 1863 2753 
Q 2328 2753 2575 2939 
Q 2822 3125 2822 3475 
Q 2822 3834 2567 4026 
Q 2313 4219 1838 4219 
Q 1578 4219 1281 4162 
Q 984 4106 628 3988 
L 628 4550 
Q 988 4650 1302 4700 
Q 1616 4750 1894 4750 
Q 2613 4750 3031 4423 
Q 3450 4097 3450 3541 
Q 3450 3153 3228 2886 
Q 3006 2619 2597 2516 
z
" id="DejaVuSans-33" transform="scale(0.015625)"/>
       </defs>
       <use xlink:href="#DejaVuSans-33"/>
       <use x="63.623047" xlink:href="#DejaVuSans-30"/>
       <use x="127.246094" xlink:href="#DejaVuSans-30"/>
       <use x="190.869141" xlink:href="#DejaVuSans-30"/>
      </g>
     </g>
    </g>
    <g id="ytick_4">
     <g id="line2d_13">
      <g>
       <use style="stroke:#000000;stroke-width:0.8;" x="53.328125" xlink:href="#ma2c53b820d" y="61.949832"/>
      </g>
     </g>
     <g id="text_13">
      <!-- 4000 -->
      <g transform="translate(20.878125 65.749051)scale(0.1 -0.1)">
       <defs>
        <path d="M 2419 4116 
L 825 1625 
L 2419 1625 
L 2419 4116 
z
M 2253 4666 
L 3047 4666 
L 3047 1625 
L 3713 1625 
L 3713 1100 
L 3047 1100 
L 3047 0 
L 2419 0 
L 2419 1100 
L 313 1100 
L 313 1709 
L 2253 4666 
z
" id="DejaVuSans-34" transform="scale(0.015625)"/>
       </defs>
       <use xlink:href="#DejaVuSans-34"/>
       <use x="63.623047" xlink:href="#DejaVuSans-30"/>
       <use x="127.246094" xlink:href="#DejaVuSans-30"/>
       <use x="190.869141" xlink:href="#DejaVuSans-30"/>
      </g>
     </g>
    </g>
    <g id="text_14">
     <!-- mean $\% \Delta F/F$ neuron -->
     <g transform="translate(14.798438 193.8)rotate(-90)scale(0.1 -0.1)">
      <defs>
       <path id="DejaVuSans-20" transform="scale(0.015625)"/>
       <path d="M 4653 2053 
Q 4381 2053 4226 1822 
Q 4072 1591 4072 1178 
Q 4072 772 4226 539 
Q 4381 306 4653 306 
Q 4919 306 5073 539 
Q 5228 772 5228 1178 
Q 5228 1588 5073 1820 
Q 4919 2053 4653 2053 
z
M 4653 2450 
Q 5147 2450 5437 2106 
Q 5728 1763 5728 1178 
Q 5728 594 5436 251 
Q 5144 -91 4653 -91 
Q 4153 -91 3862 251 
Q 3572 594 3572 1178 
Q 3572 1766 3864 2108 
Q 4156 2450 4653 2450 
z
M 1428 4353 
Q 1159 4353 1004 4120 
Q 850 3888 850 3481 
Q 850 3069 1003 2837 
Q 1156 2606 1428 2606 
Q 1700 2606 1854 2837 
Q 2009 3069 2009 3481 
Q 2009 3884 1853 4118 
Q 1697 4353 1428 4353 
z
M 4250 4750 
L 4750 4750 
L 1831 -91 
L 1331 -91 
L 4250 4750 
z
M 1428 4750 
Q 1922 4750 2215 4408 
Q 2509 4066 2509 3481 
Q 2509 2891 2217 2550 
Q 1925 2209 1428 2209 
Q 931 2209 642 2551 
Q 353 2894 353 3481 
Q 353 4063 643 4406 
Q 934 4750 1428 4750 
z
" id="DejaVuSans-25" transform="scale(0.015625)"/>
       <path d="M 2188 4044 
L 906 525 
L 3472 525 
L 2188 4044 
z
M 50 0 
L 1831 4666 
L 2547 4666 
L 4325 0 
L 50 0 
z
" id="DejaVuSans-394" transform="scale(0.015625)"/>
       <path d="M 1081 4666 
L 3756 4666 
L 3653 4134 
L 1606 4134 
L 1338 2759 
L 3188 2759 
L 3084 2228 
L 1234 2228 
L 800 0 
L 172 0 
L 1081 4666 
z
" id="DejaVuSans-Oblique-46" transform="scale(0.015625)"/>
       <path d="M 1625 4666 
L 2156 4666 
L 531 -594 
L 0 -594 
L 1625 4666 
z
" id="DejaVuSans-2f" transform="scale(0.015625)"/>
      </defs>
      <use transform="translate(0 0.78125)" xlink:href="#DejaVuSans-6d"/>
      <use transform="translate(97.412109 0.78125)" xlink:href="#DejaVuSans-65"/>
      <use transform="translate(158.935547 0.78125)" xlink:href="#DejaVuSans-61"/>
      <use transform="translate(220.214844 0.78125)" xlink:href="#DejaVuSans-6e"/>
      <use transform="translate(283.59375 0.78125)" xlink:href="#DejaVuSans-20"/>
      <use transform="translate(315.380859 0.78125)" xlink:href="#DejaVuSans-25"/>
      <use transform="translate(410.400391 0.78125)" xlink:href="#DejaVuSans-394"/>
      <use transform="translate(478.808594 0.78125)" xlink:href="#DejaVuSans-Oblique-46"/>
      <use transform="translate(536.328125 0.78125)" xlink:href="#DejaVuSans-2f"/>
      <use transform="translate(570.019531 0.78125)" xlink:href="#DejaVuSans-Oblique-46"/>
      <use transform="translate(627.539062 0.78125)" xlink:href="#DejaVuSans-20"/>
      <use transform="translate(659.326172 0.78125)" xlink:href="#DejaVuSans-6e"/>
      <use transform="translate(722.705078 0.78125)" xlink:href="#DejaVuSans-65"/>
      <use transform="translate(784.228516 0.78125)" xlink:href="#DejaVuSans-75"/>
      <use transform="translate(847.607422 0.78125)" xlink:href="#DejaVuSans-72"/>
      <use transform="translate(888.720703 0.78125)" xlink:href="#DejaVuSans-6f"/>
      <use transform="translate(949.902344 0.78125)" xlink:href="#DejaVuSans-6e"/>
     </g>
    </g>
   </g>
   <g id="line2d_14">
    <path clip-path="url(#pbf5ca11a54)" d="M 65.728125 230.899526 
L 90.528125 230.899526 
L 90.528125 207.04308 
L 65.728125 207.04308 
L 65.728125 230.899526 
" style="fill:none;stroke:#000000;stroke-linecap:square;"/>
   </g>
   <g id="line2d_15">
    <path clip-path="url(#pbf5ca11a54)" d="M 78.128125 230.899526 
L 78.128125 263.699875 
" style="fill:none;stroke:#000000;stroke-linecap:square;"/>
   </g>
   <g id="line2d_16">
    <path clip-path="url(#pbf5ca11a54)" d="M 78.128125 207.04308 
L 78.128125 171.370175 
" style="fill:none;stroke:#000000;stroke-linecap:square;"/>
   </g>
   <g id="line2d_17">
    <path clip-path="url(#pbf5ca11a54)" d="M 71.928125 263.699875 
L 84.328125 263.699875 
" style="fill:none;stroke:#000000;stroke-linecap:square;"/>
   </g>
   <g id="line2d_18">
    <path clip-path="url(#pbf5ca11a54)" d="M 71.928125 171.370175 
L 84.328125 171.370175 
" style="fill:none;stroke:#000000;stroke-linecap:square;"/>
   </g>
   <g id="line2d_19">
    <defs>
     <path d="M 0 3 
C 0.795609 3 1.55874 2.683901 2.12132 2.12132 
C 2.683901 1.55874 3 0.795609 3 0 
C 3 -0.795609 2.683901 -1.55874 2.12132 -2.12132 
C 1.55874 -2.683901 0.795609 -3 0 -3 
C -0.795609 -3 -1.55874 -2.683901 -2.12132 -2.12132 
C -2.683901 -1.55874 -3 -0.795609 -3 0 
C -3 0.795609 -2.683901 1.55874 -2.12132 2.12132 
C -1.55874 2.683901 -0.795609 3 0 3 
z
" id="m994ea4652a" style="stroke:#000000;"/>
    </defs>
    <g clip-path="url(#pbf5ca11a54)">
     <use style="fill-opacity:0;stroke:#000000;" x="78.128125" xlink:href="#m994ea4652a" y="52.131062"/>
     <use style="fill-opacity:0;stroke:#000000;" x="78.128125" xlink:href="#m994ea4652a" y="133.64057"/>
     <use style="fill-opacity:0;stroke:#000000;" x="78.128125" xlink:href="#m994ea4652a" y="154.904228"/>
     <use style="fill-opacity:0;stroke:#000000;" x="78.128125" xlink:href="#m994ea4652a" y="111.829497"/>
     <use style="fill-opacity:0;stroke:#000000;" x="78.128125" xlink:href="#m994ea4652a" y="169.655772"/>
     <use style="fill-opacity:0;stroke:#000000;" x="78.128125" xlink:href="#m994ea4652a" y="127.133519"/>
     <use style="fill-opacity:0;stroke:#000000;" x="78.128125" xlink:href="#m994ea4652a" y="169.099096"/>
    </g>
   </g>
   <g id="line2d_20">
    <path clip-path="url(#pbf5ca11a54)" d="M 115.328125 232.053037 
L 140.128125 232.053037 
L 140.128125 208.99806 
L 115.328125 208.99806 
L 115.328125 232.053037 
" style="fill:none;stroke:#000000;stroke-linecap:square;"/>
   </g>
   <g id="line2d_21">
    <path clip-path="url(#pbf5ca11a54)" d="M 127.728125 232.053037 
L 127.728125 262.658775 
" style="fill:none;stroke:#000000;stroke-linecap:square;"/>
   </g>
   <g id="line2d_22">
    <path clip-path="url(#pbf5ca11a54)" d="M 127.728125 208.99806 
L 127.728125 174.76382 
" style="fill:none;stroke:#000000;stroke-linecap:square;"/>
   </g>
   <g id="line2d_23">
    <path clip-path="url(#pbf5ca11a54)" d="M 121.528125 262.658775 
L 133.928125 262.658775 
" style="fill:none;stroke:#000000;stroke-linecap:square;"/>
   </g>
   <g id="line2d_24">
    <path clip-path="url(#pbf5ca11a54)" d="M 121.528125 174.76382 
L 133.928125 174.76382 
" style="fill:none;stroke:#000000;stroke-linecap:square;"/>
   </g>
   <g id="line2d_25">
    <g clip-path="url(#pbf5ca11a54)">
     <use style="fill-opacity:0;stroke:#000000;" x="127.728125" xlink:href="#m994ea4652a" y="58.069922"/>
     <use style="fill-opacity:0;stroke:#000000;" x="127.728125" xlink:href="#m994ea4652a" y="138.90966"/>
     <use style="fill-opacity:0;stroke:#000000;" x="127.728125" xlink:href="#m994ea4652a" y="158.975013"/>
     <use style="fill-opacity:0;stroke:#000000;" x="127.728125" xlink:href="#m994ea4652a" y="113.811033"/>
     <use style="fill-opacity:0;stroke:#000000;" x="127.728125" xlink:href="#m994ea4652a" y="170.830193"/>
     <use style="fill-opacity:0;stroke:#000000;" x="127.728125" xlink:href="#m994ea4652a" y="129.916256"/>
    </g>
   </g>
   <g id="line2d_26">
    <path clip-path="url(#pbf5ca11a54)" d="M 164.928125 229.887712 
L 189.728125 229.887712 
L 189.728125 206.08297 
L 164.928125 206.08297 
L 164.928125 229.887712 
" style="fill:none;stroke:#000000;stroke-linecap:square;"/>
   </g>
   <g id="line2d_27">
    <path clip-path="url(#pbf5ca11a54)" d="M 177.328125 229.887712 
L 177.328125 265.105269 
" style="fill:none;stroke:#000000;stroke-linecap:square;"/>
   </g>
   <g id="line2d_28">
    <path clip-path="url(#pbf5ca11a54)" d="M 177.328125 206.08297 
L 177.328125 172.120577 
" style="fill:none;stroke:#000000;stroke-linecap:square;"/>
   </g>
   <g id="line2d_29">
    <path clip-path="url(#pbf5ca11a54)" d="M 171.128125 265.105269 
L 183.528125 265.105269 
" style="fill:none;stroke:#000000;stroke-linecap:square;"/>
   </g>
   <g id="line2d_30">
    <path clip-path="url(#pbf5ca11a54)" d="M 171.128125 172.120577 
L 183.528125 172.120577 
" style="fill:none;stroke:#000000;stroke-linecap:square;"/>
   </g>
   <g id="line2d_31">
    <g clip-path="url(#pbf5ca11a54)">
     <use style="fill-opacity:0;stroke:#000000;" x="177.328125" xlink:href="#m994ea4652a" y="164.29109"/>
     <use style="fill-opacity:0;stroke:#000000;" x="177.328125" xlink:href="#m994ea4652a" y="160.342566"/>
     <use style="fill-opacity:0;stroke:#000000;" x="177.328125" xlink:href="#m994ea4652a" y="47.636617"/>
     <use style="fill-opacity:0;stroke:#000000;" x="177.328125" xlink:href="#m994ea4652a" y="128.449013"/>
     <use style="fill-opacity:0;stroke:#000000;" x="177.328125" xlink:href="#m994ea4652a" y="150.169412"/>
     <use style="fill-opacity:0;stroke:#000000;" x="177.328125" xlink:href="#m994ea4652a" y="170.113489"/>
     <use style="fill-opacity:0;stroke:#000000;" x="177.328125" xlink:href="#m994ea4652a" y="109.653757"/>
     <use style="fill-opacity:0;stroke:#000000;" x="177.328125" xlink:href="#m994ea4652a" y="169.138501"/>
     <use style="fill-opacity:0;stroke:#000000;" x="177.328125" xlink:href="#m994ea4652a" y="126.666755"/>
     <use style="fill-opacity:0;stroke:#000000;" x="177.328125" xlink:href="#m994ea4652a" y="159.658865"/>
    </g>
   </g>
   <g id="line2d_32">
    <path clip-path="url(#pbf5ca11a54)" d="M 214.528125 228.017055 
L 239.328125 228.017055 
L 239.328125 203.120951 
L 214.528125 203.120951 
L 214.528125 228.017055 
" style="fill:none;stroke:#000000;stroke-linecap:square;"/>
   </g>
   <g id="line2d_33">
    <path clip-path="url(#pbf5ca11a54)" d="M 226.928125 228.017055 
L 226.928125 264.871094 
" style="fill:none;stroke:#000000;stroke-linecap:square;"/>
   </g>
   <g id="line2d_34">
    <path clip-path="url(#pbf5ca11a54)" d="M 226.928125 203.120951 
L 226.928125 167.409035 
" style="fill:none;stroke:#000000;stroke-linecap:square;"/>
   </g>
   <g id="line2d_35">
    <path clip-path="url(#pbf5ca11a54)" d="M 220.728125 264.871094 
L 233.128125 264.871094 
" style="fill:none;stroke:#000000;stroke-linecap:square;"/>
   </g>
   <g id="line2d_36">
    <path clip-path="url(#pbf5ca11a54)" d="M 220.728125 167.409035 
L 233.128125 167.409035 
" style="fill:none;stroke:#000000;stroke-linecap:square;"/>
   </g>
   <g id="line2d_37">
    <g clip-path="url(#pbf5ca11a54)">
     <use style="fill-opacity:0;stroke:#000000;" x="226.928125" xlink:href="#m994ea4652a" y="161.848955"/>
     <use style="fill-opacity:0;stroke:#000000;" x="226.928125" xlink:href="#m994ea4652a" y="158.061245"/>
     <use style="fill-opacity:0;stroke:#000000;" x="226.928125" xlink:href="#m994ea4652a" y="41.492172"/>
     <use style="fill-opacity:0;stroke:#000000;" x="226.928125" xlink:href="#m994ea4652a" y="126.49855"/>
     <use style="fill-opacity:0;stroke:#000000;" x="226.928125" xlink:href="#m994ea4652a" y="149.381887"/>
     <use style="fill-opacity:0;stroke:#000000;" x="226.928125" xlink:href="#m994ea4652a" y="106.935621"/>
     <use style="fill-opacity:0;stroke:#000000;" x="226.928125" xlink:href="#m994ea4652a" y="126.526908"/>
     <use style="fill-opacity:0;stroke:#000000;" x="226.928125" xlink:href="#m994ea4652a" y="153.362886"/>
    </g>
   </g>
   <g id="line2d_38">
    <path clip-path="url(#pbf5ca11a54)" d="M 264.128125 227.822026 
L 288.928125 227.822026 
L 288.928125 203.092337 
L 264.128125 203.092337 
L 264.128125 227.822026 
" style="fill:none;stroke:#000000;stroke-linecap:square;"/>
   </g>
   <g id="line2d_39">
    <path clip-path="url(#pbf5ca11a54)" d="M 276.528125 227.822026 
L 276.528125 257.670543 
" style="fill:none;stroke:#000000;stroke-linecap:square;"/>
   </g>
   <g id="line2d_40">
    <path clip-path="url(#pbf5ca11a54)" d="M 276.528125 203.092337 
L 276.528125 166.182877 
" style="fill:none;stroke:#000000;stroke-linecap:square;"/>
   </g>
   <g id="line2d_41">
    <path clip-path="url(#pbf5ca11a54)" d="M 270.328125 257.670543 
L 282.728125 257.670543 
" style="fill:none;stroke:#000000;stroke-linecap:square;"/>
   </g>
   <g id="line2d_42">
    <path clip-path="url(#pbf5ca11a54)" d="M 270.328125 166.182877 
L 282.728125 166.182877 
" style="fill:none;stroke:#000000;stroke-linecap:square;"/>
   </g>
   <g id="line2d_43">
    <g clip-path="url(#pbf5ca11a54)">
     <use style="fill-opacity:0;stroke:#000000;" x="276.528125" xlink:href="#m994ea4652a" y="265.393391"/>
     <use style="fill-opacity:0;stroke:#000000;" x="276.528125" xlink:href="#m994ea4652a" y="143.279325"/>
     <use style="fill-opacity:0;stroke:#000000;" x="276.528125" xlink:href="#m994ea4652a" y="134.782769"/>
     <use style="fill-opacity:0;stroke:#000000;" x="276.528125" xlink:href="#m994ea4652a" y="49.621999"/>
     <use style="fill-opacity:0;stroke:#000000;" x="276.528125" xlink:href="#m994ea4652a" y="129.993939"/>
     <use style="fill-opacity:0;stroke:#000000;" x="276.528125" xlink:href="#m994ea4652a" y="143.85701"/>
     <use style="fill-opacity:0;stroke:#000000;" x="276.528125" xlink:href="#m994ea4652a" y="159.393409"/>
     <use style="fill-opacity:0;stroke:#000000;" x="276.528125" xlink:href="#m994ea4652a" y="111.517579"/>
     <use style="fill-opacity:0;stroke:#000000;" x="276.528125" xlink:href="#m994ea4652a" y="125.322422"/>
     <use style="fill-opacity:0;stroke:#000000;" x="276.528125" xlink:href="#m994ea4652a" y="149.92695"/>
    </g>
   </g>
   <g id="line2d_44">
    <path clip-path="url(#pbf5ca11a54)" d="M 313.728125 229.465004 
L 338.528125 229.465004 
L 338.528125 198.673301 
L 313.728125 198.673301 
L 313.728125 229.465004 
" style="fill:none;stroke:#000000;stroke-linecap:square;"/>
   </g>
   <g id="line2d_45">
    <path clip-path="url(#pbf5ca11a54)" d="M 326.128125 229.465004 
L 326.128125 266.645455 
" style="fill:none;stroke:#000000;stroke-linecap:square;"/>
   </g>
   <g id="line2d_46">
    <path clip-path="url(#pbf5ca11a54)" d="M 326.128125 198.673301 
L 326.128125 152.67051 
" style="fill:none;stroke:#000000;stroke-linecap:square;"/>
   </g>
   <g id="line2d_47">
    <path clip-path="url(#pbf5ca11a54)" d="M 319.928125 266.645455 
L 332.328125 266.645455 
" style="fill:none;stroke:#000000;stroke-linecap:square;"/>
   </g>
   <g id="line2d_48">
    <path clip-path="url(#pbf5ca11a54)" d="M 319.928125 152.67051 
L 332.328125 152.67051 
" style="fill:none;stroke:#000000;stroke-linecap:square;"/>
   </g>
   <g id="line2d_49">
    <g clip-path="url(#pbf5ca11a54)">
     <use style="fill-opacity:0;stroke:#000000;" x="326.128125" xlink:href="#m994ea4652a" y="120.320095"/>
     <use style="fill-opacity:0;stroke:#000000;" x="326.128125" xlink:href="#m994ea4652a" y="111.974562"/>
     <use style="fill-opacity:0;stroke:#000000;" x="326.128125" xlink:href="#m994ea4652a" y="24.042416"/>
     <use style="fill-opacity:0;stroke:#000000;" x="326.128125" xlink:href="#m994ea4652a" y="118.575607"/>
     <use style="fill-opacity:0;stroke:#000000;" x="326.128125" xlink:href="#m994ea4652a" y="135.69329"/>
     <use style="fill-opacity:0;stroke:#000000;" x="326.128125" xlink:href="#m994ea4652a" y="150.854597"/>
     <use style="fill-opacity:0;stroke:#000000;" x="326.128125" xlink:href="#m994ea4652a" y="104.314548"/>
     <use style="fill-opacity:0;stroke:#000000;" x="326.128125" xlink:href="#m994ea4652a" y="132.910674"/>
    </g>
   </g>
   <g id="line2d_50">
    <path clip-path="url(#pbf5ca11a54)" d="M 363.328125 230.171374 
L 388.128125 230.171374 
L 388.128125 200.62701 
L 363.328125 200.62701 
L 363.328125 230.171374 
" style="fill:none;stroke:#000000;stroke-linecap:square;"/>
   </g>
   <g id="line2d_51">
    <path clip-path="url(#pbf5ca11a54)" d="M 375.728125 230.171374 
L 375.728125 266.578935 
" style="fill:none;stroke:#000000;stroke-linecap:square;"/>
   </g>
   <g id="line2d_52">
    <path clip-path="url(#pbf5ca11a54)" d="M 375.728125 200.62701 
L 375.728125 157.171511 
" style="fill:none;stroke:#000000;stroke-linecap:square;"/>
   </g>
   <g id="line2d_53">
    <path clip-path="url(#pbf5ca11a54)" d="M 369.528125 266.578935 
L 381.928125 266.578935 
" style="fill:none;stroke:#000000;stroke-linecap:square;"/>
   </g>
   <g id="line2d_54">
    <path clip-path="url(#pbf5ca11a54)" d="M 369.528125 157.171511 
L 381.928125 157.171511 
" style="fill:none;stroke:#000000;stroke-linecap:square;"/>
   </g>
   <g id="line2d_55">
    <g clip-path="url(#pbf5ca11a54)">
     <use style="fill-opacity:0;stroke:#000000;" x="375.728125" xlink:href="#m994ea4652a" y="149.851249"/>
     <use style="fill-opacity:0;stroke:#000000;" x="375.728125" xlink:href="#m994ea4652a" y="117.830882"/>
     <use style="fill-opacity:0;stroke:#000000;" x="375.728125" xlink:href="#m994ea4652a" y="107.086107"/>
     <use style="fill-opacity:0;stroke:#000000;" x="375.728125" xlink:href="#m994ea4652a" y="19.554545"/>
     <use style="fill-opacity:0;stroke:#000000;" x="375.728125" xlink:href="#m994ea4652a" y="119.00449"/>
     <use style="fill-opacity:0;stroke:#000000;" x="375.728125" xlink:href="#m994ea4652a" y="132.481379"/>
     <use style="fill-opacity:0;stroke:#000000;" x="375.728125" xlink:href="#m994ea4652a" y="150.070275"/>
     <use style="fill-opacity:0;stroke:#000000;" x="375.728125" xlink:href="#m994ea4652a" y="100.866532"/>
     <use style="fill-opacity:0;stroke:#000000;" x="375.728125" xlink:href="#m994ea4652a" y="131.062361"/>
    </g>
   </g>
   <g id="line2d_56">
    <path clip-path="url(#pbf5ca11a54)" d="M 412.928125 232.759184 
L 437.728125 232.759184 
L 437.728125 210.253571 
L 412.928125 210.253571 
L 412.928125 232.759184 
" style="fill:none;stroke:#000000;stroke-linecap:square;"/>
   </g>
   <g id="line2d_57">
    <path clip-path="url(#pbf5ca11a54)" d="M 425.328125 232.759184 
L 425.328125 262.272684 
" style="fill:none;stroke:#000000;stroke-linecap:square;"/>
   </g>
   <g id="line2d_58">
    <path clip-path="url(#pbf5ca11a54)" d="M 425.328125 210.253571 
L 425.328125 180.760216 
" style="fill:none;stroke:#000000;stroke-linecap:square;"/>
   </g>
   <g id="line2d_59">
    <path clip-path="url(#pbf5ca11a54)" d="M 419.128125 262.272684 
L 431.528125 262.272684 
" style="fill:none;stroke:#000000;stroke-linecap:square;"/>
   </g>
   <g id="line2d_60">
    <path clip-path="url(#pbf5ca11a54)" d="M 419.128125 180.760216 
L 431.528125 180.760216 
" style="fill:none;stroke:#000000;stroke-linecap:square;"/>
   </g>
   <g id="line2d_61">
    <g clip-path="url(#pbf5ca11a54)">
     <use style="fill-opacity:0;stroke:#000000;" x="425.328125" xlink:href="#m994ea4652a" y="169.21329"/>
     <use style="fill-opacity:0;stroke:#000000;" x="425.328125" xlink:href="#m994ea4652a" y="161.171397"/>
     <use style="fill-opacity:0;stroke:#000000;" x="425.328125" xlink:href="#m994ea4652a" y="70.663048"/>
     <use style="fill-opacity:0;stroke:#000000;" x="425.328125" xlink:href="#m994ea4652a" y="145.355122"/>
     <use style="fill-opacity:0;stroke:#000000;" x="425.328125" xlink:href="#m994ea4652a" y="172.545313"/>
     <use style="fill-opacity:0;stroke:#000000;" x="425.328125" xlink:href="#m994ea4652a" y="151.693367"/>
     <use style="fill-opacity:0;stroke:#000000;" x="425.328125" xlink:href="#m994ea4652a" y="176.472901"/>
     <use style="fill-opacity:0;stroke:#000000;" x="425.328125" xlink:href="#m994ea4652a" y="169.296643"/>
     <use style="fill-opacity:0;stroke:#000000;" x="425.328125" xlink:href="#m994ea4652a" y="117.088653"/>
     <use style="fill-opacity:0;stroke:#000000;" x="425.328125" xlink:href="#m994ea4652a" y="171.968387"/>
     <use style="fill-opacity:0;stroke:#000000;" x="425.328125" xlink:href="#m994ea4652a" y="130.504946"/>
    </g>
   </g>
   <g id="line2d_62">
    <path clip-path="url(#pbf5ca11a54)" d="M 462.528125 230.920362 
L 487.328125 230.920362 
L 487.328125 206.754849 
L 462.528125 206.754849 
L 462.528125 230.920362 
" style="fill:none;stroke:#000000;stroke-linecap:square;"/>
   </g>
   <g id="line2d_63">
    <path clip-path="url(#pbf5ca11a54)" d="M 474.928125 230.920362 
L 474.928125 259.324923 
" style="fill:none;stroke:#000000;stroke-linecap:square;"/>
   </g>
   <g id="line2d_64">
    <path clip-path="url(#pbf5ca11a54)" d="M 474.928125 206.754849 
L 474.928125 174.226695 
" style="fill:none;stroke:#000000;stroke-linecap:square;"/>
   </g>
   <g id="line2d_65">
    <path clip-path="url(#pbf5ca11a54)" d="M 468.728125 259.324923 
L 481.128125 259.324923 
" style="fill:none;stroke:#000000;stroke-linecap:square;"/>
   </g>
   <g id="line2d_66">
    <path clip-path="url(#pbf5ca11a54)" d="M 468.728125 174.226695 
L 481.128125 174.226695 
" style="fill:none;stroke:#000000;stroke-linecap:square;"/>
   </g>
   <g id="line2d_67">
    <g clip-path="url(#pbf5ca11a54)">
     <use style="fill-opacity:0;stroke:#000000;" x="474.928125" xlink:href="#m994ea4652a" y="155.576666"/>
     <use style="fill-opacity:0;stroke:#000000;" x="474.928125" xlink:href="#m994ea4652a" y="150.307879"/>
     <use style="fill-opacity:0;stroke:#000000;" x="474.928125" xlink:href="#m994ea4652a" y="70.750477"/>
     <use style="fill-opacity:0;stroke:#000000;" x="474.928125" xlink:href="#m994ea4652a" y="150.378644"/>
     <use style="fill-opacity:0;stroke:#000000;" x="474.928125" xlink:href="#m994ea4652a" y="160.351849"/>
     <use style="fill-opacity:0;stroke:#000000;" x="474.928125" xlink:href="#m994ea4652a" y="152.209612"/>
     <use style="fill-opacity:0;stroke:#000000;" x="474.928125" xlink:href="#m994ea4652a" y="126.301627"/>
     <use style="fill-opacity:0;stroke:#000000;" x="474.928125" xlink:href="#m994ea4652a" y="170.175577"/>
     <use style="fill-opacity:0;stroke:#000000;" x="474.928125" xlink:href="#m994ea4652a" y="134.765886"/>
     <use style="fill-opacity:0;stroke:#000000;" x="474.928125" xlink:href="#m994ea4652a" y="161.327048"/>
    </g>
   </g>
   <g id="line2d_68">
    <path clip-path="url(#pbf5ca11a54)" d="M 65.728125 220.607934 
L 90.528125 220.607934 
" style="fill:none;stroke:#ff7f0e;stroke-linecap:square;"/>
   </g>
   <g id="line2d_69">
    <path clip-path="url(#pbf5ca11a54)" d="M 115.328125 221.402753 
L 140.128125 221.402753 
" style="fill:none;stroke:#ff7f0e;stroke-linecap:square;"/>
   </g>
   <g id="line2d_70">
    <path clip-path="url(#pbf5ca11a54)" d="M 164.928125 219.739006 
L 189.728125 219.739006 
" style="fill:none;stroke:#ff7f0e;stroke-linecap:square;"/>
   </g>
   <g id="line2d_71">
    <path clip-path="url(#pbf5ca11a54)" d="M 214.528125 217.972272 
L 239.328125 217.972272 
" style="fill:none;stroke:#ff7f0e;stroke-linecap:square;"/>
   </g>
   <g id="line2d_72">
    <path clip-path="url(#pbf5ca11a54)" d="M 264.128125 218.072259 
L 288.928125 218.072259 
" style="fill:none;stroke:#ff7f0e;stroke-linecap:square;"/>
   </g>
   <g id="line2d_73">
    <path clip-path="url(#pbf5ca11a54)" d="M 313.728125 216.438384 
L 338.528125 216.438384 
" style="fill:none;stroke:#ff7f0e;stroke-linecap:square;"/>
   </g>
   <g id="line2d_74">
    <path clip-path="url(#pbf5ca11a54)" d="M 363.328125 217.230892 
L 388.128125 217.230892 
" style="fill:none;stroke:#ff7f0e;stroke-linecap:square;"/>
   </g>
   <g id="line2d_75">
    <path clip-path="url(#pbf5ca11a54)" d="M 412.928125 222.179622 
L 437.728125 222.179622 
" style="fill:none;stroke:#ff7f0e;stroke-linecap:square;"/>
   </g>
   <g id="line2d_76">
    <path clip-path="url(#pbf5ca11a54)" d="M 462.528125 219.640966 
L 487.328125 219.640966 
" style="fill:none;stroke:#ff7f0e;stroke-linecap:square;"/>
   </g>
   <g id="patch_3">
    <path d="M 53.328125 279 
L 53.328125 7.2 
" style="fill:none;stroke:#000000;stroke-linecap:square;stroke-linejoin:miter;stroke-width:0.8;"/>
   </g>
   <g id="patch_4">
    <path d="M 499.728125 279 
L 499.728125 7.2 
" style="fill:none;stroke:#000000;stroke-linecap:square;stroke-linejoin:miter;stroke-width:0.8;"/>
   </g>
   <g id="patch_5">
    <path d="M 53.328125 279 
L 499.728125 279 
" style="fill:none;stroke:#000000;stroke-linecap:square;stroke-linejoin:miter;stroke-width:0.8;"/>
   </g>
   <g id="patch_6">
    <path d="M 53.328125 7.2 
L 499.728125 7.2 
" style="fill:none;stroke:#000000;stroke-linecap:square;stroke-linejoin:miter;stroke-width:0.8;"/>
   </g>
  </g>
 </g>
 <defs>
  <clipPath id="pbf5ca11a54">
   <rect height="271.8" width="446.4" x="53.328125" y="7.2"/>
  </clipPath>
 </defs>
</svg>
