<?xml version="1.0" encoding="utf-8" standalone="no"?>
<!DOCTYPE svg PUBLIC "-//W3C//DTD SVG 1.1//EN"
  "http://www.w3.org/Graphics/SVG/1.1/DTD/svg11.dtd">
<svg height="370.91625pt" version="1.1" viewBox="0 0 965.31875 370.91625" width="965.31875pt" xmlns="http://www.w3.org/2000/svg" xmlns:xlink="http://www.w3.org/1999/xlink">
 <metadata>
  <rdf:RDF xmlns:cc="http://creativecommons.org/ns#" xmlns:dc="http://purl.org/dc/elements/1.1/" xmlns:rdf="http://www.w3.org/1999/02/22-rdf-syntax-ns#">
   <cc:Work>
    <dc:type rdf:resource="http://purl.org/dc/dcmitype/StillImage"/>
    <dc:date>2021-05-25T10:27:23.501614</dc:date>
    <dc:format>image/svg+xml</dc:format>
    <dc:creator>
     <cc:Agent>
      <dc:title>Matplotlib v3.4.1, https://matplotlib.org/</dc:title>
     </cc:Agent>
    </dc:creator>
   </cc:Work>
  </rdf:RDF>
 </metadata>
 <defs>
  <style type="text/css">*{stroke-linecap:butt;stroke-linejoin:round;}</style>
 </defs>
 <g id="figure_1">
  <g id="patch_1">
   <path d="M 0 370.91625 
L 965.31875 370.91625 
L 965.31875 0 
L 0 0 
z
" style="fill:none;"/>
  </g>
  <g id="axes_1">
   <g id="patch_2">
    <path d="M 65.31875 333.36 
L 958.11875 333.36 
L 958.11875 7.2 
L 65.31875 7.2 
z
" style="fill:#ffffff;"/>
   </g>
   <g id="matplotlib.axis_1">
    <g id="xtick_1">
     <g id="line2d_1">
      <path clip-path="url(#pc13d6a09ad)" d="M 99.872076 333.36 
L 99.872076 7.2 
" style="fill:none;stroke:#b0b0b0;stroke-linecap:square;stroke-width:0.8;"/>
     </g>
     <g id="line2d_2">
      <defs>
       <path d="M 0 0 
L 0 3.5 
" id="m96ef10d726" style="stroke:#000000;stroke-width:0.8;"/>
      </defs>
      <g>
       <use style="stroke:#000000;stroke-width:0.8;" x="99.872076" xlink:href="#m96ef10d726" y="333.36"/>
      </g>
     </g>
     <g id="text_1">
      <!-- 0 -->
      <g transform="translate(96.690826 347.958438)scale(0.1 -0.1)">
       <defs>
        <path d="M 2034 4250 
Q 1547 4250 1301 3770 
Q 1056 3291 1056 2328 
Q 1056 1369 1301 889 
Q 1547 409 2034 409 
Q 2525 409 2770 889 
Q 3016 1369 3016 2328 
Q 3016 3291 2770 3770 
Q 2525 4250 2034 4250 
z
M 2034 4750 
Q 2819 4750 3233 4129 
Q 3647 3509 3647 2328 
Q 3647 1150 3233 529 
Q 2819 -91 2034 -91 
Q 1250 -91 836 529 
Q 422 1150 422 2328 
Q 422 3509 836 4129 
Q 1250 4750 2034 4750 
z
" id="DejaVuSans-30" transform="scale(0.015625)"/>
       </defs>
       <use xlink:href="#DejaVuSans-30"/>
      </g>
     </g>
    </g>
    <g id="xtick_2">
     <g id="line2d_3">
      <path clip-path="url(#pc13d6a09ad)" d="M 263.089559 333.36 
L 263.089559 7.2 
" style="fill:none;stroke:#b0b0b0;stroke-linecap:square;stroke-width:0.8;"/>
     </g>
     <g id="line2d_4">
      <g>
       <use style="stroke:#000000;stroke-width:0.8;" x="263.089559" xlink:href="#m96ef10d726" y="333.36"/>
      </g>
     </g>
     <g id="text_2">
      <!-- 50 -->
      <g transform="translate(256.727059 347.958438)scale(0.1 -0.1)">
       <defs>
        <path d="M 691 4666 
L 3169 4666 
L 3169 4134 
L 1269 4134 
L 1269 2991 
Q 1406 3038 1543 3061 
Q 1681 3084 1819 3084 
Q 2600 3084 3056 2656 
Q 3513 2228 3513 1497 
Q 3513 744 3044 326 
Q 2575 -91 1722 -91 
Q 1428 -91 1123 -41 
Q 819 9 494 109 
L 494 744 
Q 775 591 1075 516 
Q 1375 441 1709 441 
Q 2250 441 2565 725 
Q 2881 1009 2881 1497 
Q 2881 1984 2565 2268 
Q 2250 2553 1709 2553 
Q 1456 2553 1204 2497 
Q 953 2441 691 2322 
L 691 4666 
z
" id="DejaVuSans-35" transform="scale(0.015625)"/>
       </defs>
       <use xlink:href="#DejaVuSans-35"/>
       <use x="63.623047" xlink:href="#DejaVuSans-30"/>
      </g>
     </g>
    </g>
    <g id="xtick_3">
     <g id="line2d_5">
      <path clip-path="url(#pc13d6a09ad)" d="M 426.307041 333.36 
L 426.307041 7.2 
" style="fill:none;stroke:#b0b0b0;stroke-linecap:square;stroke-width:0.8;"/>
     </g>
     <g id="line2d_6">
      <g>
       <use style="stroke:#000000;stroke-width:0.8;" x="426.307041" xlink:href="#m96ef10d726" y="333.36"/>
      </g>
     </g>
     <g id="text_3">
      <!-- 100 -->
      <g transform="translate(416.763291 347.958438)scale(0.1 -0.1)">
       <defs>
        <path d="M 794 531 
L 1825 531 
L 1825 4091 
L 703 3866 
L 703 4441 
L 1819 4666 
L 2450 4666 
L 2450 531 
L 3481 531 
L 3481 0 
L 794 0 
L 794 531 
z
" id="DejaVuSans-31" transform="scale(0.015625)"/>
       </defs>
       <use xlink:href="#DejaVuSans-31"/>
       <use x="63.623047" xlink:href="#DejaVuSans-30"/>
       <use x="127.246094" xlink:href="#DejaVuSans-30"/>
      </g>
     </g>
    </g>
    <g id="xtick_4">
     <g id="line2d_7">
      <path clip-path="url(#pc13d6a09ad)" d="M 589.524524 333.36 
L 589.524524 7.2 
" style="fill:none;stroke:#b0b0b0;stroke-linecap:square;stroke-width:0.8;"/>
     </g>
     <g id="line2d_8">
      <g>
       <use style="stroke:#000000;stroke-width:0.8;" x="589.524524" xlink:href="#m96ef10d726" y="333.36"/>
      </g>
     </g>
     <g id="text_4">
      <!-- 150 -->
      <g transform="translate(579.980774 347.958438)scale(0.1 -0.1)">
       <use xlink:href="#DejaVuSans-31"/>
       <use x="63.623047" xlink:href="#DejaVuSans-35"/>
       <use x="127.246094" xlink:href="#DejaVuSans-30"/>
      </g>
     </g>
    </g>
    <g id="xtick_5">
     <g id="line2d_9">
      <path clip-path="url(#pc13d6a09ad)" d="M 752.742007 333.36 
L 752.742007 7.2 
" style="fill:none;stroke:#b0b0b0;stroke-linecap:square;stroke-width:0.8;"/>
     </g>
     <g id="line2d_10">
      <g>
       <use style="stroke:#000000;stroke-width:0.8;" x="752.742007" xlink:href="#m96ef10d726" y="333.36"/>
      </g>
     </g>
     <g id="text_5">
      <!-- 200 -->
      <g transform="translate(743.198257 347.958438)scale(0.1 -0.1)">
       <defs>
        <path d="M 1228 531 
L 3431 531 
L 3431 0 
L 469 0 
L 469 531 
Q 828 903 1448 1529 
Q 2069 2156 2228 2338 
Q 2531 2678 2651 2914 
Q 2772 3150 2772 3378 
Q 2772 3750 2511 3984 
Q 2250 4219 1831 4219 
Q 1534 4219 1204 4116 
Q 875 4013 500 3803 
L 500 4441 
Q 881 4594 1212 4672 
Q 1544 4750 1819 4750 
Q 2544 4750 2975 4387 
Q 3406 4025 3406 3419 
Q 3406 3131 3298 2873 
Q 3191 2616 2906 2266 
Q 2828 2175 2409 1742 
Q 1991 1309 1228 531 
z
" id="DejaVuSans-32" transform="scale(0.015625)"/>
       </defs>
       <use xlink:href="#DejaVuSans-32"/>
       <use x="63.623047" xlink:href="#DejaVuSans-30"/>
       <use x="127.246094" xlink:href="#DejaVuSans-30"/>
      </g>
     </g>
    </g>
    <g id="xtick_6">
     <g id="line2d_11">
      <path clip-path="url(#pc13d6a09ad)" d="M 915.959489 333.36 
L 915.959489 7.2 
" style="fill:none;stroke:#b0b0b0;stroke-linecap:square;stroke-width:0.8;"/>
     </g>
     <g id="line2d_12">
      <g>
       <use style="stroke:#000000;stroke-width:0.8;" x="915.959489" xlink:href="#m96ef10d726" y="333.36"/>
      </g>
     </g>
     <g id="text_6">
      <!-- 250 -->
      <g transform="translate(906.415739 347.958438)scale(0.1 -0.1)">
       <use xlink:href="#DejaVuSans-32"/>
       <use x="63.623047" xlink:href="#DejaVuSans-35"/>
       <use x="127.246094" xlink:href="#DejaVuSans-30"/>
      </g>
     </g>
    </g>
    <g id="text_7">
     <!-- Time [s] -->
     <g transform="translate(491.389844 361.636562)scale(0.1 -0.1)">
      <defs>
       <path d="M -19 4666 
L 3928 4666 
L 3928 4134 
L 2272 4134 
L 2272 0 
L 1638 0 
L 1638 4134 
L -19 4134 
L -19 4666 
z
" id="DejaVuSans-54" transform="scale(0.015625)"/>
       <path d="M 603 3500 
L 1178 3500 
L 1178 0 
L 603 0 
L 603 3500 
z
M 603 4863 
L 1178 4863 
L 1178 4134 
L 603 4134 
L 603 4863 
z
" id="DejaVuSans-69" transform="scale(0.015625)"/>
       <path d="M 3328 2828 
Q 3544 3216 3844 3400 
Q 4144 3584 4550 3584 
Q 5097 3584 5394 3201 
Q 5691 2819 5691 2113 
L 5691 0 
L 5113 0 
L 5113 2094 
Q 5113 2597 4934 2840 
Q 4756 3084 4391 3084 
Q 3944 3084 3684 2787 
Q 3425 2491 3425 1978 
L 3425 0 
L 2847 0 
L 2847 2094 
Q 2847 2600 2669 2842 
Q 2491 3084 2119 3084 
Q 1678 3084 1418 2786 
Q 1159 2488 1159 1978 
L 1159 0 
L 581 0 
L 581 3500 
L 1159 3500 
L 1159 2956 
Q 1356 3278 1631 3431 
Q 1906 3584 2284 3584 
Q 2666 3584 2933 3390 
Q 3200 3197 3328 2828 
z
" id="DejaVuSans-6d" transform="scale(0.015625)"/>
       <path d="M 3597 1894 
L 3597 1613 
L 953 1613 
Q 991 1019 1311 708 
Q 1631 397 2203 397 
Q 2534 397 2845 478 
Q 3156 559 3463 722 
L 3463 178 
Q 3153 47 2828 -22 
Q 2503 -91 2169 -91 
Q 1331 -91 842 396 
Q 353 884 353 1716 
Q 353 2575 817 3079 
Q 1281 3584 2069 3584 
Q 2775 3584 3186 3129 
Q 3597 2675 3597 1894 
z
M 3022 2063 
Q 3016 2534 2758 2815 
Q 2500 3097 2075 3097 
Q 1594 3097 1305 2825 
Q 1016 2553 972 2059 
L 3022 2063 
z
" id="DejaVuSans-65" transform="scale(0.015625)"/>
       <path id="DejaVuSans-20" transform="scale(0.015625)"/>
       <path d="M 550 4863 
L 1875 4863 
L 1875 4416 
L 1125 4416 
L 1125 -397 
L 1875 -397 
L 1875 -844 
L 550 -844 
L 550 4863 
z
" id="DejaVuSans-5b" transform="scale(0.015625)"/>
       <path d="M 2834 3397 
L 2834 2853 
Q 2591 2978 2328 3040 
Q 2066 3103 1784 3103 
Q 1356 3103 1142 2972 
Q 928 2841 928 2578 
Q 928 2378 1081 2264 
Q 1234 2150 1697 2047 
L 1894 2003 
Q 2506 1872 2764 1633 
Q 3022 1394 3022 966 
Q 3022 478 2636 193 
Q 2250 -91 1575 -91 
Q 1294 -91 989 -36 
Q 684 19 347 128 
L 347 722 
Q 666 556 975 473 
Q 1284 391 1588 391 
Q 1994 391 2212 530 
Q 2431 669 2431 922 
Q 2431 1156 2273 1281 
Q 2116 1406 1581 1522 
L 1381 1569 
Q 847 1681 609 1914 
Q 372 2147 372 2553 
Q 372 3047 722 3315 
Q 1072 3584 1716 3584 
Q 2034 3584 2315 3537 
Q 2597 3491 2834 3397 
z
" id="DejaVuSans-73" transform="scale(0.015625)"/>
       <path d="M 1947 4863 
L 1947 -844 
L 622 -844 
L 622 -397 
L 1369 -397 
L 1369 4416 
L 622 4416 
L 622 4863 
L 1947 4863 
z
" id="DejaVuSans-5d" transform="scale(0.015625)"/>
      </defs>
      <use xlink:href="#DejaVuSans-54"/>
      <use x="57.958984" xlink:href="#DejaVuSans-69"/>
      <use x="85.742188" xlink:href="#DejaVuSans-6d"/>
      <use x="183.154297" xlink:href="#DejaVuSans-65"/>
      <use x="244.677734" xlink:href="#DejaVuSans-20"/>
      <use x="276.464844" xlink:href="#DejaVuSans-5b"/>
      <use x="315.478516" xlink:href="#DejaVuSans-73"/>
      <use x="367.578125" xlink:href="#DejaVuSans-5d"/>
     </g>
    </g>
   </g>
   <g id="matplotlib.axis_2">
    <g id="ytick_1">
     <g id="line2d_13">
      <path clip-path="url(#pc13d6a09ad)" d="M 65.31875 314.920416 
L 958.11875 314.920416 
" style="fill:none;stroke:#b0b0b0;stroke-linecap:square;stroke-width:0.8;"/>
     </g>
     <g id="line2d_14">
      <defs>
       <path d="M 0 0 
L -3.5 0 
" id="m87fcfc65bb" style="stroke:#000000;stroke-width:0.8;"/>
      </defs>
      <g>
       <use style="stroke:#000000;stroke-width:0.8;" x="65.31875" xlink:href="#m87fcfc65bb" y="314.920416"/>
      </g>
     </g>
     <g id="text_8">
      <!-- trial_1 -->
      <g transform="translate(27.240625 318.719635)scale(0.1 -0.1)">
       <defs>
        <path d="M 1172 4494 
L 1172 3500 
L 2356 3500 
L 2356 3053 
L 1172 3053 
L 1172 1153 
Q 1172 725 1289 603 
Q 1406 481 1766 481 
L 2356 481 
L 2356 0 
L 1766 0 
Q 1100 0 847 248 
Q 594 497 594 1153 
L 594 3053 
L 172 3053 
L 172 3500 
L 594 3500 
L 594 4494 
L 1172 4494 
z
" id="DejaVuSans-74" transform="scale(0.015625)"/>
        <path d="M 2631 2963 
Q 2534 3019 2420 3045 
Q 2306 3072 2169 3072 
Q 1681 3072 1420 2755 
Q 1159 2438 1159 1844 
L 1159 0 
L 581 0 
L 581 3500 
L 1159 3500 
L 1159 2956 
Q 1341 3275 1631 3429 
Q 1922 3584 2338 3584 
Q 2397 3584 2469 3576 
Q 2541 3569 2628 3553 
L 2631 2963 
z
" id="DejaVuSans-72" transform="scale(0.015625)"/>
        <path d="M 2194 1759 
Q 1497 1759 1228 1600 
Q 959 1441 959 1056 
Q 959 750 1161 570 
Q 1363 391 1709 391 
Q 2188 391 2477 730 
Q 2766 1069 2766 1631 
L 2766 1759 
L 2194 1759 
z
M 3341 1997 
L 3341 0 
L 2766 0 
L 2766 531 
Q 2569 213 2275 61 
Q 1981 -91 1556 -91 
Q 1019 -91 701 211 
Q 384 513 384 1019 
Q 384 1609 779 1909 
Q 1175 2209 1959 2209 
L 2766 2209 
L 2766 2266 
Q 2766 2663 2505 2880 
Q 2244 3097 1772 3097 
Q 1472 3097 1187 3025 
Q 903 2953 641 2809 
L 641 3341 
Q 956 3463 1253 3523 
Q 1550 3584 1831 3584 
Q 2591 3584 2966 3190 
Q 3341 2797 3341 1997 
z
" id="DejaVuSans-61" transform="scale(0.015625)"/>
        <path d="M 603 4863 
L 1178 4863 
L 1178 0 
L 603 0 
L 603 4863 
z
" id="DejaVuSans-6c" transform="scale(0.015625)"/>
        <path d="M 3263 -1063 
L 3263 -1509 
L -63 -1509 
L -63 -1063 
L 3263 -1063 
z
" id="DejaVuSans-5f" transform="scale(0.015625)"/>
       </defs>
       <use xlink:href="#DejaVuSans-74"/>
       <use x="39.208984" xlink:href="#DejaVuSans-72"/>
       <use x="80.322266" xlink:href="#DejaVuSans-69"/>
       <use x="108.105469" xlink:href="#DejaVuSans-61"/>
       <use x="169.384766" xlink:href="#DejaVuSans-6c"/>
       <use x="197.167969" xlink:href="#DejaVuSans-5f"/>
       <use x="247.167969" xlink:href="#DejaVuSans-31"/>
      </g>
     </g>
    </g>
    <g id="ytick_2">
     <g id="line2d_15">
      <path clip-path="url(#pc13d6a09ad)" d="M 65.31875 290.252407 
L 958.11875 290.252407 
" style="fill:none;stroke:#b0b0b0;stroke-linecap:square;stroke-width:0.8;"/>
     </g>
     <g id="line2d_16">
      <g>
       <use style="stroke:#000000;stroke-width:0.8;" x="65.31875" xlink:href="#m87fcfc65bb" y="290.252407"/>
      </g>
     </g>
     <g id="text_9">
      <!-- trial_2 -->
      <g transform="translate(27.240625 294.051626)scale(0.1 -0.1)">
       <use xlink:href="#DejaVuSans-74"/>
       <use x="39.208984" xlink:href="#DejaVuSans-72"/>
       <use x="80.322266" xlink:href="#DejaVuSans-69"/>
       <use x="108.105469" xlink:href="#DejaVuSans-61"/>
       <use x="169.384766" xlink:href="#DejaVuSans-6c"/>
       <use x="197.167969" xlink:href="#DejaVuSans-5f"/>
       <use x="247.167969" xlink:href="#DejaVuSans-32"/>
      </g>
     </g>
    </g>
    <g id="ytick_3">
     <g id="line2d_17">
      <path clip-path="url(#pc13d6a09ad)" d="M 65.31875 264.156366 
L 958.11875 264.156366 
" style="fill:none;stroke:#b0b0b0;stroke-linecap:square;stroke-width:0.8;"/>
     </g>
     <g id="line2d_18">
      <g>
       <use style="stroke:#000000;stroke-width:0.8;" x="65.31875" xlink:href="#m87fcfc65bb" y="264.156366"/>
      </g>
     </g>
     <g id="text_10">
      <!-- trial_3 -->
      <g transform="translate(27.240625 267.955585)scale(0.1 -0.1)">
       <defs>
        <path d="M 2597 2516 
Q 3050 2419 3304 2112 
Q 3559 1806 3559 1356 
Q 3559 666 3084 287 
Q 2609 -91 1734 -91 
Q 1441 -91 1130 -33 
Q 819 25 488 141 
L 488 750 
Q 750 597 1062 519 
Q 1375 441 1716 441 
Q 2309 441 2620 675 
Q 2931 909 2931 1356 
Q 2931 1769 2642 2001 
Q 2353 2234 1838 2234 
L 1294 2234 
L 1294 2753 
L 1863 2753 
Q 2328 2753 2575 2939 
Q 2822 3125 2822 3475 
Q 2822 3834 2567 4026 
Q 2313 4219 1838 4219 
Q 1578 4219 1281 4162 
Q 984 4106 628 3988 
L 628 4550 
Q 988 4650 1302 4700 
Q 1616 4750 1894 4750 
Q 2613 4750 3031 4423 
Q 3450 4097 3450 3541 
Q 3450 3153 3228 2886 
Q 3006 2619 2597 2516 
z
" id="DejaVuSans-33" transform="scale(0.015625)"/>
       </defs>
       <use xlink:href="#DejaVuSans-74"/>
       <use x="39.208984" xlink:href="#DejaVuSans-72"/>
       <use x="80.322266" xlink:href="#DejaVuSans-69"/>
       <use x="108.105469" xlink:href="#DejaVuSans-61"/>
       <use x="169.384766" xlink:href="#DejaVuSans-6c"/>
       <use x="197.167969" xlink:href="#DejaVuSans-5f"/>
       <use x="247.167969" xlink:href="#DejaVuSans-33"/>
      </g>
     </g>
    </g>
    <g id="ytick_4">
     <g id="line2d_19">
      <path clip-path="url(#pc13d6a09ad)" d="M 65.31875 239.424409 
L 958.11875 239.424409 
" style="fill:none;stroke:#b0b0b0;stroke-linecap:square;stroke-width:0.8;"/>
     </g>
     <g id="line2d_20">
      <g>
       <use style="stroke:#000000;stroke-width:0.8;" x="65.31875" xlink:href="#m87fcfc65bb" y="239.424409"/>
      </g>
     </g>
     <g id="text_11">
      <!-- trial_4 -->
      <g transform="translate(27.240625 243.223627)scale(0.1 -0.1)">
       <defs>
        <path d="M 2419 4116 
L 825 1625 
L 2419 1625 
L 2419 4116 
z
M 2253 4666 
L 3047 4666 
L 3047 1625 
L 3713 1625 
L 3713 1100 
L 3047 1100 
L 3047 0 
L 2419 0 
L 2419 1100 
L 313 1100 
L 313 1709 
L 2253 4666 
z
" id="DejaVuSans-34" transform="scale(0.015625)"/>
       </defs>
       <use xlink:href="#DejaVuSans-74"/>
       <use x="39.208984" xlink:href="#DejaVuSans-72"/>
       <use x="80.322266" xlink:href="#DejaVuSans-69"/>
       <use x="108.105469" xlink:href="#DejaVuSans-61"/>
       <use x="169.384766" xlink:href="#DejaVuSans-6c"/>
       <use x="197.167969" xlink:href="#DejaVuSans-5f"/>
       <use x="247.167969" xlink:href="#DejaVuSans-34"/>
      </g>
     </g>
    </g>
    <g id="ytick_5">
     <g id="line2d_21">
      <path clip-path="url(#pc13d6a09ad)" d="M 65.31875 212.38057 
L 958.11875 212.38057 
" style="fill:none;stroke:#b0b0b0;stroke-linecap:square;stroke-width:0.8;"/>
     </g>
     <g id="line2d_22">
      <g>
       <use style="stroke:#000000;stroke-width:0.8;" x="65.31875" xlink:href="#m87fcfc65bb" y="212.38057"/>
      </g>
     </g>
     <g id="text_12">
      <!-- trial_5 -->
      <g transform="translate(27.240625 216.179789)scale(0.1 -0.1)">
       <use xlink:href="#DejaVuSans-74"/>
       <use x="39.208984" xlink:href="#DejaVuSans-72"/>
       <use x="80.322266" xlink:href="#DejaVuSans-69"/>
       <use x="108.105469" xlink:href="#DejaVuSans-61"/>
       <use x="169.384766" xlink:href="#DejaVuSans-6c"/>
       <use x="197.167969" xlink:href="#DejaVuSans-5f"/>
       <use x="247.167969" xlink:href="#DejaVuSans-35"/>
      </g>
     </g>
    </g>
    <g id="ytick_6">
     <g id="line2d_23">
      <path clip-path="url(#pc13d6a09ad)" d="M 65.31875 186.070757 
L 958.11875 186.070757 
" style="fill:none;stroke:#b0b0b0;stroke-linecap:square;stroke-width:0.8;"/>
     </g>
     <g id="line2d_24">
      <g>
       <use style="stroke:#000000;stroke-width:0.8;" x="65.31875" xlink:href="#m87fcfc65bb" y="186.070757"/>
      </g>
     </g>
     <g id="text_13">
      <!-- trial_6 -->
      <g transform="translate(27.240625 189.869976)scale(0.1 -0.1)">
       <defs>
        <path d="M 2113 2584 
Q 1688 2584 1439 2293 
Q 1191 2003 1191 1497 
Q 1191 994 1439 701 
Q 1688 409 2113 409 
Q 2538 409 2786 701 
Q 3034 994 3034 1497 
Q 3034 2003 2786 2293 
Q 2538 2584 2113 2584 
z
M 3366 4563 
L 3366 3988 
Q 3128 4100 2886 4159 
Q 2644 4219 2406 4219 
Q 1781 4219 1451 3797 
Q 1122 3375 1075 2522 
Q 1259 2794 1537 2939 
Q 1816 3084 2150 3084 
Q 2853 3084 3261 2657 
Q 3669 2231 3669 1497 
Q 3669 778 3244 343 
Q 2819 -91 2113 -91 
Q 1303 -91 875 529 
Q 447 1150 447 2328 
Q 447 3434 972 4092 
Q 1497 4750 2381 4750 
Q 2619 4750 2861 4703 
Q 3103 4656 3366 4563 
z
" id="DejaVuSans-36" transform="scale(0.015625)"/>
       </defs>
       <use xlink:href="#DejaVuSans-74"/>
       <use x="39.208984" xlink:href="#DejaVuSans-72"/>
       <use x="80.322266" xlink:href="#DejaVuSans-69"/>
       <use x="108.105469" xlink:href="#DejaVuSans-61"/>
       <use x="169.384766" xlink:href="#DejaVuSans-6c"/>
       <use x="197.167969" xlink:href="#DejaVuSans-5f"/>
       <use x="247.167969" xlink:href="#DejaVuSans-36"/>
      </g>
     </g>
    </g>
    <g id="ytick_7">
     <g id="line2d_25">
      <path clip-path="url(#pc13d6a09ad)" d="M 65.31875 160.606499 
L 958.11875 160.606499 
" style="fill:none;stroke:#b0b0b0;stroke-linecap:square;stroke-width:0.8;"/>
     </g>
     <g id="line2d_26">
      <g>
       <use style="stroke:#000000;stroke-width:0.8;" x="65.31875" xlink:href="#m87fcfc65bb" y="160.606499"/>
      </g>
     </g>
     <g id="text_14">
      <!-- trial_7 -->
      <g transform="translate(27.240625 164.405718)scale(0.1 -0.1)">
       <defs>
        <path d="M 525 4666 
L 3525 4666 
L 3525 4397 
L 1831 0 
L 1172 0 
L 2766 4134 
L 525 4134 
L 525 4666 
z
" id="DejaVuSans-37" transform="scale(0.015625)"/>
       </defs>
       <use xlink:href="#DejaVuSans-74"/>
       <use x="39.208984" xlink:href="#DejaVuSans-72"/>
       <use x="80.322266" xlink:href="#DejaVuSans-69"/>
       <use x="108.105469" xlink:href="#DejaVuSans-61"/>
       <use x="169.384766" xlink:href="#DejaVuSans-6c"/>
       <use x="197.167969" xlink:href="#DejaVuSans-5f"/>
       <use x="247.167969" xlink:href="#DejaVuSans-37"/>
      </g>
     </g>
    </g>
    <g id="ytick_8">
     <g id="line2d_27">
      <path clip-path="url(#pc13d6a09ad)" d="M 65.31875 133.723132 
L 958.11875 133.723132 
" style="fill:none;stroke:#b0b0b0;stroke-linecap:square;stroke-width:0.8;"/>
     </g>
     <g id="line2d_28">
      <g>
       <use style="stroke:#000000;stroke-width:0.8;" x="65.31875" xlink:href="#m87fcfc65bb" y="133.723132"/>
      </g>
     </g>
     <g id="text_15">
      <!-- trial_8 -->
      <g transform="translate(27.240625 137.52235)scale(0.1 -0.1)">
       <defs>
        <path d="M 2034 2216 
Q 1584 2216 1326 1975 
Q 1069 1734 1069 1313 
Q 1069 891 1326 650 
Q 1584 409 2034 409 
Q 2484 409 2743 651 
Q 3003 894 3003 1313 
Q 3003 1734 2745 1975 
Q 2488 2216 2034 2216 
z
M 1403 2484 
Q 997 2584 770 2862 
Q 544 3141 544 3541 
Q 544 4100 942 4425 
Q 1341 4750 2034 4750 
Q 2731 4750 3128 4425 
Q 3525 4100 3525 3541 
Q 3525 3141 3298 2862 
Q 3072 2584 2669 2484 
Q 3125 2378 3379 2068 
Q 3634 1759 3634 1313 
Q 3634 634 3220 271 
Q 2806 -91 2034 -91 
Q 1263 -91 848 271 
Q 434 634 434 1313 
Q 434 1759 690 2068 
Q 947 2378 1403 2484 
z
M 1172 3481 
Q 1172 3119 1398 2916 
Q 1625 2713 2034 2713 
Q 2441 2713 2670 2916 
Q 2900 3119 2900 3481 
Q 2900 3844 2670 4047 
Q 2441 4250 2034 4250 
Q 1625 4250 1398 4047 
Q 1172 3844 1172 3481 
z
" id="DejaVuSans-38" transform="scale(0.015625)"/>
       </defs>
       <use xlink:href="#DejaVuSans-74"/>
       <use x="39.208984" xlink:href="#DejaVuSans-72"/>
       <use x="80.322266" xlink:href="#DejaVuSans-69"/>
       <use x="108.105469" xlink:href="#DejaVuSans-61"/>
       <use x="169.384766" xlink:href="#DejaVuSans-6c"/>
       <use x="197.167969" xlink:href="#DejaVuSans-5f"/>
       <use x="247.167969" xlink:href="#DejaVuSans-38"/>
      </g>
     </g>
    </g>
    <g id="ytick_9">
     <g id="line2d_29">
      <path clip-path="url(#pc13d6a09ad)" d="M 65.31875 107.241948 
L 958.11875 107.241948 
" style="fill:none;stroke:#b0b0b0;stroke-linecap:square;stroke-width:0.8;"/>
     </g>
     <g id="line2d_30">
      <g>
       <use style="stroke:#000000;stroke-width:0.8;" x="65.31875" xlink:href="#m87fcfc65bb" y="107.241948"/>
      </g>
     </g>
     <g id="text_16">
      <!-- trial_9 -->
      <g transform="translate(27.240625 111.041167)scale(0.1 -0.1)">
       <defs>
        <path d="M 703 97 
L 703 672 
Q 941 559 1184 500 
Q 1428 441 1663 441 
Q 2288 441 2617 861 
Q 2947 1281 2994 2138 
Q 2813 1869 2534 1725 
Q 2256 1581 1919 1581 
Q 1219 1581 811 2004 
Q 403 2428 403 3163 
Q 403 3881 828 4315 
Q 1253 4750 1959 4750 
Q 2769 4750 3195 4129 
Q 3622 3509 3622 2328 
Q 3622 1225 3098 567 
Q 2575 -91 1691 -91 
Q 1453 -91 1209 -44 
Q 966 3 703 97 
z
M 1959 2075 
Q 2384 2075 2632 2365 
Q 2881 2656 2881 3163 
Q 2881 3666 2632 3958 
Q 2384 4250 1959 4250 
Q 1534 4250 1286 3958 
Q 1038 3666 1038 3163 
Q 1038 2656 1286 2365 
Q 1534 2075 1959 2075 
z
" id="DejaVuSans-39" transform="scale(0.015625)"/>
       </defs>
       <use xlink:href="#DejaVuSans-74"/>
       <use x="39.208984" xlink:href="#DejaVuSans-72"/>
       <use x="80.322266" xlink:href="#DejaVuSans-69"/>
       <use x="108.105469" xlink:href="#DejaVuSans-61"/>
       <use x="169.384766" xlink:href="#DejaVuSans-6c"/>
       <use x="197.167969" xlink:href="#DejaVuSans-5f"/>
       <use x="247.167969" xlink:href="#DejaVuSans-39"/>
      </g>
     </g>
    </g>
    <g id="ytick_10">
     <g id="line2d_31">
      <path clip-path="url(#pc13d6a09ad)" d="M 65.31875 82.009878 
L 958.11875 82.009878 
" style="fill:none;stroke:#b0b0b0;stroke-linecap:square;stroke-width:0.8;"/>
     </g>
     <g id="line2d_32">
      <g>
       <use style="stroke:#000000;stroke-width:0.8;" x="65.31875" xlink:href="#m87fcfc65bb" y="82.009878"/>
      </g>
     </g>
     <g id="text_17">
      <!-- trial_10 -->
      <g transform="translate(20.878125 85.809096)scale(0.1 -0.1)">
       <use xlink:href="#DejaVuSans-74"/>
       <use x="39.208984" xlink:href="#DejaVuSans-72"/>
       <use x="80.322266" xlink:href="#DejaVuSans-69"/>
       <use x="108.105469" xlink:href="#DejaVuSans-61"/>
       <use x="169.384766" xlink:href="#DejaVuSans-6c"/>
       <use x="197.167969" xlink:href="#DejaVuSans-5f"/>
       <use x="247.167969" xlink:href="#DejaVuSans-31"/>
       <use x="310.791016" xlink:href="#DejaVuSans-30"/>
      </g>
     </g>
    </g>
    <g id="ytick_11">
     <g id="line2d_33">
      <path clip-path="url(#pc13d6a09ad)" d="M 65.31875 55.732195 
L 958.11875 55.732195 
" style="fill:none;stroke:#b0b0b0;stroke-linecap:square;stroke-width:0.8;"/>
     </g>
     <g id="line2d_34">
      <g>
       <use style="stroke:#000000;stroke-width:0.8;" x="65.31875" xlink:href="#m87fcfc65bb" y="55.732195"/>
      </g>
     </g>
     <g id="text_18">
      <!-- trial_11 -->
      <g transform="translate(20.878125 59.531413)scale(0.1 -0.1)">
       <use xlink:href="#DejaVuSans-74"/>
       <use x="39.208984" xlink:href="#DejaVuSans-72"/>
       <use x="80.322266" xlink:href="#DejaVuSans-69"/>
       <use x="108.105469" xlink:href="#DejaVuSans-61"/>
       <use x="169.384766" xlink:href="#DejaVuSans-6c"/>
       <use x="197.167969" xlink:href="#DejaVuSans-5f"/>
       <use x="247.167969" xlink:href="#DejaVuSans-31"/>
       <use x="310.791016" xlink:href="#DejaVuSans-31"/>
      </g>
     </g>
    </g>
    <g id="ytick_12">
     <g id="line2d_35">
      <path clip-path="url(#pc13d6a09ad)" d="M 65.31875 29.083927 
L 958.11875 29.083927 
" style="fill:none;stroke:#b0b0b0;stroke-linecap:square;stroke-width:0.8;"/>
     </g>
     <g id="line2d_36">
      <g>
       <use style="stroke:#000000;stroke-width:0.8;" x="65.31875" xlink:href="#m87fcfc65bb" y="29.083927"/>
      </g>
     </g>
     <g id="text_19">
      <!-- trial_12 -->
      <g transform="translate(20.878125 32.883146)scale(0.1 -0.1)">
       <use xlink:href="#DejaVuSans-74"/>
       <use x="39.208984" xlink:href="#DejaVuSans-72"/>
       <use x="80.322266" xlink:href="#DejaVuSans-69"/>
       <use x="108.105469" xlink:href="#DejaVuSans-61"/>
       <use x="169.384766" xlink:href="#DejaVuSans-6c"/>
       <use x="197.167969" xlink:href="#DejaVuSans-5f"/>
       <use x="247.167969" xlink:href="#DejaVuSans-31"/>
       <use x="310.791016" xlink:href="#DejaVuSans-32"/>
      </g>
     </g>
    </g>
    <g id="text_20">
     <!-- Component [p.d.u.] -->
     <g transform="translate(14.798438 219.083906)rotate(-90)scale(0.1 -0.1)">
      <defs>
       <path d="M 4122 4306 
L 4122 3641 
Q 3803 3938 3442 4084 
Q 3081 4231 2675 4231 
Q 1875 4231 1450 3742 
Q 1025 3253 1025 2328 
Q 1025 1406 1450 917 
Q 1875 428 2675 428 
Q 3081 428 3442 575 
Q 3803 722 4122 1019 
L 4122 359 
Q 3791 134 3420 21 
Q 3050 -91 2638 -91 
Q 1578 -91 968 557 
Q 359 1206 359 2328 
Q 359 3453 968 4101 
Q 1578 4750 2638 4750 
Q 3056 4750 3426 4639 
Q 3797 4528 4122 4306 
z
" id="DejaVuSans-43" transform="scale(0.015625)"/>
       <path d="M 1959 3097 
Q 1497 3097 1228 2736 
Q 959 2375 959 1747 
Q 959 1119 1226 758 
Q 1494 397 1959 397 
Q 2419 397 2687 759 
Q 2956 1122 2956 1747 
Q 2956 2369 2687 2733 
Q 2419 3097 1959 3097 
z
M 1959 3584 
Q 2709 3584 3137 3096 
Q 3566 2609 3566 1747 
Q 3566 888 3137 398 
Q 2709 -91 1959 -91 
Q 1206 -91 779 398 
Q 353 888 353 1747 
Q 353 2609 779 3096 
Q 1206 3584 1959 3584 
z
" id="DejaVuSans-6f" transform="scale(0.015625)"/>
       <path d="M 1159 525 
L 1159 -1331 
L 581 -1331 
L 581 3500 
L 1159 3500 
L 1159 2969 
Q 1341 3281 1617 3432 
Q 1894 3584 2278 3584 
Q 2916 3584 3314 3078 
Q 3713 2572 3713 1747 
Q 3713 922 3314 415 
Q 2916 -91 2278 -91 
Q 1894 -91 1617 61 
Q 1341 213 1159 525 
z
M 3116 1747 
Q 3116 2381 2855 2742 
Q 2594 3103 2138 3103 
Q 1681 3103 1420 2742 
Q 1159 2381 1159 1747 
Q 1159 1113 1420 752 
Q 1681 391 2138 391 
Q 2594 391 2855 752 
Q 3116 1113 3116 1747 
z
" id="DejaVuSans-70" transform="scale(0.015625)"/>
       <path d="M 3513 2113 
L 3513 0 
L 2938 0 
L 2938 2094 
Q 2938 2591 2744 2837 
Q 2550 3084 2163 3084 
Q 1697 3084 1428 2787 
Q 1159 2491 1159 1978 
L 1159 0 
L 581 0 
L 581 3500 
L 1159 3500 
L 1159 2956 
Q 1366 3272 1645 3428 
Q 1925 3584 2291 3584 
Q 2894 3584 3203 3211 
Q 3513 2838 3513 2113 
z
" id="DejaVuSans-6e" transform="scale(0.015625)"/>
       <path d="M 684 794 
L 1344 794 
L 1344 0 
L 684 0 
L 684 794 
z
" id="DejaVuSans-2e" transform="scale(0.015625)"/>
       <path d="M 2906 2969 
L 2906 4863 
L 3481 4863 
L 3481 0 
L 2906 0 
L 2906 525 
Q 2725 213 2448 61 
Q 2172 -91 1784 -91 
Q 1150 -91 751 415 
Q 353 922 353 1747 
Q 353 2572 751 3078 
Q 1150 3584 1784 3584 
Q 2172 3584 2448 3432 
Q 2725 3281 2906 2969 
z
M 947 1747 
Q 947 1113 1208 752 
Q 1469 391 1925 391 
Q 2381 391 2643 752 
Q 2906 1113 2906 1747 
Q 2906 2381 2643 2742 
Q 2381 3103 1925 3103 
Q 1469 3103 1208 2742 
Q 947 2381 947 1747 
z
" id="DejaVuSans-64" transform="scale(0.015625)"/>
       <path d="M 544 1381 
L 544 3500 
L 1119 3500 
L 1119 1403 
Q 1119 906 1312 657 
Q 1506 409 1894 409 
Q 2359 409 2629 706 
Q 2900 1003 2900 1516 
L 2900 3500 
L 3475 3500 
L 3475 0 
L 2900 0 
L 2900 538 
Q 2691 219 2414 64 
Q 2138 -91 1772 -91 
Q 1169 -91 856 284 
Q 544 659 544 1381 
z
M 1991 3584 
L 1991 3584 
z
" id="DejaVuSans-75" transform="scale(0.015625)"/>
      </defs>
      <use xlink:href="#DejaVuSans-43"/>
      <use x="69.824219" xlink:href="#DejaVuSans-6f"/>
      <use x="131.005859" xlink:href="#DejaVuSans-6d"/>
      <use x="228.417969" xlink:href="#DejaVuSans-70"/>
      <use x="291.894531" xlink:href="#DejaVuSans-6f"/>
      <use x="353.076172" xlink:href="#DejaVuSans-6e"/>
      <use x="416.455078" xlink:href="#DejaVuSans-65"/>
      <use x="477.978516" xlink:href="#DejaVuSans-6e"/>
      <use x="541.357422" xlink:href="#DejaVuSans-74"/>
      <use x="580.566406" xlink:href="#DejaVuSans-20"/>
      <use x="612.353516" xlink:href="#DejaVuSans-5b"/>
      <use x="651.367188" xlink:href="#DejaVuSans-70"/>
      <use x="714.84375" xlink:href="#DejaVuSans-2e"/>
      <use x="746.630859" xlink:href="#DejaVuSans-64"/>
      <use x="810.107422" xlink:href="#DejaVuSans-2e"/>
      <use x="841.894531" xlink:href="#DejaVuSans-75"/>
      <use x="905.273438" xlink:href="#DejaVuSans-2e"/>
      <use x="937.060547" xlink:href="#DejaVuSans-5d"/>
     </g>
    </g>
   </g>
   <g id="line2d_37">
    <path clip-path="url(#pc13d6a09ad)" d="M 105.900568 314.920416 
L 109.31671 315.011475 
L 113.134693 315.342791 
L 115.747044 315.042802 
L 117.555602 314.992018 
L 122.378352 315.064501 
L 124.789727 314.745487 
L 131.822878 313.644377 
L 133.229595 313.763624 
L 134.837178 314.16528 
L 138.454186 315.187187 
L 139.860903 315.291586 
L 142.875095 315.390824 
L 144.482678 315.817595 
L 150.712037 317.606226 
L 153.927204 318.174076 
L 156.539554 318.418852 
L 159.352879 318.472619 
L 167.591771 318.432132 
L 175.227738 318.530996 
L 187.686564 318.285922 
L 191.102706 318.217827 
L 203.561531 318.22386 
L 208.585257 318.111729 
L 213.207032 317.584488 
L 215.01559 317.752649 
L 219.235524 318.225735 
L 222.852641 318.277978 
L 225.063041 318.102146 
L 230.287741 317.513213 
L 233.100958 317.631777 
L 236.316233 317.714317 
L 238.526633 317.529545 
L 240.536167 317.402018 
L 245.157942 317.340503 
L 246.966501 317.37769 
L 248.775059 317.665707 
L 252.392067 318.350086 
L 254.401601 318.409492 
L 259.626301 318.204844 
L 263.846235 317.906835 
L 268.066169 317.218195 
L 272.085127 316.678562 
L 274.496502 316.626865 
L 281.931603 316.773614 
L 287.558144 317.16589 
L 291.175261 317.307134 
L 297.002778 317.840994 
L 299.414154 317.689679 
L 307.050229 317.03607 
L 310.667346 317.038784 
L 334.781315 317.880176 
L 338.398323 317.976486 
L 342.819232 317.829194 
L 349.651515 317.297025 
L 354.273399 316.844379 
L 356.684774 316.887008 
L 361.909475 317.281512 
L 365.727458 317.557315 
L 369.746525 317.629509 
L 372.760717 317.393505 
L 375.975884 317.19669 
L 378.990184 317.247287 
L 384.214885 317.607434 
L 387.028101 317.649912 
L 390.645218 317.453224 
L 395.668944 317.131032 
L 400.491803 316.797495 
L 405.314553 316.302868 
L 410.338278 316.338396 
L 414.15637 316.138925 
L 417.773378 315.866748 
L 424.002846 315.685832 
L 429.026571 314.88508 
L 433.045638 314.737513 
L 434.653222 314.906081 
L 437.064597 315.428253 
L 439.07413 315.815122 
L 440.480739 315.851953 
L 442.691247 315.620433 
L 447.313023 315.17065 
L 449.322556 315.139164 
L 451.934906 315.335518 
L 456.556681 315.745677 
L 457.963399 315.637271 
L 460.575749 315.121155 
L 462.384307 314.909313 
L 467.609008 314.500021 
L 472.632733 313.894833 
L 474.039341 313.893275 
L 475.446058 314.111911 
L 478.259275 314.864712 
L 479.866858 315.183881 
L 481.273575 315.221414 
L 483.483975 315.002681 
L 485.493509 314.614966 
L 488.708676 313.923041 
L 490.316259 313.829051 
L 491.722976 313.950675 
L 493.33056 314.321252 
L 496.545726 315.186082 
L 497.952443 315.252555 
L 499.560027 315.093238 
L 503.77996 314.562461 
L 505.186569 314.704916 
L 507.597944 315.232971 
L 510.813219 315.908344 
L 512.219828 315.979881 
L 513.626545 315.841754 
L 515.434994 315.426141 
L 518.24832 314.511027 
L 521.463595 313.516371 
L 523.47302 313.109304 
L 526.286346 312.816729 
L 528.094904 312.805709 
L 529.300646 313.014431 
L 530.707254 313.502869 
L 532.314838 314.329973 
L 535.128163 315.820069 
L 536.735746 316.381595 
L 538.142355 316.669377 
L 539.750047 316.736118 
L 547.386122 316.731807 
L 555.022198 317.052243 
L 556.830756 316.800857 
L 559.644082 316.137441 
L 564.064991 315.132737 
L 565.471599 315.067849 
L 566.878207 315.265965 
L 571.299116 316.152849 
L 572.906808 316.117631 
L 578.131508 315.797554 
L 579.739092 316.048551 
L 583.557075 316.83917 
L 585.164767 316.772634 
L 588.379934 316.591283 
L 594.207451 316.613683 
L 596.216985 316.520639 
L 597.824568 316.23637 
L 599.231176 315.786957 
L 600.637894 315.108157 
L 604.857827 312.872236 
L 606.264435 312.455317 
L 608.072994 312.165422 
L 609.881552 312.080375 
L 611.28827 312.212299 
L 612.895853 312.601452 
L 615.508203 313.529971 
L 616.914811 313.926636 
L 618.120553 314.053556 
L 619.326295 313.974566 
L 621.134854 313.599214 
L 623.94807 313.021421 
L 626.158579 312.739907 
L 627.364212 312.818982 
L 628.368979 313.127808 
L 629.574721 313.768726 
L 631.182304 314.936851 
L 633.392813 316.583966 
L 634.598446 317.208491 
L 635.804188 317.565584 
L 637.411772 317.752188 
L 641.83268 317.912992 
L 645.047847 317.712725 
L 649.669731 317.590573 
L 655.497357 317.568612 
L 658.913499 317.824134 
L 663.133432 318.06337 
L 672.779042 318.364023 
L 678.003742 318.415276 
L 683.429418 318.49712 
L 696.290194 317.984958 
L 700.711102 317.716422 
L 706.136778 317.573002 
L 710.557687 317.434238 
L 724.423338 317.112783 
L 727.638505 316.951149 
L 730.45183 317.084993 
L 733.867972 317.276976 
L 736.279347 317.102012 
L 740.298415 316.800747 
L 744.920298 316.707039 
L 748.738282 316.904279 
L 752.958215 317.046806 
L 760.996241 316.785134 
L 763.809566 316.419383 
L 767.225708 315.792513 
L 772.450518 314.640905 
L 775.062868 314.269526 
L 779.081826 313.94898 
L 780.890385 314.127097 
L 782.899919 314.555869 
L 784.909452 315.226158 
L 787.923644 316.255018 
L 789.732202 316.617961 
L 791.138919 316.704547 
L 792.344553 316.556667 
L 799.578787 314.947055 
L 802.392112 314.05838 
L 804.803487 313.316284 
L 806.009229 313.182541 
L 807.013996 313.302312 
L 808.018763 313.634301 
L 809.425371 314.372287 
L 813.444438 316.711667 
L 814.851046 317.205908 
L 816.056788 317.405898 
L 821.482464 317.754914 
L 825.702398 317.893493 
L 828.113773 317.881986 
L 836.151798 317.575042 
L 840.572707 317.646865 
L 845.395566 317.866154 
L 851.625033 318.032019 
L 854.036409 317.866326 
L 858.256451 317.464083 
L 861.069667 317.706451 
L 863.280176 317.771665 
L 868.303902 317.544908 
L 873.327736 317.399248 
L 879.155253 317.262403 
L 880.963811 316.982682 
L 883.375295 316.336335 
L 885.183854 315.964034 
L 887.193278 315.843621 
L 892.217113 315.835582 
L 895.432279 315.771234 
L 896.838996 315.480711 
L 898.44658 314.8757 
L 901.862722 313.483771 
L 903.068464 313.210518 
L 904.274097 313.176753 
L 905.680814 313.397103 
L 909.096956 314.06714 
L 911.910281 314.211308 
L 914.924582 314.477455 
L 916.73314 314.525306 
L 917.536932 314.511338 
L 917.536932 314.511338 
" style="fill:none;stroke:#1f77b4;stroke-linecap:square;stroke-width:1.5;"/>
   </g>
   <g id="line2d_38">
    <path clip-path="url(#pc13d6a09ad)" d="M 105.900568 290.252407 
L 107.709127 290.356167 
L 110.120502 290.795104 
L 112.933827 291.507296 
L 114.541411 291.842643 
L 117.354627 292.092864 
L 119.766002 292.067383 
L 125.191678 292.11921 
L 129.009661 292.538475 
L 132.425803 292.704159 
L 137.650395 292.680716 
L 141.669353 292.728246 
L 160.357537 292.979069 
L 190.499889 292.903808 
L 197.533039 292.832922 
L 208.384281 292.726985 
L 212.80519 292.65195 
L 226.268783 293.131613 
L 236.718075 293.178142 
L 239.933242 292.8344 
L 244.756101 292.33593 
L 247.770292 292.282177 
L 252.392067 292.19556 
L 254.803442 291.877885 
L 258.621535 291.313708 
L 260.430093 291.267171 
L 262.841468 291.433548 
L 266.458585 291.741548 
L 272.888919 292.055249 
L 275.90311 292.138162 
L 279.721203 291.933695 
L 282.534419 291.861725 
L 285.54872 292.068925 
L 288.562911 292.198893 
L 291.175261 292.078103 
L 295.797145 291.856469 
L 302.026504 291.996086 
L 307.653154 292.092002 
L 310.868321 291.997083 
L 313.279696 292.012241 
L 318.102446 292.114031 
L 330.762247 291.977654 
L 336.187923 292.248015 
L 341.211648 292.441058 
L 360.301891 292.48063 
L 368.138833 292.364622 
L 371.354109 292.441627 
L 374.971117 292.269079 
L 377.583467 292.237481 
L 387.028101 292.473896 
L 395.066127 292.167745 
L 427.619963 292.0316 
L 430.83513 291.822436 
L 434.050405 291.851794 
L 445.906414 292.185547 
L 450.327323 292.257885 
L 458.566215 292.489547 
L 474.039341 292.479434 
L 476.651691 292.494578 
L 486.297301 293.043702 
L 494.737168 293.109245 
L 497.952443 292.903802 
L 501.16761 292.503409 
L 508.200869 291.352278 
L 514.028386 291.165346 
L 516.439761 291.164362 
L 519.655037 291.516135 
L 522.066412 291.667604 
L 524.075946 291.577577 
L 528.697721 291.205654 
L 531.912996 291.454962 
L 536.13293 291.815355 
L 538.34333 291.689764 
L 540.95568 291.314952 
L 542.965214 291.056191 
L 544.572797 291.105966 
L 547.587098 291.528553 
L 549.797498 291.704934 
L 552.208873 291.622254 
L 556.026965 291.524201 
L 569.892508 291.751932 
L 576.724791 291.875324 
L 582.552417 292.182065 
L 586.169425 292.255637 
L 590.590334 291.982537 
L 596.618826 291.473073 
L 599.432152 291.49381 
L 605.058802 291.748964 
L 607.671153 291.400704 
L 612.092061 290.753528 
L 620.130087 290.726466 
L 651.679265 291.185108 
L 658.310573 291.504148 
L 662.530616 291.519262 
L 667.956183 291.483715 
L 674.989442 291.827091 
L 681.821834 291.94474 
L 686.845559 292.036067 
L 689.256935 291.842063 
L 695.687377 291.180905 
L 702.318794 290.976083 
L 706.337753 290.833242 
L 709.151078 290.828549 
L 715.17957 291.046556 
L 720.806221 290.812832 
L 723.016621 290.934909 
L 728.442297 291.409045 
L 737.485089 291.806734 
L 744.116398 292.021692 
L 759.589633 291.968018 
L 763.407725 291.983973 
L 766.622892 292.203855 
L 771.646617 292.531894 
L 776.469476 292.51517 
L 779.282801 292.355897 
L 781.694177 291.974068 
L 784.306527 291.646394 
L 786.718011 291.459148 
L 801.990162 292.039215 
L 805.406412 291.554792 
L 809.827321 290.699726 
L 812.841513 290.715268 
L 816.056788 290.743273 
L 817.865347 290.476407 
L 823.692864 289.395603 
L 825.300447 289.403282 
L 830.927098 289.682322 
L 832.936632 289.548049 
L 835.147032 289.441416 
L 838.161332 289.351732 
L 841.577474 289.176709 
L 846.400333 289.225492 
L 850.01745 289.534817 
L 851.625033 289.41755 
L 853.634567 289.024775 
L 856.045942 288.589407 
L 857.452659 288.549253 
L 859.663059 288.781593 
L 861.471618 288.8826 
L 865.691551 288.661987 
L 868.303902 288.419824 
L 870.715385 288.166851 
L 872.322969 288.28043 
L 874.734344 288.489942 
L 879.356228 288.330797 
L 881.164786 288.123389 
L 883.777137 287.797498 
L 886.992412 287.593812 
L 889.001837 287.720605 
L 896.236071 288.451964 
L 901.661747 288.79638 
L 903.872255 289.191959 
L 905.077997 289.660387 
L 906.886556 290.384489 
L 907.891214 290.550957 
L 909.297931 290.533834 
L 911.709306 290.499478 
L 916.532165 290.455188 
L 917.536932 290.448838 
L 917.536932 290.448838 
" style="fill:none;stroke:#ff7f0e;stroke-linecap:square;stroke-width:1.5;"/>
   </g>
   <g id="line2d_39">
    <path clip-path="url(#pc13d6a09ad)" d="M 105.900568 264.156366 
L 122.780303 264.039999 
L 125.794494 264.015057 
L 140.865561 264.225781 
L 146.291237 264.223575 
L 153.324387 264.360576 
L 158.950929 264.262314 
L 182.060022 264.527848 
L 185.677139 264.407978 
L 192.509314 263.98605 
L 205.972906 264.332399 
L 214.211798 264.577837 
L 220.441266 264.493117 
L 229.081999 264.711399 
L 233.301933 264.504878 
L 236.5171 264.400085 
L 240.536167 264.556377 
L 244.555125 264.569482 
L 251.990226 264.595434 
L 259.224351 264.793677 
L 269.874727 264.709909 
L 280.725969 264.616916 
L 284.945903 264.632917 
L 309.260738 265.020894 
L 312.877746 265.296486 
L 316.093022 265.448486 
L 318.906238 265.325902 
L 329.556614 264.542161 
L 333.173731 264.573452 
L 350.857257 264.855901 
L 368.540783 264.906235 
L 375.975884 265.213875 
L 379.994951 265.41935 
L 383.009143 265.254553 
L 387.631027 265.077722 
L 392.654752 264.944502 
L 403.907945 264.617395 
L 408.730695 264.789634 
L 418.577279 265.085933 
L 424.605771 265.27956 
L 436.863622 265.401041 
L 441.28453 264.90331 
L 444.499697 264.695953 
L 447.915839 264.704861 
L 460.374774 264.996227 
L 463.790916 265.181244 
L 466.805216 265.166134 
L 473.23555 264.881609 
L 477.857433 264.654883 
L 480.067833 264.891393 
L 483.68495 265.273139 
L 485.694484 265.191857 
L 492.727743 264.657552 
L 496.947677 264.734797 
L 507.196102 264.966997 
L 511.416036 265.034348 
L 515.63597 265.190948 
L 519.253087 265.029775 
L 525.683529 264.750132 
L 532.515813 264.685608 
L 541.759472 264.728814 
L 544.572797 264.809025 
L 548.993706 265.051404 
L 551.606056 264.879598 
L 554.218406 264.798036 
L 557.031732 264.954561 
L 560.246898 265.093206 
L 563.261199 264.990668 
L 574.313416 264.364075 
L 580.341908 264.255626 
L 586.169425 263.764871 
L 589.585567 264.081648 
L 592.398893 264.242716 
L 597.422727 264.421872 
L 600.235943 264.459293 
L 602.647427 264.243083 
L 604.857827 263.840198 
L 607.269202 263.380852 
L 610.082528 263.129233 
L 615.307228 262.902801 
L 620.933879 262.581829 
L 623.747204 262.694526 
L 628.168113 263.001552 
L 631.584255 262.805626 
L 634.799421 262.714563 
L 639.22033 262.847609 
L 642.033656 262.907189 
L 647.057381 263.004355 
L 652.884898 263.624912 
L 656.100173 263.480322 
L 659.717291 263.029211 
L 661.525849 262.531878 
L 664.138199 261.504858 
L 666.147624 260.818685 
L 667.755316 260.512071 
L 669.764741 260.377277 
L 672.176225 260.413863 
L 673.984784 260.68082 
L 683.429418 262.723527 
L 687.046535 263.92098 
L 688.252168 264.064307 
L 689.45791 263.981408 
L 691.668418 263.550505 
L 694.481635 263.05928 
L 700.309261 262.368849 
L 702.117819 262.193716 
L 703.524428 262.304265 
L 705.332986 262.673453 
L 710.959637 264.073162 
L 715.782387 264.693916 
L 717.992896 264.769771 
L 728.442297 264.636784 
L 739.293648 264.327815 
L 745.32214 264.467368 
L 746.728748 264.143531 
L 748.537307 263.465332 
L 751.350632 262.420145 
L 753.159191 261.975716 
L 755.369699 261.715928 
L 757.379233 261.6833 
L 765.618125 262.109228 
L 767.024842 262.50977 
L 769.235242 263.430438 
L 771.043801 264.078249 
L 772.450518 264.341504 
L 774.259076 264.461342 
L 780.086593 264.583578 
L 783.70371 264.889455 
L 788.526569 264.930606 
L 793.349319 265.047658 
L 803.195904 265.391981 
L 812.238696 264.955743 
L 816.056788 264.359976 
L 818.669139 264.014457 
L 821.884305 263.913503 
L 825.099581 264.054259 
L 829.52049 264.286991 
L 832.735657 264.240094 
L 835.348007 263.960682 
L 838.965124 263.34928 
L 843.185057 262.440341 
L 848.610733 260.928376 
L 850.218425 260.879616 
L 852.026984 261.076812 
L 856.447892 261.68323 
L 861.270643 262.274467 
L 867.299244 263.246321 
L 871.117227 263.508316 
L 877.94962 263.661955 
L 882.973345 264.077026 
L 886.389487 264.360048 
L 890.609529 264.72853 
L 895.432279 264.676962 
L 898.848421 264.798787 
L 902.264672 264.858847 
L 910.704539 264.80223 
L 917.536932 265.213675 
L 917.536932 265.213675 
" style="fill:none;stroke:#2ca02c;stroke-linecap:square;stroke-width:1.5;"/>
   </g>
   <g id="line2d_40">
    <path clip-path="url(#pc13d6a09ad)" d="M 105.900568 239.424409 
L 111.125269 239.498945 
L 114.340435 239.50641 
L 126.799261 239.331367 
L 133.631436 239.333494 
L 155.936737 239.811054 
L 160.960463 239.498523 
L 163.974654 239.500458 
L 167.189821 239.757261 
L 169.802171 239.981084 
L 173.419288 239.913175 
L 179.04583 239.818802 
L 184.471397 240.071851 
L 188.289489 239.86282 
L 193.313106 239.530933 
L 197.533039 239.49906 
L 213.207032 240.127995 
L 216.221332 240.303124 
L 219.83834 240.287861 
L 224.862066 240.137348 
L 228.479183 240.154469 
L 244.555125 239.818948 
L 254.803442 239.7413 
L 260.028143 239.82324 
L 263.64526 240.075391 
L 268.066169 240.403978 
L 271.08036 240.329913 
L 281.529761 240.04542 
L 289.969628 240.259425 
L 293.988587 240.172297 
L 300.619895 240.180651 
L 303.232246 240.078846 
L 308.657812 239.713965 
L 312.073954 239.70208 
L 315.490096 239.94599 
L 317.700605 240.078705 
L 326.944264 240.054794 
L 332.570806 239.917959 
L 335.585106 239.733021 
L 337.996481 239.616903 
L 349.45054 239.890998 
L 353.871449 239.961595 
L 366.732225 239.764008 
L 370.952159 239.833479 
L 386.425285 240.101185 
L 390.042402 240.361579 
L 393.056593 240.518812 
L 398.281294 240.465726 
L 413.151603 240.105887 
L 421.390496 240.193471 
L 428.222779 240.104451 
L 434.050405 240.225575 
L 438.471205 240.419698 
L 446.509231 240.001305 
L 451.131115 239.616819 
L 454.346281 239.599711 
L 458.164374 239.887935 
L 460.575749 240.003319 
L 475.245083 239.841926 
L 482.881159 239.40712 
L 485.895459 239.358202 
L 494.134351 239.482593 
L 497.349518 239.525724 
L 506.593286 239.847475 
L 518.24832 239.983622 
L 520.659695 240.090686 
L 531.912996 239.975278 
L 543.367055 239.612122 
L 564.667807 240.232795 
L 567.481132 240.402436 
L 570.897274 240.351025 
L 580.542884 239.982474 
L 584.160001 239.779474 
L 589.987518 239.756449 
L 599.633127 239.992863 
L 615.910045 240.006245 
L 623.345254 240.049192 
L 628.368979 240.049509 
L 638.215563 240.088437 
L 641.028889 240.088015 
L 650.272548 239.857936 
L 664.138199 240.058748 
L 672.377091 240.853915 
L 675.994208 240.785909 
L 681.821834 240.796572 
L 685.438951 240.731576 
L 691.065493 240.162583 
L 694.079794 239.962857 
L 698.299727 239.970973 
L 702.117819 240.224345 
L 705.734936 240.305928 
L 711.562453 240.254248 
L 735.073714 239.875608 
L 737.686064 240.12925 
L 740.298415 240.352989 
L 743.11174 240.335454 
L 746.326907 240.299278 
L 750.144999 240.386419 
L 756.575332 240.175317 
L 761.197216 239.960251 
L 769.034267 239.896209 
L 772.852359 239.849261 
L 777.876084 239.918777 
L 783.100894 239.767829 
L 786.115085 239.876118 
L 791.138919 240.12017 
L 793.75127 240.11775 
L 798.172178 239.99039 
L 800.382578 239.854809 
L 808.018763 238.940759 
L 813.042488 238.316019 
L 815.654838 238.324135 
L 818.066213 238.423139 
L 819.47293 238.726581 
L 822.286256 239.411198 
L 825.903373 239.777358 
L 828.314748 239.838858 
L 834.544215 239.696553 
L 844.993616 238.610309 
L 853.031642 238.476439 
L 855.443126 238.360163 
L 858.457317 238.544783 
L 863.682126 238.80888 
L 868.906827 238.790274 
L 870.313435 238.792534 
L 871.720152 238.549119 
L 874.734344 237.685682 
L 876.743878 237.232018 
L 878.552436 237.026613 
L 880.762945 237.033804 
L 889.202812 237.259774 
L 894.025671 237.47282 
L 900.456113 236.896158 
L 901.862722 237.113091 
L 903.872255 237.692988 
L 908.092189 238.937346 
L 910.905514 239.57419 
L 912.312231 239.6223 
L 914.522631 239.443133 
L 917.536932 239.007362 
L 917.536932 239.007362 
" style="fill:none;stroke:#d62728;stroke-linecap:square;stroke-width:1.5;"/>
   </g>
   <g id="line2d_41">
    <path clip-path="url(#pc13d6a09ad)" d="M 105.900568 212.38057 
L 112.933827 212.335789 
L 118.96221 211.977308 
L 126.799261 211.501858 
L 132.425803 211.614623 
L 138.454186 211.800785 
L 142.67412 211.547662 
L 145.889287 211.479594 
L 155.936737 211.545914 
L 158.950929 211.617177 
L 164.778446 211.373609 
L 169.199355 211.620499 
L 173.218313 211.847041 
L 182.863814 211.69227 
L 185.878005 211.514553 
L 190.097939 211.49754 
L 197.332173 211.646293 
L 204.566298 211.594744 
L 210.59479 211.919699 
L 213.809957 211.861724 
L 221.646899 211.268778 
L 224.058274 210.999072 
L 226.067808 211.038768 
L 228.077341 211.308146 
L 230.287741 211.593874 
L 233.703883 211.726291 
L 247.167476 211.821204 
L 263.042443 211.462898 
L 265.453818 211.417595 
L 269.874727 211.745223 
L 273.893686 211.952324 
L 282.534419 212.182481 
L 286.352511 212.397097 
L 288.362045 212.216696 
L 290.974286 211.980707 
L 293.184795 212.054214 
L 300.217945 212.459778 
L 303.835062 212.763494 
L 305.643621 212.832814 
L 307.050229 212.645869 
L 312.67688 211.575474 
L 314.284463 211.5301 
L 316.093022 211.719258 
L 321.518588 212.470417 
L 326.140472 212.507143 
L 340.206881 212.051819 
L 344.62779 212.050869 
L 347.039165 211.926508 
L 350.857257 211.748546 
L 358.091383 211.574002 
L 369.1436 211.788255 
L 372.358767 212.040164 
L 375.373067 212.176412 
L 377.382601 212.029116 
L 383.611959 211.323275 
L 386.62626 211.358765 
L 391.85096 211.414201 
L 397.678477 211.47364 
L 402.300252 211.450831 
L 408.93167 211.398823 
L 411.14207 211.600717 
L 413.955395 212.127564 
L 415.763954 212.370736 
L 418.376304 212.455623 
L 422.194287 212.289993 
L 426.414221 212.022231 
L 434.050405 211.72558 
L 436.05983 211.549131 
L 439.274997 211.406924 
L 443.093089 210.885189 
L 444.700672 210.990354 
L 446.509231 211.354128 
L 448.317789 211.696264 
L 449.925373 211.762403 
L 452.738698 211.85256 
L 456.355815 212.046345 
L 460.575749 211.90949 
L 468.211824 211.223367 
L 471.02515 210.70782 
L 473.6375 210.250425 
L 477.656458 209.940612 
L 479.063067 210.007045 
L 480.670759 210.331191 
L 483.082134 210.838463 
L 484.488742 210.89908 
L 485.895459 210.705104 
L 487.302067 210.269848 
L 489.512467 209.275078 
L 491.120051 208.665736 
L 492.325793 208.451697 
L 493.933376 208.415384 
L 496.947677 208.651543 
L 498.55526 208.97475 
L 499.961868 209.467121 
L 501.569452 210.304586 
L 503.177144 211.057965 
L 504.382777 211.353761 
L 506.191336 211.53052 
L 507.798919 211.503459 
L 511.014195 211.081837 
L 513.626545 210.55033 
L 518.047345 209.675612 
L 521.26262 209.318783 
L 523.272045 209.333766 
L 525.683529 209.335212 
L 529.903463 209.146597 
L 534.525346 209.42168 
L 541.960447 209.574069 
L 543.769005 209.755234 
L 545.979405 210.046211 
L 547.185147 209.913787 
L 548.792731 209.454946 
L 551.807031 208.580178 
L 554.017431 208.206191 
L 556.026965 207.802461 
L 557.433573 207.273299 
L 560.447874 205.975803 
L 561.45264 205.840005 
L 562.658273 205.914747 
L 564.466832 206.291623 
L 567.481132 207.012414 
L 572.303883 207.714253 
L 573.7106 207.519784 
L 577.327608 206.809384 
L 578.332375 206.939975 
L 579.337142 207.286436 
L 580.542884 207.973401 
L 583.557075 209.897738 
L 585.968559 210.836247 
L 587.977984 211.567538 
L 589.384701 211.799079 
L 594.810377 212.242362 
L 597.221752 211.880618 
L 598.829335 211.462857 
L 601.039735 210.593928 
L 602.647427 210.073046 
L 604.054035 209.838722 
L 605.661619 209.815111 
L 607.269202 210.030158 
L 608.675919 210.46225 
L 612.493903 211.990675 
L 614.101595 212.140842 
L 615.910045 212.095607 
L 620.933879 211.717922 
L 624.149045 211.808918 
L 630.579488 211.594789 
L 636.808955 211.210987 
L 646.856406 211.605326 
L 649.468756 211.548446 
L 653.286848 211.236395 
L 655.497357 211.141913 
L 657.10494 211.303706 
L 659.717291 211.589791 
L 665.946758 211.843092 
L 668.358133 211.71494 
L 671.171458 211.301392 
L 672.578066 210.864888 
L 674.788575 209.892718 
L 679.41035 207.789931 
L 681.018042 207.377669 
L 682.223676 207.259625 
L 683.630393 207.346046 
L 686.041768 207.757517 
L 692.271235 209.15084 
L 694.079794 210.034279 
L 696.089327 211.023684 
L 697.29496 211.353373 
L 698.902544 211.512826 
L 702.519661 211.554144 
L 707.945336 211.52438 
L 710.155845 211.65274 
L 711.562453 211.461207 
L 716.787154 210.483941 
L 718.595712 210.354849 
L 720.605246 210.264615 
L 721.610013 209.945564 
L 722.61478 209.368992 
L 726.231897 206.983416 
L 727.43753 206.467103 
L 728.643272 206.191972 
L 730.45183 206.063699 
L 732.863205 206.149695 
L 734.872739 206.150015 
L 738.288881 205.976832 
L 739.695489 206.23298 
L 742.307839 206.776035 
L 743.714556 206.821013 
L 744.920298 206.62522 
L 747.733515 206.008909 
L 748.939257 206.068739 
L 750.345865 206.407724 
L 751.350632 206.866625 
L 752.355399 207.569786 
L 756.374466 210.780115 
L 757.379233 211.178723 
L 758.383891 211.330018 
L 759.187683 211.253879 
L 760.192449 210.927567 
L 764.412492 209.13495 
L 765.41715 209.00436 
L 766.421917 209.126282 
L 767.828634 209.602781 
L 769.838167 210.262761 
L 771.445751 210.567057 
L 773.053334 210.656334 
L 775.665684 210.709871 
L 778.679985 211.173976 
L 782.899919 211.986477 
L 786.718011 212.076121 
L 789.531227 212.129021 
L 792.746503 212.234639 
L 796.162645 212.214928 
L 798.57402 212.252373 
L 807.415837 211.650917 
L 809.425371 211.238523 
L 813.444438 210.23704 
L 815.052022 210.158649 
L 816.659605 210.309376 
L 822.487231 211.394635 
L 823.893839 211.690063 
L 825.501422 211.761196 
L 828.716698 211.604827 
L 830.726123 211.30162 
L 832.936632 210.733951 
L 834.946165 209.951892 
L 843.587008 206.468052 
L 844.993616 206.165092 
L 846.199358 206.127155 
L 847.204125 206.323505 
L 848.208892 206.761219 
L 849.414525 207.584053 
L 851.826009 209.387023 
L 852.830775 209.807292 
L 853.835542 209.969045 
L 857.050709 210.047795 
L 862.476385 210.003355 
L 865.490685 209.470763 
L 866.696318 209.088224 
L 868.103035 208.385393 
L 870.11246 207.391366 
L 872.523944 206.568374 
L 873.930552 206.236024 
L 875.136294 206.197205 
L 876.341927 206.401813 
L 878.150486 206.993636 
L 880.360995 207.96218 
L 882.370528 209.044744 
L 883.978112 210.184928 
L 885.78667 211.459948 
L 886.791437 211.928081 
L 887.997179 212.223998 
L 890.207579 212.449088 
L 892.418088 212.47962 
L 895.432279 212.225558 
L 899.250371 212.001253 
L 912.915048 211.911749 
L 917.536932 211.691526 
L 917.536932 211.691526 
" style="fill:none;stroke:#9467bd;stroke-linecap:square;stroke-width:1.5;"/>
   </g>
   <g id="line2d_42">
    <path clip-path="url(#pc13d6a09ad)" d="M 105.900568 186.070757 
L 110.723318 185.972147 
L 113.134693 185.79094 
L 118.761344 185.235221 
L 121.172719 185.179859 
L 126.598286 185.158417 
L 129.009661 184.692254 
L 131.220061 184.36908 
L 133.430461 184.286467 
L 136.042811 184.45105 
L 141.468487 184.703005 
L 146.090262 184.953932 
L 148.903478 185.05648 
L 152.922546 184.898396 
L 155.333921 184.924351 
L 163.572813 185.338762 
L 167.189821 185.13982 
L 170.204013 184.99507 
L 187.284722 184.939092 
L 189.495122 184.91596 
L 192.308448 185.163896 
L 194.920689 185.271728 
L 201.752973 185.345375 
L 204.566298 185.462902 
L 206.776698 185.260984 
L 211.398582 184.759511 
L 214.211798 184.742255 
L 217.226099 184.941774 
L 219.235524 185.30433 
L 221.847874 185.762035 
L 224.058274 185.884208 
L 226.067808 185.757799 
L 229.48395 185.524019 
L 237.521866 185.30869 
L 240.536167 185.507306 
L 242.947542 185.540251 
L 246.162709 185.349677 
L 249.1769 185.175182 
L 253.798784 185.241087 
L 256.812976 185.317254 
L 259.425326 185.122731 
L 261.43486 185.042783 
L 265.654793 185.250491 
L 271.48231 185.400232 
L 278.314485 185.485398 
L 283.338211 185.61272 
L 290.37147 185.943545 
L 292.381003 186.024533 
L 295.395195 185.886386 
L 298.409496 185.771255 
L 302.026504 185.69518 
L 305.040804 185.395726 
L 308.255971 185.111711 
L 311.069296 185.165086 
L 315.691071 185.159395 
L 320.513822 185.054465 
L 323.729097 185.18834 
L 332.771781 184.953856 
L 337.594531 184.903303 
L 342.01544 184.963346 
L 345.833532 185.019815 
L 350.656282 184.990929 
L 356.483799 185.247292 
L 359.297125 185.030472 
L 361.909475 184.930882 
L 363.718033 185.058928 
L 368.339808 185.583806 
L 373.162667 185.508317 
L 377.382601 185.445772 
L 384.415751 185.49811 
L 389.841427 185.363669 
L 394.46331 185.531441 
L 398.482269 185.767973 
L 402.903178 185.686823 
L 419.983887 185.122781 
L 422.395262 185.025587 
L 425.610429 185.155328 
L 429.026571 185.294903 
L 438.67218 185.422389 
L 444.298831 185.564258 
L 455.953865 185.644271 
L 460.173798 185.922124 
L 463.58994 185.89643 
L 466.001315 185.737524 
L 470.623199 185.264483 
L 475.8479 184.887722 
L 478.259275 184.990373 
L 481.876392 185.18548 
L 486.297301 185.073479 
L 490.316259 184.604305 
L 495.139118 184.19979 
L 499.961868 184.133114 
L 505.99036 183.738651 
L 509.607477 183.465702 
L 515.836945 183.244273 
L 526.08537 182.686533 
L 528.094904 182.606369 
L 529.501512 182.76181 
L 531.912996 183.342392 
L 533.52058 183.604678 
L 535.931955 183.722194 
L 538.142355 183.67321 
L 540.754705 183.598787 
L 542.362397 183.862543 
L 544.572797 184.221087 
L 546.783197 184.308696 
L 548.390889 184.175919 
L 551.003239 183.637764 
L 553.012664 183.359293 
L 554.821223 183.335882 
L 557.232598 183.34951 
L 558.84029 183.086878 
L 564.466832 181.869851 
L 566.878207 181.748351 
L 569.892508 181.827717 
L 573.911466 182.027269 
L 577.729558 182.407739 
L 583.959025 182.488488 
L 586.772351 182.857225 
L 588.178959 182.772829 
L 593.001818 182.259182 
L 594.408426 182.473504 
L 596.819801 182.887525 
L 601.64266 183.293411 
L 607.470177 183.09743 
L 611.087294 183.099255 
L 616.11102 183.672799 
L 617.718603 183.821219 
L 618.924345 183.686716 
L 621.73767 183.147226 
L 623.144279 183.246427 
L 625.555763 183.664128 
L 629.373746 184.494315 
L 630.981329 184.46198 
L 632.990863 184.48011 
L 638.014588 184.956689 
L 639.62228 185.059589 
L 641.43073 184.941372 
L 643.239289 184.616703 
L 646.052614 184.002179 
L 647.660197 183.95013 
L 652.684032 184.074168 
L 656.903965 183.686831 
L 660.320107 183.687593 
L 662.128666 183.911881 
L 666.549574 184.721558 
L 669.161925 184.958772 
L 671.171458 184.850852 
L 674.386625 184.697835 
L 675.994208 184.797658 
L 678.003742 185.184202 
L 681.419884 185.865846 
L 683.630393 185.993184 
L 685.639818 185.891595 
L 693.276002 185.276969 
L 697.093985 185.290447 
L 711.562453 185.662397 
L 715.782387 185.462421 
L 722.413804 185.225287 
L 728.241321 185.027804 
L 733.466022 184.977091 
L 737.284114 185.170853 
L 739.896464 185.428574 
L 742.508815 185.713414 
L 745.121165 185.69828 
L 748.537307 185.486134 
L 751.752582 185.317833 
L 754.967749 185.127079 
L 757.580099 185.02043 
L 766.020075 185.061554 
L 772.048567 184.450821 
L 775.263734 184.461925 
L 778.679985 184.623107 
L 784.10566 184.845425 
L 791.339786 185.053561 
L 793.75127 185.193239 
L 797.569253 185.051272 
L 801.387345 184.983612 
L 810.229163 185.255605 
L 813.042488 185.657086 
L 815.654838 185.98399 
L 817.664372 185.977779 
L 820.075747 185.727791 
L 823.893839 185.301554 
L 826.506189 185.235254 
L 829.118539 185.434027 
L 833.338473 185.676666 
L 836.151798 185.675762 
L 841.175633 185.604106 
L 848.007916 185.788898 
L 855.443126 185.663056 
L 865.892526 185.645982 
L 874.332502 185.513499 
L 880.762945 185.38743 
L 882.973345 185.377168 
L 886.18862 185.071337 
L 889.202812 184.891667 
L 891.212346 184.986171 
L 894.628488 185.300039 
L 896.838996 185.10343 
L 899.451347 184.936503 
L 904.676047 184.929343 
L 910.704539 185.174897 
L 913.919815 185.507099 
L 917.335957 185.936036 
L 917.536932 185.939234 
L 917.536932 185.939234 
" style="fill:none;stroke:#8c564b;stroke-linecap:square;stroke-width:1.5;"/>
   </g>
   <g id="line2d_43">
    <path clip-path="url(#pc13d6a09ad)" d="M 105.900568 160.606499 
L 110.522452 160.747813 
L 117.756577 160.938668 
L 120.971744 160.866648 
L 125.392544 160.766432 
L 133.02862 160.902926 
L 135.64097 161.013385 
L 149.506404 161.068119 
L 153.324387 161.236806 
L 158.549087 161.210884 
L 162.568046 161.180971 
L 166.587004 161.195855 
L 169.802171 161.245956 
L 173.620155 161.287086 
L 179.648647 161.36298 
L 182.461972 161.275765 
L 185.074213 161.315636 
L 194.920689 161.39151 
L 196.930223 161.40953 
L 200.949181 161.553581 
L 203.360556 161.350455 
L 205.37009 161.24923 
L 209.590023 161.196752 
L 213.207032 160.916665 
L 216.824149 160.495716 
L 219.83834 160.57012 
L 222.450691 160.739714 
L 227.072574 161.303467 
L 235.512442 161.256227 
L 241.7418 161.429314 
L 254.200626 161.294689 
L 256.612001 161.20867 
L 265.051868 161.224498 
L 274.094552 160.623152 
L 283.740161 161.058218 
L 286.553486 161.363596 
L 288.964861 161.582465 
L 291.376237 161.528654 
L 293.787612 161.240213 
L 295.797145 161.074591 
L 299.213287 161.099493 
L 302.227479 161.314285 
L 304.437879 161.358759 
L 309.461713 161.278512 
L 312.67688 161.31273 
L 323.126172 161.151814 
L 325.537656 161.091986 
L 335.183156 161.289577 
L 338.197456 161.514965 
L 342.01544 161.35063 
L 348.244907 161.247938 
L 360.502758 161.221722 
L 365.727458 161.315917 
L 370.349342 161.203481 
L 373.564509 161.137079 
L 377.583467 161.137845 
L 382.205351 161.077375 
L 390.846193 160.829314 
L 395.066127 160.8861 
L 401.094619 161.058939 
L 406.721161 161.46819 
L 411.54402 161.336291 
L 418.778145 161.374899 
L 421.792446 161.445432 
L 425.208588 161.279876 
L 429.428521 160.831616 
L 431.638921 160.65068 
L 436.05983 160.579022 
L 438.270339 160.464148 
L 442.088322 160.514461 
L 447.313023 160.977207 
L 449.121581 160.926105 
L 451.733931 160.595017 
L 453.944331 160.381097 
L 459.169032 160.093848 
L 461.37954 159.605451 
L 463.389074 159.210972 
L 465.398499 159.081501 
L 467.809874 158.93761 
L 469.216591 158.625429 
L 472.230783 157.839668 
L 473.6375 157.754307 
L 475.446058 157.880721 
L 478.058409 158.079111 
L 479.866858 158.247797 
L 481.47455 158.714899 
L 482.680184 158.957216 
L 483.68495 158.901536 
L 485.493509 158.473045 
L 487.302067 158.144274 
L 489.110626 158.040391 
L 492.928609 157.962327 
L 495.340093 157.526437 
L 497.349518 157.242212 
L 501.569452 156.839122 
L 503.77996 156.579026 
L 506.593286 156.492096 
L 508.602711 156.651419 
L 510.813219 156.820415 
L 513.827411 156.959448 
L 515.836945 157.092458 
L 519.253087 157.061115 
L 520.659695 157.37112 
L 521.865437 157.864588 
L 524.678762 159.201582 
L 525.683529 159.317276 
L 530.104438 159.216455 
L 531.712021 158.929197 
L 534.927188 158.282512 
L 539.147122 157.874448 
L 540.553839 157.863833 
L 541.759472 158.120295 
L 543.367055 158.532309 
L 544.371822 158.527674 
L 545.577564 158.262785 
L 548.189914 157.630017 
L 551.606056 156.880505 
L 553.414615 156.572278 
L 554.620248 156.570095 
L 555.82599 156.788597 
L 562.256432 158.589601 
L 565.873549 160.122296 
L 566.677341 160.160488 
L 567.682108 159.967257 
L 570.294458 159.270738 
L 571.500091 159.291154 
L 573.509625 159.619703 
L 576.32295 160.316617 
L 578.53335 160.736839 
L 580.944725 160.952553 
L 583.959025 160.981127 
L 598.226518 160.614247 
L 601.24071 160.788872 
L 606.264435 160.704974 
L 624.751862 161.486986 
L 627.766163 161.349393 
L 630.579488 161.284548 
L 639.22033 160.683088 
L 647.057381 160.902957 
L 652.282081 160.09081 
L 653.889665 159.785505 
L 655.095407 159.776764 
L 657.506782 160.086434 
L 659.31534 160.221063 
L 660.722057 160.070116 
L 664.138199 159.512789 
L 668.157158 159.403263 
L 671.372433 159.593926 
L 672.779042 159.356209 
L 674.18565 158.874222 
L 678.807534 157.008141 
L 683.429418 155.705525 
L 684.836026 155.696197 
L 686.443609 155.921963 
L 689.85986 156.596991 
L 691.668418 156.483736 
L 693.276002 156.474583 
L 695.08456 156.748975 
L 696.491169 157.128042 
L 697.696911 157.689332 
L 699.304494 158.75116 
L 700.711102 159.60803 
L 701.715869 159.981231 
L 703.323452 160.288117 
L 706.136778 160.62194 
L 707.543495 160.529649 
L 710.557687 160.2157 
L 712.16527 160.285022 
L 718.997663 160.899885 
L 722.413804 161.112963 
L 725.427996 161.353325 
L 733.867972 161.399803 
L 736.480322 161.043362 
L 741.504048 160.513253 
L 743.513581 160.43377 
L 747.331673 160.615522 
L 749.542073 160.992242 
L 751.551607 161.279059 
L 753.360166 161.267602 
L 757.178258 161.134664 
L 759.589633 161.072634 
L 763.809566 160.768192 
L 766.421917 160.998576 
L 769.436217 161.347579 
L 771.445751 161.281053 
L 776.871426 161.065945 
L 779.684643 161.027301 
L 786.718011 160.654387 
L 788.928411 160.425275 
L 791.339786 159.875037 
L 793.349319 159.524722 
L 795.358853 159.418988 
L 797.368387 159.544574 
L 798.57402 159.807826 
L 803.79872 161.32744 
L 805.406412 161.50949 
L 807.013996 161.438382 
L 809.023529 161.345018 
L 813.243463 161.390542 
L 815.252997 161.032039 
L 820.678672 159.992315 
L 826.305214 159.273508 
L 827.912798 159.051485 
L 831.931865 158.213324 
L 833.539448 158.338967 
L 834.946165 158.634354 
L 836.352774 159.156112 
L 839.367074 160.365783 
L 840.974657 160.721011 
L 842.381266 160.808942 
L 845.596541 160.666762 
L 849.012683 160.399572 
L 853.031642 160.175299 
L 855.443126 160.271488 
L 859.060243 160.416947 
L 865.490685 160.441591 
L 868.705852 160.253819 
L 870.715385 159.83801 
L 872.925785 159.404793 
L 876.141061 159.109078 
L 881.566737 158.713838 
L 883.375295 159.102808 
L 884.580928 159.256068 
L 885.585695 159.153704 
L 886.992412 158.742086 
L 893.221879 156.642611 
L 897.441813 155.302858 
L 898.647555 155.247896 
L 899.853188 155.428614 
L 901.661747 155.92653 
L 902.867489 156.497106 
L 903.872255 157.221151 
L 906.886556 159.651515 
L 907.891214 160.094404 
L 909.096956 160.351932 
L 910.302698 160.363692 
L 911.508331 160.126894 
L 915.326423 159.052393 
L 916.934006 159.106141 
L 917.536932 159.125467 
L 917.536932 159.125467 
" style="fill:none;stroke:#e377c2;stroke-linecap:square;stroke-width:1.5;"/>
   </g>
   <g id="line2d_44">
    <path clip-path="url(#pc13d6a09ad)" d="M 105.900568 133.723132 
L 110.924293 133.629869 
L 120.770769 133.231917 
L 126.196336 133.619948 
L 129.411502 133.801951 
L 134.234253 134.033145 
L 137.047578 134.170896 
L 142.473145 134.119132 
L 145.889287 133.851796 
L 153.324387 133.154123 
L 156.539554 133.1103 
L 160.558512 133.343061 
L 163.170863 133.389613 
L 166.185054 133.256596 
L 167.792638 132.93842 
L 169.400221 132.378978 
L 172.816363 131.113731 
L 175.227738 130.532661 
L 178.041063 130.106684 
L 180.050488 129.706926 
L 182.060022 129.07917 
L 184.471397 128.32261 
L 185.677139 128.162032 
L 186.882772 128.231283 
L 188.289489 128.567816 
L 190.499889 129.143327 
L 192.107472 129.263187 
L 194.317872 129.378172 
L 199.944414 130.147406 
L 202.958715 130.263634 
L 206.776698 130.120045 
L 210.19284 129.950143 
L 212.001399 130.082738 
L 213.207032 130.407455 
L 215.216565 131.011824 
L 216.221332 131.082671 
L 219.83834 131.022004 
L 221.445924 131.490916 
L 223.053616 131.884383 
L 224.661199 132.031433 
L 228.881133 132.077415 
L 230.287741 131.889452 
L 231.493374 131.49298 
L 233.100958 130.672449 
L 236.91905 128.598272 
L 238.124683 128.240246 
L 239.5314 128.04707 
L 242.14375 127.964066 
L 244.35415 128.074494 
L 245.961734 128.375698 
L 247.368342 128.849294 
L 248.373109 129.425365 
L 249.377876 130.265248 
L 252.593042 133.268134 
L 253.597809 133.714663 
L 254.803442 133.962373 
L 256.812976 134.082075 
L 263.64526 134.293986 
L 266.25761 134.456097 
L 273.29076 134.41269 
L 290.77342 134.22654 
L 293.184795 134.168396 
L 296.399962 134.08384 
L 305.643621 134.262618 
L 312.274929 134.523684 
L 316.093022 134.432917 
L 331.365173 134.676443 
L 337.393665 134.495349 
L 340.608832 134.438795 
L 345.632557 134.193615 
L 348.445882 134.248659 
L 352.263866 134.351919 
L 355.680007 134.135893 
L 358.493333 133.967927 
L 361.306549 134.081668 
L 365.928433 134.304 
L 373.363534 134.15424 
L 376.578809 134.205378 
L 380.195817 134.379571 
L 383.210118 134.236932 
L 388.032868 134.011794 
L 395.869919 134.035425 
L 408.93167 134.457455 
L 412.548787 134.433847 
L 417.773378 134.364598 
L 421.792446 134.371049 
L 439.676947 133.970549 
L 442.691247 133.973671 
L 447.714973 134.145094 
L 453.743465 133.877594 
L 457.762423 133.809231 
L 463.58994 133.927211 
L 466.805216 133.959925 
L 469.618433 133.955922 
L 478.058409 133.702685 
L 482.881159 134.11198 
L 485.493509 134.204414 
L 504.181802 134.276443 
L 507.597944 134.291088 
L 514.028386 134.241202 
L 518.65027 134.234147 
L 528.496746 134.19832 
L 531.310071 134.237378 
L 537.740513 134.106069 
L 544.371822 134.433872 
L 552.811798 134.090664 
L 555.424148 133.896638 
L 557.634548 133.98939 
L 563.66304 134.367608 
L 567.682108 134.176865 
L 571.902041 134.092098 
L 577.327608 134.372297 
L 585.164767 134.01311 
L 589.786542 134.018673 
L 594.810377 134.294657 
L 599.231176 134.62417 
L 604.857827 134.470203 
L 615.508203 134.149828 
L 622.742437 134.156089 
L 625.957604 133.783897 
L 628.569954 133.577585 
L 630.780463 133.631057 
L 638.416539 134.073156 
L 642.837447 134.100028 
L 645.650773 133.837676 
L 649.468756 133.500236 
L 654.291615 133.490115 
L 660.119132 133.747368 
L 663.535274 133.959383 
L 666.951525 133.781851 
L 670.166691 133.721865 
L 679.812301 133.929349 
L 684.233209 133.936486 
L 687.850326 134.01763 
L 692.874052 133.911167 
L 696.893119 134.08181 
L 707.543495 134.374416 
L 709.95487 134.43439 
L 712.96917 134.519618 
L 716.988129 134.30204 
L 729.246088 133.668599 
L 732.863205 133.896734 
L 736.480322 134.131993 
L 740.097439 134.124786 
L 748.33644 133.617213 
L 750.345865 133.289353 
L 755.369699 132.120527 
L 761.398191 131.875039 
L 763.20675 132.214134 
L 765.618125 132.654422 
L 767.426684 132.736728 
L 769.235242 132.574826 
L 772.450518 132.187315 
L 774.259076 132.331687 
L 776.268501 132.441299 
L 778.880851 132.239351 
L 781.493201 131.908954 
L 783.30176 131.403659 
L 785.110318 130.947404 
L 786.718011 130.776444 
L 789.732202 130.502358 
L 793.349319 130.054735 
L 795.358853 129.980223 
L 796.765461 130.136086 
L 798.57402 130.589566 
L 802.994929 131.724904 
L 804.803487 131.905646 
L 806.612046 131.870308 
L 808.219629 131.613012 
L 809.827321 131.139887 
L 811.836746 130.29914 
L 814.047255 129.434351 
L 815.855813 128.995587 
L 818.267188 128.633443 
L 819.47293 128.675494 
L 820.477697 128.929178 
L 821.68333 129.477834 
L 825.501422 131.568824 
L 827.510956 132.069371 
L 830.123306 132.565513 
L 832.13284 132.625796 
L 835.950932 132.739304 
L 839.56794 132.86377 
L 840.773682 132.609691 
L 841.979424 132.103965 
L 843.787983 131.035724 
L 847.204125 128.999152 
L 848.610733 128.455607 
L 849.816475 128.219052 
L 851.022217 128.234205 
L 852.026984 128.4699 
L 853.031642 128.931878 
L 854.438359 129.879636 
L 857.452659 132.030051 
L 858.457317 132.46205 
L 859.261218 132.611466 
L 860.265876 132.539434 
L 861.471618 132.159758 
L 862.878226 131.471381 
L 867.701085 128.837703 
L 868.906827 128.489152 
L 869.911594 128.421699 
L 870.916361 128.583835 
L 872.121994 129.011655 
L 873.528711 129.718452 
L 874.935319 130.705416 
L 876.743878 131.991379 
L 877.547669 132.30483 
L 878.351461 132.401761 
L 879.356228 132.269789 
L 882.169553 131.669024 
L 883.375295 131.699139 
L 884.580928 131.941748 
L 886.18862 132.509935 
L 889.604762 133.866351 
L 891.011371 134.143454 
L 893.020904 134.255209 
L 895.030438 134.189188 
L 897.039863 133.875259 
L 902.264672 132.771418 
L 904.07323 132.084897 
L 906.685581 130.811603 
L 909.096956 129.738475 
L 910.704539 129.268247 
L 912.312231 129.043208 
L 913.71884 129.090026 
L 915.125448 129.37408 
L 917.536932 129.973972 
L 917.536932 129.973972 
" style="fill:none;stroke:#7f7f7f;stroke-linecap:square;stroke-width:1.5;"/>
   </g>
   <g id="line2d_45">
    <path clip-path="url(#pc13d6a09ad)" d="M 105.900568 107.241948 
L 130.215294 107.23905 
L 132.827644 106.986154 
L 135.841836 106.381917 
L 141.066536 105.407812 
L 142.67412 105.377734 
L 148.903478 105.512883 
L 150.913012 105.206849 
L 153.324387 104.589875 
L 155.333921 104.175767 
L 157.544321 103.979231 
L 158.950929 104.09174 
L 161.563279 104.647442 
L 164.376604 105.164317 
L 166.386029 105.294088 
L 168.395563 105.212262 
L 170.404988 104.871084 
L 176.43348 103.557131 
L 181.457205 102.428717 
L 185.074213 102.044073 
L 186.681797 102.094349 
L 188.892306 102.419175 
L 192.308448 102.986116 
L 196.528381 103.336852 
L 197.734014 103.640903 
L 198.738781 104.112757 
L 201.752973 105.733896 
L 203.561531 106.308665 
L 205.169115 106.60529 
L 206.575723 106.632118 
L 210.19284 106.347973 
L 211.800423 106.006903 
L 213.608982 105.368225 
L 216.422307 104.133663 
L 220.642132 102.159557 
L 223.053616 101.406019 
L 224.862066 101.068193 
L 227.072574 100.884722 
L 228.479183 100.979465 
L 229.885791 101.324161 
L 231.694349 102.026562 
L 233.301933 102.871432 
L 235.914283 104.352592 
L 237.521866 104.951496 
L 239.330425 105.391982 
L 240.737033 105.494635 
L 244.555125 105.570924 
L 248.975925 105.997449 
L 251.186434 106.218966 
L 254.401601 106.182721 
L 257.415793 106.286096 
L 259.425326 106.593626 
L 263.042443 107.248564 
L 265.252843 107.287763 
L 270.879385 107.353058 
L 276.706902 107.848549 
L 287.75912 107.940505 
L 291.175261 107.796343 
L 299.414154 107.63087 
L 304.437879 107.799507 
L 313.480671 108.066247 
L 321.116747 107.970026 
L 331.767014 107.354186 
L 335.183156 107.180268 
L 339.40309 107.230543 
L 341.613598 107.185029 
L 345.230607 106.77556 
L 353.268632 105.732645 
L 355.880983 104.983387 
L 359.297125 104.062951 
L 361.105683 103.752841 
L 362.713266 103.715907 
L 365.928433 103.761147 
L 370.751183 103.476438 
L 372.961692 103.275078 
L 378.186393 102.977493 
L 381.803401 102.694465 
L 387.229076 102.052719 
L 388.635685 102.141972 
L 389.640451 102.414084 
L 390.846193 102.986679 
L 392.453777 104.041162 
L 394.06136 105.057975 
L 395.066127 105.441336 
L 396.271869 105.621869 
L 397.477502 105.575998 
L 398.683244 105.318804 
L 400.089852 104.793311 
L 402.099386 103.75972 
L 404.309786 102.657183 
L 406.118344 102.016347 
L 407.926903 101.615392 
L 409.735462 101.451909 
L 412.950628 101.397927 
L 414.15637 101.626015 
L 415.964929 102.250418 
L 417.371537 102.911918 
L 418.577279 103.705269 
L 421.591471 105.831494 
L 423.801871 106.92745 
L 425.007613 107.326407 
L 426.414221 107.541918 
L 429.227546 107.722483 
L 432.040871 107.63308 
L 438.069364 107.506153 
L 442.892114 107.829233 
L 446.911181 108.127657 
L 450.126348 108.175803 
L 459.169032 108.194444 
L 463.790916 108.237503 
L 467.006082 108.017656 
L 471.426991 107.793163 
L 481.47455 107.837043 
L 485.895459 107.746235 
L 493.531535 107.82346 
L 509.406502 108.091845 
L 517.846478 108.034932 
L 522.468253 107.855298 
L 529.903463 108.023435 
L 541.960447 108.061452 
L 550.199448 107.732415 
L 555.424148 107.735334 
L 566.074415 107.982435 
L 572.504858 108.101037 
L 579.136166 107.892071 
L 581.949492 107.831618 
L 590.389468 107.882131 
L 593.403659 107.887558 
L 598.829335 107.993902 
L 602.848294 107.84723 
L 608.675919 107.644619 
L 624.751862 107.995992 
L 629.172771 107.964109 
L 635.000397 107.985968 
L 638.215563 107.904092 
L 641.43073 107.893349 
L 661.123899 108.109121 
L 674.18565 108.093204 
L 678.606559 108.052177 
L 686.644584 107.939819 
L 690.864518 108.057335 
L 695.486402 108.09817 
L 704.328219 107.950039 
L 717.189104 108.128671 
L 725.22713 108.120184 
L 740.901231 108.274681 
L 752.355399 107.937384 
L 762.201983 107.864172 
L 768.029609 108.033452 
L 775.263734 108.036129 
L 781.292335 108.020565 
L 789.531227 108.049597 
L 795.96167 108.142197 
L 802.794062 108.136655 
L 809.224396 108.149693 
L 817.061555 108.124342 
L 823.291022 108.17128 
L 831.128073 108.19833 
L 836.352774 108.21391 
L 849.816475 107.92067 
L 885.183854 108.163505 
L 891.614187 108.10966 
L 898.04463 108.111936 
L 905.278864 108.010375 
L 916.532165 108.203016 
L 917.536932 108.188044 
L 917.536932 108.188044 
" style="fill:none;stroke:#bcbd22;stroke-linecap:square;stroke-width:1.5;"/>
   </g>
   <g id="line2d_46">
    <path clip-path="url(#pc13d6a09ad)" d="M 105.900568 82.009878 
L 108.111077 82.14146 
L 111.326244 82.350431 
L 116.550835 82.354112 
L 129.612478 82.355115 
L 134.234253 82.363093 
L 154.329154 82.497534 
L 156.941504 82.739823 
L 159.151904 82.839658 
L 162.367071 82.715463 
L 165.582238 82.609851 
L 169.601196 82.512891 
L 173.017338 82.471189 
L 177.036297 82.420319 
L 180.653414 82.511108 
L 184.672372 82.632977 
L 190.90173 82.552035 
L 196.327406 82.667406 
L 199.743548 82.72747 
L 205.972906 82.671771 
L 210.996632 82.875794 
L 213.809957 82.929497 
L 217.025124 82.661144 
L 220.240291 82.462179 
L 224.460224 82.477273 
L 230.488716 82.643471 
L 234.70865 82.76974 
L 239.732375 82.73083 
L 250.583618 82.812271 
L 257.013951 82.683728 
L 261.43486 82.711513 
L 270.879385 82.754341 
L 274.898452 82.767032 
L 281.127811 82.824223 
L 285.347744 82.948393 
L 295.19422 82.710278 
L 300.41892 82.998742 
L 310.265505 83.118527 
L 313.681647 83.035944 
L 316.896813 82.977188 
L 324.331914 82.971498 
L 330.360406 82.53322 
L 334.379364 82.693499 
L 348.646749 82.95163 
L 361.507524 82.818327 
L 365.526592 82.833271 
L 368.741759 82.851721 
L 372.358767 82.809622 
L 378.588234 82.456593 
L 382.004376 82.439163 
L 388.635685 82.530907 
L 391.248035 82.418594 
L 396.874686 82.465529 
L 409.735462 82.724622 
L 414.960162 82.741448 
L 421.18952 82.751012 
L 427.418988 82.608952 
L 431.638921 82.70199 
L 436.46178 82.484117 
L 440.279764 82.40519 
L 444.499697 82.331951 
L 452.537723 82.506886 
L 459.570982 82.121302 
L 462.384307 82.276854 
L 466.604241 82.494083 
L 473.034574 82.57573 
L 478.259275 82.569572 
L 483.082134 82.650086 
L 494.134351 82.66845 
L 498.55526 82.722894 
L 505.789494 82.75279 
L 515.434994 82.453269 
L 518.449295 82.499788 
L 525.080604 82.602643 
L 535.128163 82.372557 
L 539.549072 81.912437 
L 543.56803 81.730416 
L 546.582331 81.612034 
L 549.797498 81.511175 
L 569.892508 81.109637 
L 572.504858 80.748429 
L 575.519158 80.617789 
L 578.332375 80.416638 
L 581.54765 80.285365 
L 586.772351 80.137946 
L 599.834102 80.090915 
L 603.85306 79.948092 
L 607.470177 79.865005 
L 609.479711 79.610026 
L 615.709178 78.536253 
L 617.316762 78.486838 
L 618.924345 78.706217 
L 621.134854 79.019655 
L 624.149045 79.124814 
L 628.971904 78.988886 
L 631.38328 78.688337 
L 635.402238 78.157398 
L 639.019355 77.922031 
L 641.83268 77.685846 
L 644.445031 77.48373 
L 645.851639 77.614818 
L 647.660197 78.041671 
L 650.473523 78.751048 
L 651.88024 78.842334 
L 655.095407 78.739375 
L 658.310573 78.438583 
L 660.320107 78.342054 
L 662.329641 78.494096 
L 666.549574 78.893659 
L 669.563875 78.920078 
L 671.171458 78.691405 
L 672.980017 78.453053 
L 674.788575 78.503426 
L 676.998975 78.568739 
L 678.204717 78.386864 
L 679.812301 77.903444 
L 681.821834 77.316459 
L 682.826601 77.246723 
L 683.831259 77.422995 
L 685.037001 77.916992 
L 688.051301 79.348886 
L 689.658885 79.749254 
L 693.075027 80.333848 
L 699.505469 80.931335 
L 701.314028 80.718316 
L 704.328219 80.008185 
L 708.548153 78.998922 
L 711.763428 77.957817 
L 715.782387 76.57358 
L 717.189104 76.359086 
L 719.198529 76.308427 
L 720.404271 76.453649 
L 721.409038 76.774864 
L 722.815646 77.484408 
L 724.82518 78.515525 
L 726.231897 78.945772 
L 727.83948 79.198641 
L 729.246088 79.204611 
L 730.652805 78.947792 
L 733.466022 78.316479 
L 734.671764 78.329453 
L 735.877506 78.576162 
L 738.288881 79.407688 
L 741.303181 80.631232 
L 745.121165 82.13227 
L 746.527882 82.380033 
L 750.948791 82.747556 
L 755.771541 82.805493 
L 761.599167 82.656325 
L 771.445751 82.109004 
L 779.483777 82.240325 
L 785.91411 82.506925 
L 790.535994 82.589351 
L 795.157878 82.800411 
L 798.97597 82.659833 
L 804.602621 82.292862 
L 811.233929 82.39824 
L 816.056788 82.413128 
L 820.075747 82.274479 
L 826.305214 82.456455 
L 830.324281 82.296753 
L 833.740423 82.170904 
L 838.362307 82.214225 
L 843.587008 82.311441 
L 846.601308 82.147106 
L 848.811708 81.763945 
L 855.041175 80.522233 
L 856.648759 80.489159 
L 858.457317 80.695454 
L 861.069667 81.061735 
L 862.878226 81.034159 
L 867.299244 80.620695 
L 874.131527 80.019271 
L 877.94962 79.987697 
L 879.356228 80.209813 
L 881.365761 80.837385 
L 882.973345 81.255641 
L 884.380062 81.387392 
L 885.987645 81.300227 
L 888.198045 80.956173 
L 893.221879 79.803016 
L 895.633254 79.113624 
L 898.04463 78.207911 
L 901.862722 76.661681 
L 903.269439 76.353891 
L 905.077997 76.219481 
L 906.886556 76.303099 
L 911.709306 76.918182 
L 913.71884 77.279879 
L 915.326423 77.822742 
L 917.134982 78.417387 
L 917.536932 78.457477 
L 917.536932 78.457477 
" style="fill:none;stroke:#17becf;stroke-linecap:square;stroke-width:1.5;"/>
   </g>
   <g id="line2d_47">
    <path clip-path="url(#pc13d6a09ad)" d="M 105.900568 55.732195 
L 116.952786 55.649518 
L 125.392544 55.258501 
L 132.626669 55.18904 
L 136.846603 55.1888 
L 141.468487 55.537438 
L 152.31962 55.57915 
L 154.530129 55.527854 
L 156.941504 55.486202 
L 164.175629 55.710431 
L 171.409755 55.560785 
L 175.428713 55.763291 
L 181.055255 56.075605 
L 184.270422 55.947148 
L 187.686564 55.945913 
L 195.322639 56.176373 
L 205.169115 56.112974 
L 208.987098 56.198136 
L 212.202374 55.989239 
L 216.020357 55.834765 
L 225.063041 55.927781 
L 230.890558 56.233431 
L 234.3067 56.123355 
L 243.349383 56.352688 
L 249.1769 56.12327 
L 253.999651 56.000475 
L 267.865193 55.791754 
L 270.678519 55.642855 
L 273.491735 55.835969 
L 281.328786 56.109686 
L 286.553486 56.11832 
L 288.763886 56.145498 
L 293.586637 56.130613 
L 303.433221 56.178818 
L 306.246437 56.02137 
L 313.480671 56.041495 
L 316.695838 56.143976 
L 327.949031 56.286907 
L 334.379364 56.360701 
L 338.197456 56.337644 
L 341.814465 56.199581 
L 346.83819 55.886284 
L 350.857257 56.005753 
L 353.469608 56.018741 
L 357.689541 55.93765 
L 362.11045 56.008468 
L 381.200584 55.909661 
L 384.214885 55.800247 
L 388.83666 55.962846 
L 396.070894 56.262875 
L 400.491803 56.303395 
L 409.132645 56.043011 
L 415.362003 56.066109 
L 420.385729 55.917137 
L 423.199054 55.855483 
L 425.610429 55.823166 
L 430.031338 55.984087 
L 433.648455 55.915456 
L 446.107389 56.187868 
L 450.729164 56.120945 
L 456.958632 56.615787 
L 468.211824 56.296213 
L 474.441292 56.388823 
L 482.077367 56.257258 
L 488.105859 56.015282 
L 491.923951 55.7519 
L 493.933376 55.393022 
L 496.143885 55.001619 
L 499.359052 54.637477 
L 501.971402 54.205341 
L 503.578985 54.248975 
L 505.789494 54.264931 
L 511.014195 54.166842 
L 512.420803 54.333269 
L 516.439761 55.014052 
L 518.65027 55.024579 
L 520.86067 54.797076 
L 523.272045 54.595519 
L 525.683529 54.406618 
L 532.515813 53.455713 
L 533.721446 53.448537 
L 534.927188 53.681313 
L 536.936722 54.154806 
L 538.544305 54.223235 
L 540.754705 54.345423 
L 542.764239 54.47531 
L 544.572797 54.334299 
L 546.381356 53.983315 
L 548.993706 53.251668 
L 550.601289 52.508566 
L 552.208873 51.774631 
L 553.213639 51.537291 
L 554.419381 51.511957 
L 556.026965 51.707559 
L 557.433573 52.076157 
L 559.041156 52.742803 
L 560.849715 53.533668 
L 561.854482 53.714919 
L 563.060224 53.680863 
L 568.083949 53.008081 
L 570.495324 52.508434 
L 574.715258 52.001196 
L 576.523816 51.774739 
L 577.729558 51.84105 
L 579.136166 52.155282 
L 580.743859 52.784576 
L 582.954259 53.679393 
L 584.160001 53.889182 
L 588.178959 54.191494 
L 589.987518 54.516631 
L 591.19326 54.520471 
L 592.599868 54.298957 
L 594.810377 53.922309 
L 596.41796 53.956841 
L 599.231176 54.082579 
L 601.039735 53.872886 
L 604.656852 53.341454 
L 609.479711 53.087597 
L 610.886319 53.462747 
L 613.90062 54.369279 
L 615.709178 54.612402 
L 616.914811 54.562437 
L 617.919578 54.298987 
L 619.326295 53.638511 
L 622.742437 51.914119 
L 624.350021 51.332092 
L 625.153812 51.268081 
L 625.957604 51.449898 
L 626.962371 51.955263 
L 629.373746 53.276554 
L 630.579488 53.649313 
L 631.785121 53.776037 
L 632.789888 53.657778 
L 633.794655 53.321121 
L 635.402238 52.516193 
L 637.813722 51.337178 
L 639.62228 50.685413 
L 640.827914 50.461402 
L 642.435497 50.395869 
L 644.244056 50.533865 
L 648.062148 51.201198 
L 649.066915 51.634571 
L 650.071681 52.319153 
L 652.081106 54.054694 
L 653.487823 55.137717 
L 654.49259 55.647936 
L 655.497357 55.927324 
L 656.70299 56.045246 
L 657.908732 55.959729 
L 660.119132 55.512721 
L 664.941991 54.539057 
L 666.147624 54.555673 
L 667.554341 54.80292 
L 671.372433 55.675462 
L 673.582833 55.751578 
L 694.079794 56.218494 
L 699.103519 55.795831 
L 701.514894 55.686398 
L 708.347287 55.722988 
L 711.763428 55.793029 
L 718.796687 55.826169 
L 720.806221 55.877079 
L 726.231897 56.254143 
L 731.858439 56.103228 
L 736.279347 55.999903 
L 738.288881 55.654703 
L 740.298415 55.358733 
L 743.714556 55.259354 
L 747.130698 55.228174 
L 752.355399 55.600988 
L 754.364932 55.32863 
L 759.589633 54.485224 
L 765.216284 54.042491 
L 767.024842 53.536908 
L 773.656151 51.369679 
L 775.263734 51.107578 
L 778.278035 50.939827 
L 780.287568 51.050836 
L 782.899919 51.345432 
L 784.10566 51.704527 
L 785.512269 52.372494 
L 787.119852 53.091503 
L 788.124619 53.304535 
L 789.531227 53.36079 
L 794.153111 53.145976 
L 796.36362 52.808895 
L 798.57402 52.243513 
L 800.382578 51.591789 
L 803.597854 50.267029 
L 804.803487 50.083076 
L 805.808254 50.12267 
L 806.813021 50.361684 
L 807.817788 50.812048 
L 809.224396 51.739869 
L 811.434905 53.242171 
L 812.640647 53.730353 
L 814.047255 54.01413 
L 816.86058 54.487612 
L 819.673905 55.167633 
L 821.080514 55.240814 
L 824.094814 55.290522 
L 826.707164 55.455316 
L 830.525257 55.429947 
L 836.352774 55.959647 
L 843.185057 55.952325 
L 851.223083 55.243679 
L 856.246917 55.048187 
L 861.471618 53.825554 
L 862.476385 53.959888 
L 863.682126 54.359223 
L 867.50011 55.783156 
L 868.906827 55.973676 
L 870.51441 55.974853 
L 872.322969 55.725299 
L 874.533369 55.46041 
L 877.94962 55.355578 
L 880.360995 55.563833 
L 883.576161 55.82634 
L 893.020904 55.760446 
L 897.843763 55.90079 
L 899.250371 55.703741 
L 901.259905 55.112235 
L 904.07323 54.09493 
L 909.900747 51.530535 
L 914.321656 50.374804 
L 915.728373 50.239669 
L 917.536932 50.293042 
L 917.536932 50.293042 
" style="fill:none;stroke:#1f77b4;stroke-linecap:square;stroke-width:1.5;"/>
   </g>
   <g id="line2d_48">
    <path clip-path="url(#pc13d6a09ad)" d="M 105.900568 29.083927 
L 111.52711 29.223357 
L 114.541411 29.177563 
L 122.177377 28.738161 
L 134.234253 28.603131 
L 137.85137 28.447023 
L 141.669353 28.561119 
L 149.908245 28.952068 
L 155.132946 28.954482 
L 158.749954 29.027194 
L 164.175629 29.215429 
L 171.811705 29.597542 
L 186.07898 29.733009 
L 190.90173 29.663643 
L 199.542573 29.517132 
L 202.556764 29.503287 
L 206.173882 29.699864 
L 210.59479 29.888818 
L 213.809957 29.880753 
L 220.441266 29.809159 
L 229.081999 29.771535 
L 234.105725 29.892928 
L 238.526633 29.57576 
L 242.344617 29.33766 
L 244.756101 29.443196 
L 249.377876 29.729413 
L 252.593042 29.613331 
L 260.229118 29.290289 
L 264.650027 29.46135 
L 268.46801 29.55954 
L 271.48231 29.528043 
L 283.137344 29.272303 
L 300.41892 29.437047 
L 305.442646 29.68969 
L 308.858788 29.761007 
L 318.906238 29.447113 
L 325.135705 29.456496 
L 338.398323 29.5112 
L 343.422048 29.525041 
L 355.077191 29.312955 
L 357.689541 29.42705 
L 362.311316 29.649537 
L 366.732225 29.609249 
L 371.956925 29.50352 
L 376.578809 29.540827 
L 382.406326 29.580323 
L 398.281294 29.335668 
L 402.300252 29.523106 
L 419.983887 29.459793 
L 429.830363 29.45184 
L 434.854197 28.965929 
L 437.064597 28.797476 
L 439.274997 28.874935 
L 443.495039 29.039859 
L 446.509231 28.950402 
L 456.556681 28.55877 
L 461.781382 28.822681 
L 464.795682 29.058761 
L 468.010849 29.045112 
L 475.646925 29.008197 
L 481.675417 29.292117 
L 489.311601 29.009152 
L 492.124818 28.984062 
L 501.971402 29.128905 
L 506.392311 29.021731 
L 509.205636 29.18154 
L 514.028386 29.559397 
L 518.65027 29.621539 
L 537.941488 29.269558 
L 542.161422 29.420333 
L 546.984172 29.543498 
L 550.199448 29.389846 
L 554.218406 29.26269 
L 567.079182 29.712879 
L 571.299116 29.835639 
L 575.720025 29.722557 
L 579.739092 29.325136 
L 587.576142 28.619229 
L 600.436918 28.033695 
L 606.867361 27.403909 
L 610.082528 27.32165 
L 617.316762 27.353835 
L 620.732904 27.018986 
L 623.345254 27.009849 
L 626.560421 27.108775 
L 632.388046 26.730877 
L 635.804188 26.477617 
L 637.411772 26.156419 
L 640.225097 25.307615 
L 645.047847 23.723712 
L 646.454564 23.590091 
L 648.062148 23.679312 
L 650.272548 24.016708 
L 651.88024 24.514778 
L 654.291615 25.258112 
L 658.913499 26.473689 
L 660.521082 26.564125 
L 662.530616 26.440036 
L 664.138199 26.123912 
L 669.161925 24.922219 
L 671.372433 24.679806 
L 673.180883 24.652931 
L 674.5876 24.857387 
L 678.003742 25.76903 
L 681.620859 26.786086 
L 685.438951 27.8703 
L 688.654118 28.368313 
L 690.261701 28.450678 
L 691.668418 28.293929 
L 693.276002 27.86843 
L 694.68261 27.241696 
L 696.089327 26.321111 
L 699.505469 23.870258 
L 700.711102 23.337066 
L 701.715869 23.110858 
L 702.720636 23.139731 
L 703.725403 23.405937 
L 708.548153 25.037603 
L 711.964404 25.917802 
L 716.184337 27.3762 
L 718.394737 27.814758 
L 720.605246 28.040941 
L 723.418571 28.082089 
L 725.026155 27.875003 
L 730.45183 26.896664 
L 732.260389 26.83488 
L 734.671764 27.071279 
L 736.882273 27.173849 
L 741.905998 26.838138 
L 743.11174 26.578583 
L 744.518348 26.024904 
L 746.326907 24.999181 
L 748.33644 23.918643 
L 749.944024 23.286729 
L 750.948791 23.122731 
L 751.953557 23.209412 
L 752.958215 23.541025 
L 753.962982 24.10004 
L 755.168724 25.028277 
L 758.383891 27.715411 
L 759.388658 28.205384 
L 760.393425 28.423991 
L 761.398191 28.408753 
L 762.8048 28.151639 
L 765.015308 27.495077 
L 767.225708 26.576944 
L 769.838167 25.277965 
L 773.656151 23.234413 
L 775.464709 22.497171 
L 777.072293 22.127148 
L 778.47901 22.029518 
L 779.684643 22.186161 
L 781.292335 22.643247 
L 782.497968 23.208016 
L 784.10566 24.264706 
L 786.718011 26.271598 
L 789.732202 28.629598 
L 790.937944 29.280643 
L 792.143577 29.674526 
L 793.349319 29.833087 
L 796.966436 29.897468 
L 800.382578 29.92472 
L 814.449205 29.393292 
L 819.47293 29.282182 
L 826.506189 29.345875 
L 832.13284 29.417738 
L 848.811708 29.218066 
L 853.031642 29.479304 
L 859.261218 29.826015 
L 863.280176 29.757888 
L 868.504877 29.686962 
L 873.930552 29.689117 
L 880.56197 29.223539 
L 883.777137 29.316131 
L 891.011371 29.527519 
L 893.824696 29.324228 
L 896.638021 29.180077 
L 902.465538 29.181638 
L 914.522631 29.29121 
L 917.536932 29.441463 
L 917.536932 29.441463 
" style="fill:none;stroke:#ff7f0e;stroke-linecap:square;stroke-width:1.5;"/>
   </g>
   <g id="patch_3">
    <path d="M 65.31875 333.36 
L 65.31875 7.2 
" style="fill:none;stroke:#000000;stroke-linecap:square;stroke-linejoin:miter;stroke-width:0.8;"/>
   </g>
   <g id="patch_4">
    <path d="M 958.11875 333.36 
L 958.11875 7.2 
" style="fill:none;stroke:#000000;stroke-linecap:square;stroke-linejoin:miter;stroke-width:0.8;"/>
   </g>
   <g id="patch_5">
    <path d="M 65.31875 333.36 
L 958.11875 333.36 
" style="fill:none;stroke:#000000;stroke-linecap:square;stroke-linejoin:miter;stroke-width:0.8;"/>
   </g>
   <g id="patch_6">
    <path d="M 65.31875 7.2 
L 958.11875 7.2 
" style="fill:none;stroke:#000000;stroke-linecap:square;stroke-linejoin:miter;stroke-width:0.8;"/>
   </g>
  </g>
 </g>
 <defs>
  <clipPath id="pc13d6a09ad">
   <rect height="326.16" width="892.8" x="65.31875" y="7.2"/>
  </clipPath>
 </defs>
</svg>
