<?xml version="1.0" encoding="utf-8" standalone="no"?>
<!DOCTYPE svg PUBLIC "-//W3C//DTD SVG 1.1//EN"
  "http://www.w3.org/Graphics/SVG/1.1/DTD/svg11.dtd">
<svg height="370.91625pt" version="1.1" viewBox="0 0 496.220312 370.91625" width="496.220312pt" xmlns="http://www.w3.org/2000/svg" xmlns:xlink="http://www.w3.org/1999/xlink">
 <metadata>
  <rdf:RDF xmlns:cc="http://creativecommons.org/ns#" xmlns:dc="http://purl.org/dc/elements/1.1/" xmlns:rdf="http://www.w3.org/1999/02/22-rdf-syntax-ns#">
   <cc:Work>
    <dc:type rdf:resource="http://purl.org/dc/dcmitype/StillImage"/>
    <dc:date>2021-05-25T16:25:02.335401</dc:date>
    <dc:format>image/svg+xml</dc:format>
    <dc:creator>
     <cc:Agent>
      <dc:title>Matplotlib v3.4.1, https://matplotlib.org/</dc:title>
     </cc:Agent>
    </dc:creator>
   </cc:Work>
  </rdf:RDF>
 </metadata>
 <defs>
  <style type="text/css">*{stroke-linecap:butt;stroke-linejoin:round;}</style>
 </defs>
 <g id="figure_1">
  <g id="patch_1">
   <path d="M 0 370.91625 
L 496.220312 370.91625 
L 496.220312 0 
L 0 0 
z
" style="fill:none;"/>
  </g>
  <g id="axes_1">
   <g id="patch_2">
    <path d="M 42.620312 333.36 
L 489.020312 333.36 
L 489.020312 7.2 
L 42.620312 7.2 
z
" style="fill:#ffffff;"/>
   </g>
   <g id="PathCollection_1">
    <defs>
     <path d="M 0 5 
C 1.326016 5 2.597899 4.473168 3.535534 3.535534 
C 4.473168 2.597899 5 1.326016 5 -0 
C 5 -1.326016 4.473168 -2.597899 3.535534 -3.535534 
C 2.597899 -4.473168 1.326016 -5 0 -5 
C -1.326016 -5 -2.597899 -4.473168 -3.535534 -3.535534 
C -4.473168 -2.597899 -5 -1.326016 -5 0 
C -5 1.326016 -4.473168 2.597899 -3.535534 3.535534 
C -2.597899 4.473168 -1.326016 5 0 5 
z
" id="C0_0_bc2f4eb3ed"/>
    </defs>
    <g clip-path="url(#pc1cb393a48)">
     <use style="fill:#25ac82;stroke:#25ac82;" x="248.817928" xlink:href="#C0_0_bc2f4eb3ed" y="180.065492"/>
    </g>
    <g clip-path="url(#pc1cb393a48)">
     <use style="fill:#1f958b;stroke:#1f958b;" x="464.936143" xlink:href="#C0_0_bc2f4eb3ed" y="255.400968"/>
    </g>
    <g clip-path="url(#pc1cb393a48)">
     <use style="fill:#471164;stroke:#471164;" x="241.759953" xlink:href="#C0_0_bc2f4eb3ed" y="41.856313"/>
    </g>
    <g clip-path="url(#pc1cb393a48)">
     <use style="fill:#27ad81;stroke:#27ad81;" x="99.240978" xlink:href="#C0_0_bc2f4eb3ed" y="133.980549"/>
    </g>
    <g clip-path="url(#pc1cb393a48)">
     <use style="fill:#3dbc74;stroke:#3dbc74;" x="115.607856" xlink:href="#C0_0_bc2f4eb3ed" y="141.594557"/>
    </g>
    <g clip-path="url(#pc1cb393a48)">
     <use style="fill:#34b679;stroke:#34b679;" x="154.112546" xlink:href="#C0_0_bc2f4eb3ed" y="188.834251"/>
    </g>
    <g clip-path="url(#pc1cb393a48)">
     <use style="fill:#38588c;stroke:#38588c;" x="110.396263" xlink:href="#C0_0_bc2f4eb3ed" y="198.263685"/>
    </g>
    <g clip-path="url(#pc1cb393a48)">
     <use style="fill:#20938c;stroke:#20938c;" x="89.010953" xlink:href="#C0_0_bc2f4eb3ed" y="145.390543"/>
    </g>
    <g clip-path="url(#pc1cb393a48)">
     <use style="fill:#44bf70;stroke:#44bf70;" x="136.009033" xlink:href="#C0_0_bc2f4eb3ed" y="168.789043"/>
    </g>
    <g clip-path="url(#pc1cb393a48)">
     <use style="fill:#70cf57;stroke:#70cf57;" x="228.895605" xlink:href="#C0_0_bc2f4eb3ed" y="148.274125"/>
    </g>
    <g clip-path="url(#pc1cb393a48)">
     <use style="fill:#1f9e89;stroke:#1f9e89;" x="215.245967" xlink:href="#C0_0_bc2f4eb3ed" y="179.980693"/>
    </g>
    <g clip-path="url(#pc1cb393a48)">
     <use style="fill:#1fa088;stroke:#1fa088;" x="350.851998" xlink:href="#C0_0_bc2f4eb3ed" y="262.806618"/>
    </g>
    <g clip-path="url(#pc1cb393a48)">
     <use style="fill:#1e9c89;stroke:#1e9c89;" x="159.71293" xlink:href="#C0_0_bc2f4eb3ed" y="205.952956"/>
    </g>
    <g clip-path="url(#pc1cb393a48)">
     <use style="fill:#95d840;stroke:#95d840;" x="350.24665" xlink:href="#C0_0_bc2f4eb3ed" y="230.274568"/>
    </g>
    <g clip-path="url(#pc1cb393a48)">
     <use style="fill:#404688;stroke:#404688;" x="239.792201" xlink:href="#C0_0_bc2f4eb3ed" y="262.036392"/>
    </g>
    <g clip-path="url(#pc1cb393a48)">
     <use style="fill:#e5e419;stroke:#e5e419;" x="389.146435" xlink:href="#C0_0_bc2f4eb3ed" y="251.981889"/>
    </g>
    <g clip-path="url(#pc1cb393a48)">
     <use style="fill:#440256;stroke:#440256;" x="70.356459" xlink:href="#C0_0_bc2f4eb3ed" y="22.025455"/>
    </g>
    <g clip-path="url(#pc1cb393a48)">
     <use style="fill:#453581;stroke:#453581;" x="70.441806" xlink:href="#C0_0_bc2f4eb3ed" y="47.964019"/>
    </g>
    <g clip-path="url(#pc1cb393a48)">
     <use style="fill:#34618d;stroke:#34618d;" x="98.455168" xlink:href="#C0_0_bc2f4eb3ed" y="186.394352"/>
    </g>
    <g clip-path="url(#pc1cb393a48)">
     <use style="fill:#2a778e;stroke:#2a778e;" x="66.278323" xlink:href="#C0_0_bc2f4eb3ed" y="96.601998"/>
    </g>
    <g clip-path="url(#pc1cb393a48)">
     <use style="fill:#4cc26c;stroke:#4cc26c;" x="148.671844" xlink:href="#C0_0_bc2f4eb3ed" y="169.427616"/>
    </g>
    <g clip-path="url(#pc1cb393a48)">
     <use style="fill:#2e6d8e;stroke:#2e6d8e;" x="227.63445" xlink:href="#C0_0_bc2f4eb3ed" y="248.426323"/>
    </g>
    <g clip-path="url(#pc1cb393a48)">
     <use style="fill:#3aba76;stroke:#3aba76;" x="165.712564" xlink:href="#C0_0_bc2f4eb3ed" y="189.962227"/>
    </g>
    <g clip-path="url(#pc1cb393a48)">
     <use style="fill:#46c06f;stroke:#46c06f;" x="131.600639" xlink:href="#C0_0_bc2f4eb3ed" y="148.588201"/>
    </g>
    <g clip-path="url(#pc1cb393a48)">
     <use style="fill:#9bd93c;stroke:#9bd93c;" x="378.34184" xlink:href="#C0_0_bc2f4eb3ed" y="215.048235"/>
    </g>
    <g clip-path="url(#pc1cb393a48)">
     <use style="fill:#365c8d;stroke:#365c8d;" x="224.403067" xlink:href="#C0_0_bc2f4eb3ed" y="63.286886"/>
    </g>
    <g clip-path="url(#pc1cb393a48)">
     <use style="fill:#1fa088;stroke:#1fa088;" x="215.043048" xlink:href="#C0_0_bc2f4eb3ed" y="186.08909"/>
    </g>
    <g clip-path="url(#pc1cb393a48)">
     <use style="fill:#52c569;stroke:#52c569;" x="236.775034" xlink:href="#C0_0_bc2f4eb3ed" y="119.761827"/>
    </g>
    <g clip-path="url(#pc1cb393a48)">
     <use style="fill:#1f9a8a;stroke:#1f9a8a;" x="111.147331" xlink:href="#C0_0_bc2f4eb3ed" y="112.470032"/>
    </g>
    <g clip-path="url(#pc1cb393a48)">
     <use style="fill:#26828e;stroke:#26828e;" x="97.879644" xlink:href="#C0_0_bc2f4eb3ed" y="93.919081"/>
    </g>
    <g clip-path="url(#pc1cb393a48)">
     <use style="fill:#24878e;stroke:#24878e;" x="309.995741" xlink:href="#C0_0_bc2f4eb3ed" y="148.284098"/>
    </g>
    <g clip-path="url(#pc1cb393a48)">
     <use style="fill:#33638d;stroke:#33638d;" x="101.642608" xlink:href="#C0_0_bc2f4eb3ed" y="188.28268"/>
    </g>
    <g clip-path="url(#pc1cb393a48)">
     <use style="fill:#32b67a;stroke:#32b67a;" x="151.706166" xlink:href="#C0_0_bc2f4eb3ed" y="151.653757"/>
    </g>
    <g clip-path="url(#pc1cb393a48)">
     <use style="fill:#2eb37c;stroke:#2eb37c;" x="110.020337" xlink:href="#C0_0_bc2f4eb3ed" y="130.084391"/>
    </g>
    <g clip-path="url(#pc1cb393a48)">
     <use style="fill:#34618d;stroke:#34618d;" x="83.671265" xlink:href="#C0_0_bc2f4eb3ed" y="72.525348"/>
    </g>
    <g clip-path="url(#pc1cb393a48)">
     <use style="fill:#22a884;stroke:#22a884;" x="96.373932" xlink:href="#C0_0_bc2f4eb3ed" y="124.801045"/>
    </g>
    <g clip-path="url(#pc1cb393a48)">
     <use style="fill:#460b5e;stroke:#460b5e;" x="323.818956" xlink:href="#C0_0_bc2f4eb3ed" y="80.884691"/>
    </g>
    <g clip-path="url(#pc1cb393a48)">
     <use style="fill:#23898e;stroke:#23898e;" x="417.525514" xlink:href="#C0_0_bc2f4eb3ed" y="295.49054"/>
    </g>
    <g clip-path="url(#pc1cb393a48)">
     <use style="fill:#297a8e;stroke:#297a8e;" x="113.536087" xlink:href="#C0_0_bc2f4eb3ed" y="96.511104"/>
    </g>
    <g clip-path="url(#pc1cb393a48)">
     <use style="fill:#7cd250;stroke:#7cd250;" x="250.735735" xlink:href="#C0_0_bc2f4eb3ed" y="162.953356"/>
    </g>
    <g clip-path="url(#pc1cb393a48)">
     <use style="fill:#1e9c89;stroke:#1e9c89;" x="209.136592" xlink:href="#C0_0_bc2f4eb3ed" y="103.507478"/>
    </g>
    <g clip-path="url(#pc1cb393a48)">
     <use style="fill:#2b748e;stroke:#2b748e;" x="214.48745" xlink:href="#C0_0_bc2f4eb3ed" y="79.486043"/>
    </g>
    <g clip-path="url(#pc1cb393a48)">
     <use style="fill:#5cc863;stroke:#5cc863;" x="217.172409" xlink:href="#C0_0_bc2f4eb3ed" y="129.338298"/>
    </g>
    <g clip-path="url(#pc1cb393a48)">
     <use style="fill:#1f968b;stroke:#1f968b;" x="253.90613" xlink:href="#C0_0_bc2f4eb3ed" y="107.699752"/>
    </g>
    <g clip-path="url(#pc1cb393a48)">
     <use style="fill:#a0da39;stroke:#a0da39;" x="356.456271" xlink:href="#C0_0_bc2f4eb3ed" y="210.039677"/>
    </g>
    <g clip-path="url(#pc1cb393a48)">
     <use style="fill:#5ec962;stroke:#5ec962;" x="348.644379" xlink:href="#C0_0_bc2f4eb3ed" y="197.30246"/>
    </g>
    <g clip-path="url(#pc1cb393a48)">
     <use style="fill:#4ac16d;stroke:#4ac16d;" x="218.394409" xlink:href="#C0_0_bc2f4eb3ed" y="146.41255"/>
    </g>
    <g clip-path="url(#pc1cb393a48)">
     <use style="fill:#21918c;stroke:#21918c;" x="268.855005" xlink:href="#C0_0_bc2f4eb3ed" y="227.440662"/>
    </g>
    <g clip-path="url(#pc1cb393a48)">
     <use style="fill:#42be71;stroke:#42be71;" x="161.74389" xlink:href="#C0_0_bc2f4eb3ed" y="172.216159"/>
    </g>
    <g clip-path="url(#pc1cb393a48)">
     <use style="fill:#77d153;stroke:#77d153;" x="273.857108" xlink:href="#C0_0_bc2f4eb3ed" y="173.883534"/>
    </g>
    <g clip-path="url(#pc1cb393a48)">
     <use style="fill:#1f9f88;stroke:#1f9f88;" x="193.793791" xlink:href="#C0_0_bc2f4eb3ed" y="116.808519"/>
    </g>
    <g clip-path="url(#pc1cb393a48)">
     <use style="fill:#1f978b;stroke:#1f978b;" x="238.206217" xlink:href="#C0_0_bc2f4eb3ed" y="232.177307"/>
    </g>
    <g clip-path="url(#pc1cb393a48)">
     <use style="fill:#a2da37;stroke:#a2da37;" x="236.788645" xlink:href="#C0_0_bc2f4eb3ed" y="138.428794"/>
    </g>
    <g clip-path="url(#pc1cb393a48)">
     <use style="fill:#cae11f;stroke:#cae11f;" x="429.163645" xlink:href="#C0_0_bc2f4eb3ed" y="255.38268"/>
    </g>
    <g clip-path="url(#pc1cb393a48)">
     <use style="fill:#69cd5b;stroke:#69cd5b;" x="371.759288" xlink:href="#C0_0_bc2f4eb3ed" y="259.524176"/>
    </g>
    <g clip-path="url(#pc1cb393a48)">
     <use style="fill:#fde725;stroke:#fde725;" x="406.892473" xlink:href="#C0_0_bc2f4eb3ed" y="251.680275"/>
    </g>
    <g clip-path="url(#pc1cb393a48)">
     <use style="fill:#28ae80;stroke:#28ae80;" x="266.462959" xlink:href="#C0_0_bc2f4eb3ed" y="187.076771"/>
    </g>
    <g clip-path="url(#pc1cb393a48)">
     <use style="fill:#1f958b;stroke:#1f958b;" x="259.134762" xlink:href="#C0_0_bc2f4eb3ed" y="221.360258"/>
    </g>
    <g clip-path="url(#pc1cb393a48)">
     <use style="fill:#25838e;stroke:#25838e;" x="375.757621" xlink:href="#C0_0_bc2f4eb3ed" y="284.113239"/>
    </g>
    <g clip-path="url(#pc1cb393a48)">
     <use style="fill:#70cf57;stroke:#70cf57;" x="251.914422" xlink:href="#C0_0_bc2f4eb3ed" y="128.882056"/>
    </g>
    <g clip-path="url(#pc1cb393a48)">
     <use style="fill:#287d8e;stroke:#287d8e;" x="69.543846" xlink:href="#C0_0_bc2f4eb3ed" y="98.150146"/>
    </g>
    <g clip-path="url(#pc1cb393a48)">
     <use style="fill:#287c8e;stroke:#287c8e;" x="229.726868" xlink:href="#C0_0_bc2f4eb3ed" y="83.183966"/>
    </g>
    <g clip-path="url(#pc1cb393a48)">
     <use style="fill:#33628d;stroke:#33628d;" x="250.456163" xlink:href="#C0_0_bc2f4eb3ed" y="72.694896"/>
    </g>
    <g clip-path="url(#pc1cb393a48)">
     <use style="fill:#48c16e;stroke:#48c16e;" x="453.514196" xlink:href="#C0_0_bc2f4eb3ed" y="259.911289"/>
    </g>
    <g clip-path="url(#pc1cb393a48)">
     <use style="fill:#3bbb75;stroke:#3bbb75;" x="232.445771" xlink:href="#C0_0_bc2f4eb3ed" y="114.869235"/>
    </g>
    <g clip-path="url(#pc1cb393a48)">
     <use style="fill:#2f6c8e;stroke:#2f6c8e;" x="431.71032" xlink:href="#C0_0_bc2f4eb3ed" y="218.883414"/>
    </g>
    <g clip-path="url(#pc1cb393a48)">
     <use style="fill:#2fb47c;stroke:#2fb47c;" x="443.579332" xlink:href="#C0_0_bc2f4eb3ed" y="242.816352"/>
    </g>
    <g clip-path="url(#pc1cb393a48)">
     <use style="fill:#65cb5e;stroke:#65cb5e;" x="444.921675" xlink:href="#C0_0_bc2f4eb3ed" y="274.001177"/>
    </g>
    <g clip-path="url(#pc1cb393a48)">
     <use style="fill:#fde725;stroke:#fde725;" x="383.030158" xlink:href="#C0_0_bc2f4eb3ed" y="232.855894"/>
    </g>
    <g clip-path="url(#pc1cb393a48)">
     <use style="fill:#3e4989;stroke:#3e4989;" x="208.634698" xlink:href="#C0_0_bc2f4eb3ed" y="54.962039"/>
    </g>
    <g clip-path="url(#pc1cb393a48)">
     <use style="fill:#d5e21a;stroke:#d5e21a;" x="407.364831" xlink:href="#C0_0_bc2f4eb3ed" y="261.511665"/>
    </g>
    <g clip-path="url(#pc1cb393a48)">
     <use style="fill:#29af7f;stroke:#29af7f;" x="330.407371" xlink:href="#C0_0_bc2f4eb3ed" y="177.323136"/>
    </g>
    <g clip-path="url(#pc1cb393a48)">
     <use style="fill:#84d44b;stroke:#84d44b;" x="440.948272" xlink:href="#C0_0_bc2f4eb3ed" y="254.140006"/>
    </g>
    <g clip-path="url(#pc1cb393a48)">
     <use style="fill:#1f9e89;stroke:#1f9e89;" x="197.468717" xlink:href="#C0_0_bc2f4eb3ed" y="153.601786"/>
    </g>
    <g clip-path="url(#pc1cb393a48)">
     <use style="fill:#bddf26;stroke:#bddf26;" x="263.027956" xlink:href="#C0_0_bc2f4eb3ed" y="151.939458"/>
    </g>
    <g clip-path="url(#pc1cb393a48)">
     <use style="fill:#32b67a;stroke:#32b67a;" x="361.48573" xlink:href="#C0_0_bc2f4eb3ed" y="262.283665"/>
    </g>
    <g clip-path="url(#pc1cb393a48)">
     <use style="fill:#e2e418;stroke:#e2e418;" x="373.178776" xlink:href="#C0_0_bc2f4eb3ed" y="224.361237"/>
    </g>
    <g clip-path="url(#pc1cb393a48)">
     <use style="fill:#20928c;stroke:#20928c;" x="300.341194" xlink:href="#C0_0_bc2f4eb3ed" y="232.59736"/>
    </g>
    <g clip-path="url(#pc1cb393a48)">
     <use style="fill:#4ac16d;stroke:#4ac16d;" x="417.92729" xlink:href="#C0_0_bc2f4eb3ed" y="227.506272"/>
    </g>
    <g clip-path="url(#pc1cb393a48)">
     <use style="fill:#1fa088;stroke:#1fa088;" x="380.863931" xlink:href="#C0_0_bc2f4eb3ed" y="279.120363"/>
    </g>
    <g clip-path="url(#pc1cb393a48)">
     <use style="fill:#89d548;stroke:#89d548;" x="283.871602" xlink:href="#C0_0_bc2f4eb3ed" y="154.780136"/>
    </g>
    <g clip-path="url(#pc1cb393a48)">
     <use style="fill:#aadc32;stroke:#aadc32;" x="260.632767" xlink:href="#C0_0_bc2f4eb3ed" y="142.407191"/>
    </g>
    <g clip-path="url(#pc1cb393a48)">
     <use style="fill:#1e9c89;stroke:#1e9c89;" x="211.034743" xlink:href="#C0_0_bc2f4eb3ed" y="226.575869"/>
    </g>
    <g clip-path="url(#pc1cb393a48)">
     <use style="fill:#9dd93b;stroke:#9dd93b;" x="272.823151" xlink:href="#C0_0_bc2f4eb3ed" y="166.391126"/>
    </g>
    <g clip-path="url(#pc1cb393a48)">
     <use style="fill:#aadc32;stroke:#aadc32;" x="245.744113" xlink:href="#C0_0_bc2f4eb3ed" y="151.04925"/>
    </g>
    <g clip-path="url(#pc1cb393a48)">
     <use style="fill:#24868e;stroke:#24868e;" x="252.896125" xlink:href="#C0_0_bc2f4eb3ed" y="241.990891"/>
    </g>
    <g clip-path="url(#pc1cb393a48)">
     <use style="fill:#d0e11c;stroke:#d0e11c;" x="362.912854" xlink:href="#C0_0_bc2f4eb3ed" y="230.245397"/>
    </g>
    <g clip-path="url(#pc1cb393a48)">
     <use style="fill:#4ec36b;stroke:#4ec36b;" x="419.790249" xlink:href="#C0_0_bc2f4eb3ed" y="229.099044"/>
    </g>
    <g clip-path="url(#pc1cb393a48)">
     <use style="fill:#277f8e;stroke:#277f8e;" x="264.807922" xlink:href="#C0_0_bc2f4eb3ed" y="245.321721"/>
    </g>
    <g clip-path="url(#pc1cb393a48)">
     <use style="fill:#433d84;stroke:#433d84;" x="313.667748" xlink:href="#C0_0_bc2f4eb3ed" y="113.367861"/>
    </g>
    <g clip-path="url(#pc1cb393a48)">
     <use style="fill:#29af7f;stroke:#29af7f;" x="387.040902" xlink:href="#C0_0_bc2f4eb3ed" y="277.469317"/>
    </g>
    <g clip-path="url(#pc1cb393a48)">
     <use style="fill:#24878e;stroke:#24878e;" x="457.502076" xlink:href="#C0_0_bc2f4eb3ed" y="296.51149"/>
    </g>
    <g clip-path="url(#pc1cb393a48)">
     <use style="fill:#20a386;stroke:#20a386;" x="226.221803" xlink:href="#C0_0_bc2f4eb3ed" y="206.146176"/>
    </g>
    <g clip-path="url(#pc1cb393a48)">
     <use style="fill:#1f978b;stroke:#1f978b;" x="104.195636" xlink:href="#C0_0_bc2f4eb3ed" y="108.185449"/>
    </g>
    <g clip-path="url(#pc1cb393a48)">
     <use style="fill:#29798e;stroke:#29798e;" x="89.927103" xlink:href="#C0_0_bc2f4eb3ed" y="165.935257"/>
    </g>
    <g clip-path="url(#pc1cb393a48)">
     <use style="fill:#4cc26c;stroke:#4cc26c;" x="273.732593" xlink:href="#C0_0_bc2f4eb3ed" y="136.279249"/>
    </g>
    <g clip-path="url(#pc1cb393a48)">
     <use style="fill:#2e6d8e;stroke:#2e6d8e;" x="271.947299" xlink:href="#C0_0_bc2f4eb3ed" y="94.15722"/>
    </g>
    <g clip-path="url(#pc1cb393a48)">
     <use style="fill:#bddf26;stroke:#bddf26;" x="384.587115" xlink:href="#C0_0_bc2f4eb3ed" y="255.931965"/>
    </g>
    <g clip-path="url(#pc1cb393a48)">
     <use style="fill:#34608d;stroke:#34608d;" x="275.046613" xlink:href="#C0_0_bc2f4eb3ed" y="86.52725"/>
    </g>
    <g clip-path="url(#pc1cb393a48)">
     <use style="fill:#2eb37c;stroke:#2eb37c;" x="182.907305" xlink:href="#C0_0_bc2f4eb3ed" y="202.806395"/>
    </g>
    <g clip-path="url(#pc1cb393a48)">
     <use style="fill:#238a8d;stroke:#238a8d;" x="156.795619" xlink:href="#C0_0_bc2f4eb3ed" y="210.576731"/>
    </g>
    <g clip-path="url(#pc1cb393a48)">
     <use style="fill:#481668;stroke:#481668;" x="70.527473" xlink:href="#C0_0_bc2f4eb3ed" y="30.630967"/>
    </g>
    <g clip-path="url(#pc1cb393a48)">
     <use style="fill:#481b6d;stroke:#481b6d;" x="322.683306" xlink:href="#C0_0_bc2f4eb3ed" y="88.583495"/>
    </g>
    <g clip-path="url(#pc1cb393a48)">
     <use style="fill:#40bd72;stroke:#40bd72;" x="119.290408" xlink:href="#C0_0_bc2f4eb3ed" y="145.349593"/>
    </g>
    <g clip-path="url(#pc1cb393a48)">
     <use style="fill:#2f6c8e;stroke:#2f6c8e;" x="198.476813" xlink:href="#C0_0_bc2f4eb3ed" y="80.704383"/>
    </g>
    <g clip-path="url(#pc1cb393a48)">
     <use style="fill:#3b518b;stroke:#3b518b;" x="77.048445" xlink:href="#C0_0_bc2f4eb3ed" y="63.290785"/>
    </g>
    <g clip-path="url(#pc1cb393a48)">
     <use style="fill:#365c8d;stroke:#365c8d;" x="62.911222" xlink:href="#C0_0_bc2f4eb3ed" y="70.60925"/>
    </g>
    <g clip-path="url(#pc1cb393a48)">
     <use style="fill:#25848e;stroke:#25848e;" x="451.20586" xlink:href="#C0_0_bc2f4eb3ed" y="298.207087"/>
    </g>
    <g clip-path="url(#pc1cb393a48)">
     <use style="fill:#2e6e8e;stroke:#2e6e8e;" x="77.098171" xlink:href="#C0_0_bc2f4eb3ed" y="153.540264"/>
    </g>
    <g clip-path="url(#pc1cb393a48)">
     <use style="fill:#98d83e;stroke:#98d83e;" x="402.393881" xlink:href="#C0_0_bc2f4eb3ed" y="225.595455"/>
    </g>
    <g clip-path="url(#pc1cb393a48)">
     <use style="fill:#3aba76;stroke:#3aba76;" x="368.443972" xlink:href="#C0_0_bc2f4eb3ed" y="200.843154"/>
    </g>
    <g clip-path="url(#pc1cb393a48)">
     <use style="fill:#bddf26;stroke:#bddf26;" x="253.068569" xlink:href="#C0_0_bc2f4eb3ed" y="145.992903"/>
    </g>
    <g clip-path="url(#pc1cb393a48)">
     <use style="fill:#9dd93b;stroke:#9dd93b;" x="348.549221" xlink:href="#C0_0_bc2f4eb3ed" y="210.217868"/>
    </g>
    <g clip-path="url(#pc1cb393a48)">
     <use style="fill:#90d743;stroke:#90d743;" x="347.207031" xlink:href="#C0_0_bc2f4eb3ed" y="226.792003"/>
    </g>
    <g clip-path="url(#pc1cb393a48)">
     <use style="fill:#31688e;stroke:#31688e;" x="169.906499" xlink:href="#C0_0_bc2f4eb3ed" y="226.8675"/>
    </g>
    <g clip-path="url(#pc1cb393a48)">
     <use style="fill:#20938c;stroke:#20938c;" x="281.682924" xlink:href="#C0_0_bc2f4eb3ed" y="217.361931"/>
    </g>
    <g clip-path="url(#pc1cb393a48)">
     <use style="fill:#32648e;stroke:#32648e;" x="390.318421" xlink:href="#C0_0_bc2f4eb3ed" y="297.653731"/>
    </g>
    <g clip-path="url(#pc1cb393a48)">
     <use style="fill:#2ab07f;stroke:#2ab07f;" x="463.021568" xlink:href="#C0_0_bc2f4eb3ed" y="273.99954"/>
    </g>
    <g clip-path="url(#pc1cb393a48)">
     <use style="fill:#440154;stroke:#440154;" x="379.593976" xlink:href="#C0_0_bc2f4eb3ed" y="318.534545"/>
    </g>
    <g clip-path="url(#pc1cb393a48)">
     <use style="fill:#98d83e;stroke:#98d83e;" x="429.077252" xlink:href="#C0_0_bc2f4eb3ed" y="270.776527"/>
    </g>
    <g clip-path="url(#pc1cb393a48)">
     <use style="fill:#1fa088;stroke:#1fa088;" x="468.729403" xlink:href="#C0_0_bc2f4eb3ed" y="279.960922"/>
    </g>
    <g clip-path="url(#pc1cb393a48)">
     <use style="fill:#2a788e;stroke:#2a788e;" x="235.017341" xlink:href="#C0_0_bc2f4eb3ed" y="246.537437"/>
    </g>
    <g clip-path="url(#pc1cb393a48)">
     <use style="fill:#52c569;stroke:#52c569;" x="306.85116" xlink:href="#C0_0_bc2f4eb3ed" y="166.937809"/>
    </g>
   </g>
   <g id="matplotlib.axis_1">
    <g id="xtick_1">
     <g id="line2d_1">
      <defs>
       <path d="M 0 0 
L 0 3.5 
" id="m373a14f27e" style="stroke:#000000;stroke-width:0.8;"/>
      </defs>
      <g>
       <use style="stroke:#000000;stroke-width:0.8;" x="56.728025" xlink:href="#m373a14f27e" y="333.36"/>
      </g>
     </g>
     <g id="text_1">
      <!-- −10 -->
      <g transform="translate(46.175681 347.958438)scale(0.1 -0.1)">
       <defs>
        <path d="M 678 2272 
L 4684 2272 
L 4684 1741 
L 678 1741 
L 678 2272 
z
" id="DejaVuSans-2212" transform="scale(0.015625)"/>
        <path d="M 794 531 
L 1825 531 
L 1825 4091 
L 703 3866 
L 703 4441 
L 1819 4666 
L 2450 4666 
L 2450 531 
L 3481 531 
L 3481 0 
L 794 0 
L 794 531 
z
" id="DejaVuSans-31" transform="scale(0.015625)"/>
        <path d="M 2034 4250 
Q 1547 4250 1301 3770 
Q 1056 3291 1056 2328 
Q 1056 1369 1301 889 
Q 1547 409 2034 409 
Q 2525 409 2770 889 
Q 3016 1369 3016 2328 
Q 3016 3291 2770 3770 
Q 2525 4250 2034 4250 
z
M 2034 4750 
Q 2819 4750 3233 4129 
Q 3647 3509 3647 2328 
Q 3647 1150 3233 529 
Q 2819 -91 2034 -91 
Q 1250 -91 836 529 
Q 422 1150 422 2328 
Q 422 3509 836 4129 
Q 1250 4750 2034 4750 
z
" id="DejaVuSans-30" transform="scale(0.015625)"/>
       </defs>
       <use xlink:href="#DejaVuSans-2212"/>
       <use x="83.789062" xlink:href="#DejaVuSans-31"/>
       <use x="147.412109" xlink:href="#DejaVuSans-30"/>
      </g>
     </g>
    </g>
    <g id="xtick_2">
     <g id="line2d_2">
      <g>
       <use style="stroke:#000000;stroke-width:0.8;" x="145.194061" xlink:href="#m373a14f27e" y="333.36"/>
      </g>
     </g>
     <g id="text_2">
      <!-- −5 -->
      <g transform="translate(137.822967 347.958438)scale(0.1 -0.1)">
       <defs>
        <path d="M 691 4666 
L 3169 4666 
L 3169 4134 
L 1269 4134 
L 1269 2991 
Q 1406 3038 1543 3061 
Q 1681 3084 1819 3084 
Q 2600 3084 3056 2656 
Q 3513 2228 3513 1497 
Q 3513 744 3044 326 
Q 2575 -91 1722 -91 
Q 1428 -91 1123 -41 
Q 819 9 494 109 
L 494 744 
Q 775 591 1075 516 
Q 1375 441 1709 441 
Q 2250 441 2565 725 
Q 2881 1009 2881 1497 
Q 2881 1984 2565 2268 
Q 2250 2553 1709 2553 
Q 1456 2553 1204 2497 
Q 953 2441 691 2322 
L 691 4666 
z
" id="DejaVuSans-35" transform="scale(0.015625)"/>
       </defs>
       <use xlink:href="#DejaVuSans-2212"/>
       <use x="83.789062" xlink:href="#DejaVuSans-35"/>
      </g>
     </g>
    </g>
    <g id="xtick_3">
     <g id="line2d_3">
      <g>
       <use style="stroke:#000000;stroke-width:0.8;" x="233.660097" xlink:href="#m373a14f27e" y="333.36"/>
      </g>
     </g>
     <g id="text_3">
      <!-- 0 -->
      <g transform="translate(230.478847 347.958438)scale(0.1 -0.1)">
       <use xlink:href="#DejaVuSans-30"/>
      </g>
     </g>
    </g>
    <g id="xtick_4">
     <g id="line2d_4">
      <g>
       <use style="stroke:#000000;stroke-width:0.8;" x="322.126133" xlink:href="#m373a14f27e" y="333.36"/>
      </g>
     </g>
     <g id="text_4">
      <!-- 5 -->
      <g transform="translate(318.944883 347.958438)scale(0.1 -0.1)">
       <use xlink:href="#DejaVuSans-35"/>
      </g>
     </g>
    </g>
    <g id="xtick_5">
     <g id="line2d_5">
      <g>
       <use style="stroke:#000000;stroke-width:0.8;" x="410.592169" xlink:href="#m373a14f27e" y="333.36"/>
      </g>
     </g>
     <g id="text_5">
      <!-- 10 -->
      <g transform="translate(404.229669 347.958438)scale(0.1 -0.1)">
       <use xlink:href="#DejaVuSans-31"/>
       <use x="63.623047" xlink:href="#DejaVuSans-30"/>
      </g>
     </g>
    </g>
    <g id="text_6">
     <!-- Component 0 [-] -->
     <g transform="translate(224.726562 361.636562)scale(0.1 -0.1)">
      <defs>
       <path d="M 4122 4306 
L 4122 3641 
Q 3803 3938 3442 4084 
Q 3081 4231 2675 4231 
Q 1875 4231 1450 3742 
Q 1025 3253 1025 2328 
Q 1025 1406 1450 917 
Q 1875 428 2675 428 
Q 3081 428 3442 575 
Q 3803 722 4122 1019 
L 4122 359 
Q 3791 134 3420 21 
Q 3050 -91 2638 -91 
Q 1578 -91 968 557 
Q 359 1206 359 2328 
Q 359 3453 968 4101 
Q 1578 4750 2638 4750 
Q 3056 4750 3426 4639 
Q 3797 4528 4122 4306 
z
" id="DejaVuSans-43" transform="scale(0.015625)"/>
       <path d="M 1959 3097 
Q 1497 3097 1228 2736 
Q 959 2375 959 1747 
Q 959 1119 1226 758 
Q 1494 397 1959 397 
Q 2419 397 2687 759 
Q 2956 1122 2956 1747 
Q 2956 2369 2687 2733 
Q 2419 3097 1959 3097 
z
M 1959 3584 
Q 2709 3584 3137 3096 
Q 3566 2609 3566 1747 
Q 3566 888 3137 398 
Q 2709 -91 1959 -91 
Q 1206 -91 779 398 
Q 353 888 353 1747 
Q 353 2609 779 3096 
Q 1206 3584 1959 3584 
z
" id="DejaVuSans-6f" transform="scale(0.015625)"/>
       <path d="M 3328 2828 
Q 3544 3216 3844 3400 
Q 4144 3584 4550 3584 
Q 5097 3584 5394 3201 
Q 5691 2819 5691 2113 
L 5691 0 
L 5113 0 
L 5113 2094 
Q 5113 2597 4934 2840 
Q 4756 3084 4391 3084 
Q 3944 3084 3684 2787 
Q 3425 2491 3425 1978 
L 3425 0 
L 2847 0 
L 2847 2094 
Q 2847 2600 2669 2842 
Q 2491 3084 2119 3084 
Q 1678 3084 1418 2786 
Q 1159 2488 1159 1978 
L 1159 0 
L 581 0 
L 581 3500 
L 1159 3500 
L 1159 2956 
Q 1356 3278 1631 3431 
Q 1906 3584 2284 3584 
Q 2666 3584 2933 3390 
Q 3200 3197 3328 2828 
z
" id="DejaVuSans-6d" transform="scale(0.015625)"/>
       <path d="M 1159 525 
L 1159 -1331 
L 581 -1331 
L 581 3500 
L 1159 3500 
L 1159 2969 
Q 1341 3281 1617 3432 
Q 1894 3584 2278 3584 
Q 2916 3584 3314 3078 
Q 3713 2572 3713 1747 
Q 3713 922 3314 415 
Q 2916 -91 2278 -91 
Q 1894 -91 1617 61 
Q 1341 213 1159 525 
z
M 3116 1747 
Q 3116 2381 2855 2742 
Q 2594 3103 2138 3103 
Q 1681 3103 1420 2742 
Q 1159 2381 1159 1747 
Q 1159 1113 1420 752 
Q 1681 391 2138 391 
Q 2594 391 2855 752 
Q 3116 1113 3116 1747 
z
" id="DejaVuSans-70" transform="scale(0.015625)"/>
       <path d="M 3513 2113 
L 3513 0 
L 2938 0 
L 2938 2094 
Q 2938 2591 2744 2837 
Q 2550 3084 2163 3084 
Q 1697 3084 1428 2787 
Q 1159 2491 1159 1978 
L 1159 0 
L 581 0 
L 581 3500 
L 1159 3500 
L 1159 2956 
Q 1366 3272 1645 3428 
Q 1925 3584 2291 3584 
Q 2894 3584 3203 3211 
Q 3513 2838 3513 2113 
z
" id="DejaVuSans-6e" transform="scale(0.015625)"/>
       <path d="M 3597 1894 
L 3597 1613 
L 953 1613 
Q 991 1019 1311 708 
Q 1631 397 2203 397 
Q 2534 397 2845 478 
Q 3156 559 3463 722 
L 3463 178 
Q 3153 47 2828 -22 
Q 2503 -91 2169 -91 
Q 1331 -91 842 396 
Q 353 884 353 1716 
Q 353 2575 817 3079 
Q 1281 3584 2069 3584 
Q 2775 3584 3186 3129 
Q 3597 2675 3597 1894 
z
M 3022 2063 
Q 3016 2534 2758 2815 
Q 2500 3097 2075 3097 
Q 1594 3097 1305 2825 
Q 1016 2553 972 2059 
L 3022 2063 
z
" id="DejaVuSans-65" transform="scale(0.015625)"/>
       <path d="M 1172 4494 
L 1172 3500 
L 2356 3500 
L 2356 3053 
L 1172 3053 
L 1172 1153 
Q 1172 725 1289 603 
Q 1406 481 1766 481 
L 2356 481 
L 2356 0 
L 1766 0 
Q 1100 0 847 248 
Q 594 497 594 1153 
L 594 3053 
L 172 3053 
L 172 3500 
L 594 3500 
L 594 4494 
L 1172 4494 
z
" id="DejaVuSans-74" transform="scale(0.015625)"/>
       <path id="DejaVuSans-20" transform="scale(0.015625)"/>
       <path d="M 550 4863 
L 1875 4863 
L 1875 4416 
L 1125 4416 
L 1125 -397 
L 1875 -397 
L 1875 -844 
L 550 -844 
L 550 4863 
z
" id="DejaVuSans-5b" transform="scale(0.015625)"/>
       <path d="M 313 2009 
L 1997 2009 
L 1997 1497 
L 313 1497 
L 313 2009 
z
" id="DejaVuSans-2d" transform="scale(0.015625)"/>
       <path d="M 1947 4863 
L 1947 -844 
L 622 -844 
L 622 -397 
L 1369 -397 
L 1369 4416 
L 622 4416 
L 622 4863 
L 1947 4863 
z
" id="DejaVuSans-5d" transform="scale(0.015625)"/>
      </defs>
      <use xlink:href="#DejaVuSans-43"/>
      <use x="69.824219" xlink:href="#DejaVuSans-6f"/>
      <use x="131.005859" xlink:href="#DejaVuSans-6d"/>
      <use x="228.417969" xlink:href="#DejaVuSans-70"/>
      <use x="291.894531" xlink:href="#DejaVuSans-6f"/>
      <use x="353.076172" xlink:href="#DejaVuSans-6e"/>
      <use x="416.455078" xlink:href="#DejaVuSans-65"/>
      <use x="477.978516" xlink:href="#DejaVuSans-6e"/>
      <use x="541.357422" xlink:href="#DejaVuSans-74"/>
      <use x="580.566406" xlink:href="#DejaVuSans-20"/>
      <use x="612.353516" xlink:href="#DejaVuSans-30"/>
      <use x="675.976562" xlink:href="#DejaVuSans-20"/>
      <use x="707.763672" xlink:href="#DejaVuSans-5b"/>
      <use x="746.777344" xlink:href="#DejaVuSans-2d"/>
      <use x="782.861328" xlink:href="#DejaVuSans-5d"/>
     </g>
    </g>
   </g>
   <g id="matplotlib.axis_2">
    <g id="ytick_1">
     <g id="line2d_6">
      <defs>
       <path d="M 0 0 
L -3.5 0 
" id="mfb493efab0" style="stroke:#000000;stroke-width:0.8;"/>
      </defs>
      <g>
       <use style="stroke:#000000;stroke-width:0.8;" x="42.620312" xlink:href="#mfb493efab0" y="304.002832"/>
      </g>
     </g>
     <g id="text_7">
      <!-- −6 -->
      <g transform="translate(20.878125 307.80205)scale(0.1 -0.1)">
       <defs>
        <path d="M 2113 2584 
Q 1688 2584 1439 2293 
Q 1191 2003 1191 1497 
Q 1191 994 1439 701 
Q 1688 409 2113 409 
Q 2538 409 2786 701 
Q 3034 994 3034 1497 
Q 3034 2003 2786 2293 
Q 2538 2584 2113 2584 
z
M 3366 4563 
L 3366 3988 
Q 3128 4100 2886 4159 
Q 2644 4219 2406 4219 
Q 1781 4219 1451 3797 
Q 1122 3375 1075 2522 
Q 1259 2794 1537 2939 
Q 1816 3084 2150 3084 
Q 2853 3084 3261 2657 
Q 3669 2231 3669 1497 
Q 3669 778 3244 343 
Q 2819 -91 2113 -91 
Q 1303 -91 875 529 
Q 447 1150 447 2328 
Q 447 3434 972 4092 
Q 1497 4750 2381 4750 
Q 2619 4750 2861 4703 
Q 3103 4656 3366 4563 
z
" id="DejaVuSans-36" transform="scale(0.015625)"/>
       </defs>
       <use xlink:href="#DejaVuSans-2212"/>
       <use x="83.789062" xlink:href="#DejaVuSans-36"/>
      </g>
     </g>
    </g>
    <g id="ytick_2">
     <g id="line2d_7">
      <g>
       <use style="stroke:#000000;stroke-width:0.8;" x="42.620312" xlink:href="#mfb493efab0" y="246.329683"/>
      </g>
     </g>
     <g id="text_8">
      <!-- −4 -->
      <g transform="translate(20.878125 250.128902)scale(0.1 -0.1)">
       <defs>
        <path d="M 2419 4116 
L 825 1625 
L 2419 1625 
L 2419 4116 
z
M 2253 4666 
L 3047 4666 
L 3047 1625 
L 3713 1625 
L 3713 1100 
L 3047 1100 
L 3047 0 
L 2419 0 
L 2419 1100 
L 313 1100 
L 313 1709 
L 2253 4666 
z
" id="DejaVuSans-34" transform="scale(0.015625)"/>
       </defs>
       <use xlink:href="#DejaVuSans-2212"/>
       <use x="83.789062" xlink:href="#DejaVuSans-34"/>
      </g>
     </g>
    </g>
    <g id="ytick_3">
     <g id="line2d_8">
      <g>
       <use style="stroke:#000000;stroke-width:0.8;" x="42.620312" xlink:href="#mfb493efab0" y="188.656535"/>
      </g>
     </g>
     <g id="text_9">
      <!-- −2 -->
      <g transform="translate(20.878125 192.455754)scale(0.1 -0.1)">
       <defs>
        <path d="M 1228 531 
L 3431 531 
L 3431 0 
L 469 0 
L 469 531 
Q 828 903 1448 1529 
Q 2069 2156 2228 2338 
Q 2531 2678 2651 2914 
Q 2772 3150 2772 3378 
Q 2772 3750 2511 3984 
Q 2250 4219 1831 4219 
Q 1534 4219 1204 4116 
Q 875 4013 500 3803 
L 500 4441 
Q 881 4594 1212 4672 
Q 1544 4750 1819 4750 
Q 2544 4750 2975 4387 
Q 3406 4025 3406 3419 
Q 3406 3131 3298 2873 
Q 3191 2616 2906 2266 
Q 2828 2175 2409 1742 
Q 1991 1309 1228 531 
z
" id="DejaVuSans-32" transform="scale(0.015625)"/>
       </defs>
       <use xlink:href="#DejaVuSans-2212"/>
       <use x="83.789062" xlink:href="#DejaVuSans-32"/>
      </g>
     </g>
    </g>
    <g id="ytick_4">
     <g id="line2d_9">
      <g>
       <use style="stroke:#000000;stroke-width:0.8;" x="42.620312" xlink:href="#mfb493efab0" y="130.983387"/>
      </g>
     </g>
     <g id="text_10">
      <!-- 0 -->
      <g transform="translate(29.257812 134.782605)scale(0.1 -0.1)">
       <use xlink:href="#DejaVuSans-30"/>
      </g>
     </g>
    </g>
    <g id="ytick_5">
     <g id="line2d_10">
      <g>
       <use style="stroke:#000000;stroke-width:0.8;" x="42.620312" xlink:href="#mfb493efab0" y="73.310238"/>
      </g>
     </g>
     <g id="text_11">
      <!-- 2 -->
      <g transform="translate(29.257812 77.109457)scale(0.1 -0.1)">
       <use xlink:href="#DejaVuSans-32"/>
      </g>
     </g>
    </g>
    <g id="ytick_6">
     <g id="line2d_11">
      <g>
       <use style="stroke:#000000;stroke-width:0.8;" x="42.620312" xlink:href="#mfb493efab0" y="15.63709"/>
      </g>
     </g>
     <g id="text_12">
      <!-- 4 -->
      <g transform="translate(29.257812 19.436309)scale(0.1 -0.1)">
       <use xlink:href="#DejaVuSans-34"/>
      </g>
     </g>
    </g>
    <g id="text_13">
     <!-- Component 1 [-] -->
     <g transform="translate(14.798437 211.37375)rotate(-90)scale(0.1 -0.1)">
      <use xlink:href="#DejaVuSans-43"/>
      <use x="69.824219" xlink:href="#DejaVuSans-6f"/>
      <use x="131.005859" xlink:href="#DejaVuSans-6d"/>
      <use x="228.417969" xlink:href="#DejaVuSans-70"/>
      <use x="291.894531" xlink:href="#DejaVuSans-6f"/>
      <use x="353.076172" xlink:href="#DejaVuSans-6e"/>
      <use x="416.455078" xlink:href="#DejaVuSans-65"/>
      <use x="477.978516" xlink:href="#DejaVuSans-6e"/>
      <use x="541.357422" xlink:href="#DejaVuSans-74"/>
      <use x="580.566406" xlink:href="#DejaVuSans-20"/>
      <use x="612.353516" xlink:href="#DejaVuSans-31"/>
      <use x="675.976562" xlink:href="#DejaVuSans-20"/>
      <use x="707.763672" xlink:href="#DejaVuSans-5b"/>
      <use x="746.777344" xlink:href="#DejaVuSans-2d"/>
      <use x="782.861328" xlink:href="#DejaVuSans-5d"/>
     </g>
    </g>
   </g>
   <g id="patch_3">
    <path d="M 42.620312 333.36 
L 42.620312 7.2 
" style="fill:none;stroke:#000000;stroke-linecap:square;stroke-linejoin:miter;stroke-width:0.8;"/>
   </g>
   <g id="patch_4">
    <path d="M 489.020312 333.36 
L 489.020312 7.2 
" style="fill:none;stroke:#000000;stroke-linecap:square;stroke-linejoin:miter;stroke-width:0.8;"/>
   </g>
   <g id="patch_5">
    <path d="M 42.620312 333.36 
L 489.020312 333.36 
" style="fill:none;stroke:#000000;stroke-linecap:square;stroke-linejoin:miter;stroke-width:0.8;"/>
   </g>
   <g id="patch_6">
    <path d="M 42.620312 7.2 
L 489.020312 7.2 
" style="fill:none;stroke:#000000;stroke-linecap:square;stroke-linejoin:miter;stroke-width:0.8;"/>
   </g>
  </g>
 </g>
 <defs>
  <clipPath id="pc1cb393a48">
   <rect height="326.16" width="446.4" x="42.620312" y="7.2"/>
  </clipPath>
 </defs>
</svg>
