<?xml version="1.0" encoding="utf-8" standalone="no"?>
<!DOCTYPE svg PUBLIC "-//W3C//DTD SVG 1.1//EN"
  "http://www.w3.org/Graphics/SVG/1.1/DTD/svg11.dtd">
<svg height="370.91625pt" version="1.1" viewBox="0 0 496.220312 370.91625" width="496.220312pt" xmlns="http://www.w3.org/2000/svg" xmlns:xlink="http://www.w3.org/1999/xlink">
 <metadata>
  <rdf:RDF xmlns:cc="http://creativecommons.org/ns#" xmlns:dc="http://purl.org/dc/elements/1.1/" xmlns:rdf="http://www.w3.org/1999/02/22-rdf-syntax-ns#">
   <cc:Work>
    <dc:type rdf:resource="http://purl.org/dc/dcmitype/StillImage"/>
    <dc:date>2021-05-25T16:25:03.143943</dc:date>
    <dc:format>image/svg+xml</dc:format>
    <dc:creator>
     <cc:Agent>
      <dc:title>Matplotlib v3.4.1, https://matplotlib.org/</dc:title>
     </cc:Agent>
    </dc:creator>
   </cc:Work>
  </rdf:RDF>
 </metadata>
 <defs>
  <style type="text/css">*{stroke-linecap:butt;stroke-linejoin:round;}</style>
 </defs>
 <g id="figure_1">
  <g id="patch_1">
   <path d="M 0 370.91625 
L 496.220312 370.91625 
L 496.220312 0 
L 0 0 
z
" style="fill:none;"/>
  </g>
  <g id="axes_1">
   <g id="patch_2">
    <path d="M 42.620312 333.36 
L 489.020312 333.36 
L 489.020312 7.2 
L 42.620312 7.2 
z
" style="fill:#ffffff;"/>
   </g>
   <g id="PathCollection_1">
    <defs>
     <path d="M 0 5 
C 1.326016 5 2.597899 4.473168 3.535534 3.535534 
C 4.473168 2.597899 5 1.326016 5 -0 
C 5 -1.326016 4.473168 -2.597899 3.535534 -3.535534 
C 2.597899 -4.473168 1.326016 -5 0 -5 
C -1.326016 -5 -2.597899 -4.473168 -3.535534 -3.535534 
C -4.473168 -2.597899 -5 -1.326016 -5 0 
C -5 1.326016 -4.473168 2.597899 -3.535534 3.535534 
C -2.597899 4.473168 -1.326016 5 0 5 
z
" id="C0_0_1edb37cd56"/>
    </defs>
    <g clip-path="url(#p31ea6316ab)">
     <use style="fill:#3e4c8a;stroke:#3e4c8a;" x="286.141673" xlink:href="#C0_0_1edb37cd56" y="132.007366"/>
    </g>
    <g clip-path="url(#p31ea6316ab)">
     <use style="fill:#1f9f88;stroke:#1f9f88;" x="73.41669" xlink:href="#C0_0_1edb37cd56" y="318.534545"/>
    </g>
    <g clip-path="url(#p31ea6316ab)">
     <use style="fill:#1f9f88;stroke:#1f9f88;" x="339.359938" xlink:href="#C0_0_1edb37cd56" y="131.26007"/>
    </g>
    <g clip-path="url(#p31ea6316ab)">
     <use style="fill:#2ab07f;stroke:#2ab07f;" x="426.582718" xlink:href="#C0_0_1edb37cd56" y="37.679676"/>
    </g>
    <g clip-path="url(#p31ea6316ab)">
     <use style="fill:#b8de29;stroke:#b8de29;" x="419.809968" xlink:href="#C0_0_1edb37cd56" y="49.228648"/>
    </g>
    <g clip-path="url(#p31ea6316ab)">
     <use style="fill:#f8e621;stroke:#f8e621;" x="391.901775" xlink:href="#C0_0_1edb37cd56" y="77.257622"/>
    </g>
    <g clip-path="url(#p31ea6316ab)">
     <use style="fill:#46085c;stroke:#46085c;" x="382.585859" xlink:href="#C0_0_1edb37cd56" y="33.02896"/>
    </g>
    <g clip-path="url(#p31ea6316ab)">
     <use style="fill:#34608d;stroke:#34608d;" x="424.80396" xlink:href="#C0_0_1edb37cd56" y="29.271924"/>
    </g>
    <g clip-path="url(#p31ea6316ab)">
     <use style="fill:#fde725;stroke:#fde725;" x="405.506077" xlink:href="#C0_0_1edb37cd56" y="63.795025"/>
    </g>
    <g clip-path="url(#p31ea6316ab)">
     <use style="fill:#25ab82;stroke:#25ab82;" x="316.063695" xlink:href="#C0_0_1edb37cd56" y="145.241354"/>
    </g>
    <g clip-path="url(#p31ea6316ab)">
     <use style="fill:#3b518b;stroke:#3b518b;" x="314.921967" xlink:href="#C0_0_1edb37cd56" y="107.691606"/>
    </g>
    <g clip-path="url(#p31ea6316ab)">
     <use style="fill:#23888e;stroke:#23888e;" x="128.517764" xlink:href="#C0_0_1edb37cd56" y="243.674632"/>
    </g>
    <g clip-path="url(#p31ea6316ab)">
     <use style="fill:#e7e419;stroke:#e7e419;" x="386.151906" xlink:href="#C0_0_1edb37cd56" y="82.787493"/>
    </g>
    <g clip-path="url(#p31ea6316ab)">
     <use style="fill:#6ccd5a;stroke:#6ccd5a;" x="140.499549" xlink:href="#C0_0_1edb37cd56" y="249.048713"/>
    </g>
    <g clip-path="url(#p31ea6316ab)">
     <use style="fill:#470e61;stroke:#470e61;" x="268.161184" xlink:href="#C0_0_1edb37cd56" y="90.919623"/>
    </g>
    <g clip-path="url(#p31ea6316ab)">
     <use style="fill:#30698e;stroke:#30698e;" x="111.994602" xlink:href="#C0_0_1edb37cd56" y="250.127409"/>
    </g>
    <g clip-path="url(#p31ea6316ab)">
     <use style="fill:#32658e;stroke:#32658e;" x="468.729403" xlink:href="#C0_0_1edb37cd56" y="38.782516"/>
    </g>
    <g clip-path="url(#p31ea6316ab)">
     <use style="fill:#4ac16d;stroke:#4ac16d;" x="461.883444" xlink:href="#C0_0_1edb37cd56" y="30.21456"/>
    </g>
    <g clip-path="url(#p31ea6316ab)">
     <use style="fill:#481a6c;stroke:#481a6c;" x="402.319512" xlink:href="#C0_0_1edb37cd56" y="28.043807"/>
    </g>
    <g clip-path="url(#p31ea6316ab)">
     <use style="fill:#21a685;stroke:#21a685;" x="447.644067" xlink:href="#C0_0_1edb37cd56" y="24.713623"/>
    </g>
    <g clip-path="url(#p31ea6316ab)">
     <use style="fill:#fde725;stroke:#fde725;" x="402.164736" xlink:href="#C0_0_1edb37cd56" y="71.972687"/>
    </g>
    <g clip-path="url(#p31ea6316ab)">
     <use style="fill:#472a7a;stroke:#472a7a;" x="279.955314" xlink:href="#C0_0_1edb37cd56" y="86.324371"/>
    </g>
    <g clip-path="url(#p31ea6316ab)">
     <use style="fill:#d2e21b;stroke:#d2e21b;" x="385.327162" xlink:href="#C0_0_1edb37cd56" y="76.63148"/>
    </g>
    <g clip-path="url(#p31ea6316ab)">
     <use style="fill:#e2e418;stroke:#e2e418;" x="416.73417" xlink:href="#C0_0_1edb37cd56" y="64.104751"/>
    </g>
    <g clip-path="url(#p31ea6316ab)">
     <use style="fill:#37b878;stroke:#37b878;" x="133.525829" xlink:href="#C0_0_1edb37cd56" y="276.544027"/>
    </g>
    <g clip-path="url(#p31ea6316ab)">
     <use style="fill:#48186a;stroke:#48186a;" x="334.872465" xlink:href="#C0_0_1edb37cd56" y="180.931869"/>
    </g>
    <g clip-path="url(#p31ea6316ab)">
     <use style="fill:#3f4788;stroke:#3f4788;" x="313.850043" xlink:href="#C0_0_1edb37cd56" y="104.862492"/>
    </g>
    <g clip-path="url(#p31ea6316ab)">
     <use style="fill:#2a788e;stroke:#2a788e;" x="315.658454" xlink:href="#C0_0_1edb37cd56" y="160.868445"/>
    </g>
    <g clip-path="url(#p31ea6316ab)">
     <use style="fill:#98d83e;stroke:#98d83e;" x="434.309384" xlink:href="#C0_0_1edb37cd56" y="54.058696"/>
    </g>
    <g clip-path="url(#p31ea6316ab)">
     <use style="fill:#8bd646;stroke:#8bd646;" x="444.798788" xlink:href="#C0_0_1edb37cd56" y="44.816443"/>
    </g>
    <g clip-path="url(#p31ea6316ab)">
     <use style="fill:#2c738e;stroke:#2c738e;" x="258.969735" xlink:href="#C0_0_1edb37cd56" y="190.463468"/>
    </g>
    <g clip-path="url(#p31ea6316ab)">
     <use style="fill:#471164;stroke:#471164;" x="397.038757" xlink:href="#C0_0_1edb37cd56" y="28.219597"/>
    </g>
    <g clip-path="url(#p31ea6316ab)">
     <use style="fill:#6ccd5a;stroke:#6ccd5a;" x="408.38813" xlink:href="#C0_0_1edb37cd56" y="75.816827"/>
    </g>
    <g clip-path="url(#p31ea6316ab)">
     <use style="fill:#e2e418;stroke:#e2e418;" x="426.924207" xlink:href="#C0_0_1edb37cd56" y="47.979264"/>
    </g>
    <g clip-path="url(#p31ea6316ab)">
     <use style="fill:#25ac82;stroke:#25ac82;" x="454.323557" xlink:href="#C0_0_1edb37cd56" y="43.398324"/>
    </g>
    <g clip-path="url(#p31ea6316ab)">
     <use style="fill:#4ac16d;stroke:#4ac16d;" x="433.048489" xlink:href="#C0_0_1edb37cd56" y="35.920803"/>
    </g>
    <g clip-path="url(#p31ea6316ab)">
     <use style="fill:#453781;stroke:#453781;" x="278.636006" xlink:href="#C0_0_1edb37cd56" y="207.577081"/>
    </g>
    <g clip-path="url(#p31ea6316ab)">
     <use style="fill:#1f948c;stroke:#1f948c;" x="81.185567" xlink:href="#C0_0_1edb37cd56" y="278.592028"/>
    </g>
    <g clip-path="url(#p31ea6316ab)">
     <use style="fill:#1f998a;stroke:#1f998a;" x="440.508414" xlink:href="#C0_0_1edb37cd56" y="57.092023"/>
    </g>
    <g clip-path="url(#p31ea6316ab)">
     <use style="fill:#23898e;stroke:#23898e;" x="289.681791" xlink:href="#C0_0_1edb37cd56" y="143.3642"/>
    </g>
    <g clip-path="url(#p31ea6316ab)">
     <use style="fill:#3a548c;stroke:#3a548c;" x="341.70506" xlink:href="#C0_0_1edb37cd56" y="154.180431"/>
    </g>
    <g clip-path="url(#p31ea6316ab)">
     <use style="fill:#404588;stroke:#404588;" x="340.457744" xlink:href="#C0_0_1edb37cd56" y="166.735335"/>
    </g>
    <g clip-path="url(#p31ea6316ab)">
     <use style="fill:#21918c;stroke:#21918c;" x="328.966181" xlink:href="#C0_0_1edb37cd56" y="142.697563"/>
    </g>
    <g clip-path="url(#p31ea6316ab)">
     <use style="fill:#33638d;stroke:#33638d;" x="301.508402" xlink:href="#C0_0_1edb37cd56" y="180.650912"/>
    </g>
    <g clip-path="url(#p31ea6316ab)">
     <use style="fill:#67cc5c;stroke:#67cc5c;" x="148.033776" xlink:href="#C0_0_1edb37cd56" y="259.823744"/>
    </g>
    <g clip-path="url(#p31ea6316ab)">
     <use style="fill:#4cc26c;stroke:#4cc26c;" x="156.924094" xlink:href="#C0_0_1edb37cd56" y="252.443884"/>
    </g>
    <g clip-path="url(#p31ea6316ab)">
     <use style="fill:#44bf70;stroke:#44bf70;" x="322.342994" xlink:href="#C0_0_1edb37cd56" y="128.666182"/>
    </g>
    <g clip-path="url(#p31ea6316ab)">
     <use style="fill:#375a8c;stroke:#375a8c;" x="257.91143" xlink:href="#C0_0_1edb37cd56" y="115.086036"/>
    </g>
    <g clip-path="url(#p31ea6316ab)">
     <use style="fill:#d8e219;stroke:#d8e219;" x="396.824917" xlink:href="#C0_0_1edb37cd56" y="78.533296"/>
    </g>
    <g clip-path="url(#p31ea6316ab)">
     <use style="fill:#3a538b;stroke:#3a538b;" x="267.125565" xlink:href="#C0_0_1edb37cd56" y="151.979383"/>
    </g>
    <g clip-path="url(#p31ea6316ab)">
     <use style="fill:#3e4a89;stroke:#3e4a89;" x="353.211032" xlink:href="#C0_0_1edb37cd56" y="142.330661"/>
    </g>
    <g clip-path="url(#p31ea6316ab)">
     <use style="fill:#355e8d;stroke:#355e8d;" x="279.967525" xlink:href="#C0_0_1edb37cd56" y="96.977289"/>
    </g>
    <g clip-path="url(#p31ea6316ab)">
     <use style="fill:#32b67a;stroke:#32b67a;" x="307.593406" xlink:href="#C0_0_1edb37cd56" y="142.62169"/>
    </g>
    <g clip-path="url(#p31ea6316ab)">
     <use style="fill:#bddf26;stroke:#bddf26;" x="88.558113" xlink:href="#C0_0_1edb37cd56" y="297.355523"/>
    </g>
    <g clip-path="url(#p31ea6316ab)">
     <use style="fill:#86d549;stroke:#86d549;" x="119.708095" xlink:href="#C0_0_1edb37cd56" y="260.673446"/>
    </g>
    <g clip-path="url(#p31ea6316ab)">
     <use style="fill:#ece51b;stroke:#ece51b;" x="103.151737" xlink:href="#C0_0_1edb37cd56" y="286.434593"/>
    </g>
    <g clip-path="url(#p31ea6316ab)">
     <use style="fill:#46327e;stroke:#46327e;" x="269.292282" xlink:href="#C0_0_1edb37cd56" y="140.009738"/>
    </g>
    <g clip-path="url(#p31ea6316ab)">
     <use style="fill:#33628d;stroke:#33628d;" x="266.446321" xlink:href="#C0_0_1edb37cd56" y="114.495667"/>
    </g>
    <g clip-path="url(#p31ea6316ab)">
     <use style="fill:#29798e;stroke:#29798e;" x="104.706437" xlink:href="#C0_0_1edb37cd56" y="256.987599"/>
    </g>
    <g clip-path="url(#p31ea6316ab)">
     <use style="fill:#218f8d;stroke:#218f8d;" x="301.759525" xlink:href="#C0_0_1edb37cd56" y="162.942921"/>
    </g>
    <g clip-path="url(#p31ea6316ab)">
     <use style="fill:#2db27d;stroke:#2db27d;" x="446.997496" xlink:href="#C0_0_1edb37cd56" y="26.614093"/>
    </g>
    <g clip-path="url(#p31ea6316ab)">
     <use style="fill:#3f4889;stroke:#3f4889;" x="326.562082" xlink:href="#C0_0_1edb37cd56" y="177.868678"/>
    </g>
    <g clip-path="url(#p31ea6316ab)">
     <use style="fill:#433e85;stroke:#433e85;" x="308.04666" xlink:href="#C0_0_1edb37cd56" y="192.671041"/>
    </g>
    <g clip-path="url(#p31ea6316ab)">
     <use style="fill:#46c06f;stroke:#46c06f;" x="76.779097" xlink:href="#C0_0_1edb37cd56" y="311.880493"/>
    </g>
    <g clip-path="url(#p31ea6316ab)">
     <use style="fill:#2d708e;stroke:#2d708e;" x="321.646636" xlink:href="#C0_0_1edb37cd56" y="159.732223"/>
    </g>
    <g clip-path="url(#p31ea6316ab)">
     <use style="fill:#365d8d;stroke:#365d8d;" x="96.781817" xlink:href="#C0_0_1edb37cd56" y="312.071264"/>
    </g>
    <g clip-path="url(#p31ea6316ab)">
     <use style="fill:#1f988b;stroke:#1f988b;" x="86.222107" xlink:href="#C0_0_1edb37cd56" y="312.773799"/>
    </g>
    <g clip-path="url(#p31ea6316ab)">
     <use style="fill:#6ccd5a;stroke:#6ccd5a;" x="74.483115" xlink:href="#C0_0_1edb37cd56" y="297.474482"/>
    </g>
    <g clip-path="url(#p31ea6316ab)">
     <use style="fill:#c8e020;stroke:#c8e020;" x="123.316235" xlink:href="#C0_0_1edb37cd56" y="276.189965"/>
    </g>
    <g clip-path="url(#p31ea6316ab)">
     <use style="fill:#46085c;stroke:#46085c;" x="347.521327" xlink:href="#C0_0_1edb37cd56" y="173.578185"/>
    </g>
    <g clip-path="url(#p31ea6316ab)">
     <use style="fill:#d8e219;stroke:#d8e219;" x="97.701514" xlink:href="#C0_0_1edb37cd56" y="282.958634"/>
    </g>
    <g clip-path="url(#p31ea6316ab)">
     <use style="fill:#23a983;stroke:#23a983;" x="173.759032" xlink:href="#C0_0_1edb37cd56" y="238.319666"/>
    </g>
    <g clip-path="url(#p31ea6316ab)">
     <use style="fill:#81d34d;stroke:#81d34d;" x="83.264426" xlink:href="#C0_0_1edb37cd56" y="304.779517"/>
    </g>
    <g clip-path="url(#p31ea6316ab)">
     <use style="fill:#37b878;stroke:#37b878;" x="336.800243" xlink:href="#C0_0_1edb37cd56" y="109.700179"/>
    </g>
    <g clip-path="url(#p31ea6316ab)">
     <use style="fill:#1fa188;stroke:#1fa188;" x="282.805797" xlink:href="#C0_0_1edb37cd56" y="159.003904"/>
    </g>
    <g clip-path="url(#p31ea6316ab)">
     <use style="fill:#35b779;stroke:#35b779;" x="124.377127" xlink:href="#C0_0_1edb37cd56" y="252.31946"/>
    </g>
    <g clip-path="url(#p31ea6316ab)">
     <use style="fill:#b8de29;stroke:#b8de29;" x="132.549395" xlink:href="#C0_0_1edb37cd56" y="269.038112"/>
    </g>
    <g clip-path="url(#p31ea6316ab)">
     <use style="fill:#424186;stroke:#424186;" x="240.528935" xlink:href="#C0_0_1edb37cd56" y="135.355492"/>
    </g>
    <g clip-path="url(#p31ea6316ab)">
     <use style="fill:#1fa287;stroke:#1fa287;" x="102.077129" xlink:href="#C0_0_1edb37cd56" y="301.964691"/>
    </g>
    <g clip-path="url(#p31ea6316ab)">
     <use style="fill:#4ac16d;stroke:#4ac16d;" x="107.199056" xlink:href="#C0_0_1edb37cd56" y="264.652047"/>
    </g>
    <g clip-path="url(#p31ea6316ab)">
     <use style="fill:#20928c;stroke:#20928c;" x="267.480643" xlink:href="#C0_0_1edb37cd56" y="171.534981"/>
    </g>
    <g clip-path="url(#p31ea6316ab)">
     <use style="fill:#21a585;stroke:#21a585;" x="287.239197" xlink:href="#C0_0_1edb37cd56" y="160.989553"/>
    </g>
    <g clip-path="url(#p31ea6316ab)">
     <use style="fill:#3a548c;stroke:#3a548c;" x="294.819996" xlink:href="#C0_0_1edb37cd56" y="85.327466"/>
    </g>
    <g clip-path="url(#p31ea6316ab)">
     <use style="fill:#26828e;stroke:#26828e;" x="270.513482" xlink:href="#C0_0_1edb37cd56" y="160.160427"/>
    </g>
    <g clip-path="url(#p31ea6316ab)">
     <use style="fill:#228b8d;stroke:#228b8d;" x="297.744424" xlink:href="#C0_0_1edb37cd56" y="166.377289"/>
    </g>
    <g clip-path="url(#p31ea6316ab)">
     <use style="fill:#3f4788;stroke:#3f4788;" x="265.196041" xlink:href="#C0_0_1edb37cd56" y="102.00041"/>
    </g>
    <g clip-path="url(#p31ea6316ab)">
     <use style="fill:#c0df25;stroke:#c0df25;" x="135.41693" xlink:href="#C0_0_1edb37cd56" y="259.222527"/>
    </g>
    <g clip-path="url(#p31ea6316ab)">
     <use style="fill:#24aa83;stroke:#24aa83;" x="103.445793" xlink:href="#C0_0_1edb37cd56" y="300.350242"/>
    </g>
    <g clip-path="url(#p31ea6316ab)">
     <use style="fill:#33628d;stroke:#33628d;" x="272.729586" xlink:href="#C0_0_1edb37cd56" y="112.426508"/>
    </g>
    <g clip-path="url(#p31ea6316ab)">
     <use style="fill:#3e4a89;stroke:#3e4a89;" x="273.209098" xlink:href="#C0_0_1edb37cd56" y="199.573007"/>
    </g>
    <g clip-path="url(#p31ea6316ab)">
     <use style="fill:#52c569;stroke:#52c569;" x="103.99508" xlink:href="#C0_0_1edb37cd56" y="267.39236"/>
    </g>
    <g clip-path="url(#p31ea6316ab)">
     <use style="fill:#1f9e89;stroke:#1f9e89;" x="62.941554" xlink:href="#C0_0_1edb37cd56" y="298.208092"/>
    </g>
    <g clip-path="url(#p31ea6316ab)">
     <use style="fill:#355e8d;stroke:#355e8d;" x="294.47918" xlink:href="#C0_0_1edb37cd56" y="100.538317"/>
    </g>
    <g clip-path="url(#p31ea6316ab)">
     <use style="fill:#c8e020;stroke:#c8e020;" x="438.039105" xlink:href="#C0_0_1edb37cd56" y="46.524865"/>
    </g>
    <g clip-path="url(#p31ea6316ab)">
     <use style="fill:#472f7d;stroke:#472f7d;" x="414.375753" xlink:href="#C0_0_1edb37cd56" y="27.678753"/>
    </g>
    <g clip-path="url(#p31ea6316ab)">
     <use style="fill:#25858e;stroke:#25858e;" x="282.119222" xlink:href="#C0_0_1edb37cd56" y="176.193336"/>
    </g>
    <g clip-path="url(#p31ea6316ab)">
     <use style="fill:#39568c;stroke:#39568c;" x="307.117916" xlink:href="#C0_0_1edb37cd56" y="93.544181"/>
    </g>
    <g clip-path="url(#p31ea6316ab)">
     <use style="fill:#f4e61e;stroke:#f4e61e;" x="114.231409" xlink:href="#C0_0_1edb37cd56" y="274.226524"/>
    </g>
    <g clip-path="url(#p31ea6316ab)">
     <use style="fill:#3a538b;stroke:#3a538b;" x="314.476137" xlink:href="#C0_0_1edb37cd56" y="87.473564"/>
    </g>
    <g clip-path="url(#p31ea6316ab)">
     <use style="fill:#2db27d;stroke:#2db27d;" x="364.655595" xlink:href="#C0_0_1edb37cd56" y="83.680493"/>
    </g>
    <g clip-path="url(#p31ea6316ab)">
     <use style="fill:#b8de29;stroke:#b8de29;" x="378.890518" xlink:href="#C0_0_1edb37cd56" y="80.649587"/>
    </g>
    <g clip-path="url(#p31ea6316ab)">
     <use style="fill:#1fa188;stroke:#1fa188;" x="466.905312" xlink:href="#C0_0_1edb37cd56" y="32.525715"/>
    </g>
    <g clip-path="url(#p31ea6316ab)">
     <use style="fill:#443a83;stroke:#443a83;" x="277.21089" xlink:href="#C0_0_1edb37cd56" y="206.493128"/>
    </g>
    <g clip-path="url(#p31ea6316ab)">
     <use style="fill:#f4e61e;stroke:#f4e61e;" x="418.717467" xlink:href="#C0_0_1edb37cd56" y="53.84231"/>
    </g>
    <g clip-path="url(#p31ea6316ab)">
     <use style="fill:#463480;stroke:#463480;" x="351.59094" xlink:href="#C0_0_1edb37cd56" y="160.97969"/>
    </g>
    <g clip-path="url(#p31ea6316ab)">
     <use style="fill:#1fa088;stroke:#1fa088;" x="458.094675" xlink:href="#C0_0_1edb37cd56" y="41.424181"/>
    </g>
    <g clip-path="url(#p31ea6316ab)">
     <use style="fill:#3fbc73;stroke:#3fbc73;" x="456.826399" xlink:href="#C0_0_1edb37cd56" y="24.425097"/>
    </g>
    <g clip-path="url(#p31ea6316ab)">
     <use style="fill:#20928c;stroke:#20928c;" x="65.901575" xlink:href="#C0_0_1edb37cd56" y="292.553162"/>
    </g>
    <g clip-path="url(#p31ea6316ab)">
     <use style="fill:#46307e;stroke:#46307e;" x="425.032796" xlink:href="#C0_0_1edb37cd56" y="22.025455"/>
    </g>
    <g clip-path="url(#p31ea6316ab)">
     <use style="fill:#31b57b;stroke:#31b57b;" x="115.088893" xlink:href="#C0_0_1edb37cd56" y="291.16618"/>
    </g>
    <g clip-path="url(#p31ea6316ab)">
     <use style="fill:#21a685;stroke:#21a685;" x="144.986182" xlink:href="#C0_0_1edb37cd56" y="269.150245"/>
    </g>
    <g clip-path="url(#p31ea6316ab)">
     <use style="fill:#24aa83;stroke:#24aa83;" x="294.317423" xlink:href="#C0_0_1edb37cd56" y="149.555719"/>
    </g>
    <g clip-path="url(#p31ea6316ab)">
     <use style="fill:#75d054;stroke:#75d054;" x="152.124021" xlink:href="#C0_0_1edb37cd56" y="250.031203"/>
    </g>
    <g clip-path="url(#p31ea6316ab)">
     <use style="fill:#5ac864;stroke:#5ac864;" x="144.666669" xlink:href="#C0_0_1edb37cd56" y="246.190865"/>
    </g>
    <g clip-path="url(#p31ea6316ab)">
     <use style="fill:#aadc32;stroke:#aadc32;" x="375.516307" xlink:href="#C0_0_1edb37cd56" y="82.651287"/>
    </g>
    <g clip-path="url(#p31ea6316ab)">
     <use style="fill:#3e4c8a;stroke:#3e4c8a;" x="253.219256" xlink:href="#C0_0_1edb37cd56" y="129.235972"/>
    </g>
    <g clip-path="url(#p31ea6316ab)">
     <use style="fill:#2d718e;stroke:#2d718e;" x="93.226526" xlink:href="#C0_0_1edb37cd56" y="264.315875"/>
    </g>
    <g clip-path="url(#p31ea6316ab)">
     <use style="fill:#52c569;stroke:#52c569;" x="66.960843" xlink:href="#C0_0_1edb37cd56" y="309.593264"/>
    </g>
    <g clip-path="url(#p31ea6316ab)">
     <use style="fill:#440154;stroke:#440154;" x="92.74566" xlink:href="#C0_0_1edb37cd56" y="253.035927"/>
    </g>
    <g clip-path="url(#p31ea6316ab)">
     <use style="fill:#8ed645;stroke:#8ed645;" x="82.64602" xlink:href="#C0_0_1edb37cd56" y="290.927161"/>
    </g>
    <g clip-path="url(#p31ea6316ab)">
     <use style="fill:#3fbc73;stroke:#3fbc73;" x="62.911222" xlink:href="#C0_0_1edb37cd56" y="310.138898"/>
    </g>
    <g clip-path="url(#p31ea6316ab)">
     <use style="fill:#453882;stroke:#453882;" x="275.774622" xlink:href="#C0_0_1edb37cd56" y="91.299321"/>
    </g>
    <g clip-path="url(#p31ea6316ab)">
     <use style="fill:#26828e;stroke:#26828e;" x="252.082833" xlink:href="#C0_0_1edb37cd56" y="182.347401"/>
    </g>
   </g>
   <g id="matplotlib.axis_1">
    <g id="xtick_1">
     <g id="line2d_1">
      <defs>
       <path d="M 0 0 
L 0 3.5 
" id="mbcecd67378" style="stroke:#000000;stroke-width:0.8;"/>
      </defs>
      <g>
       <use style="stroke:#000000;stroke-width:0.8;" x="65.7834" xlink:href="#mbcecd67378" y="333.36"/>
      </g>
     </g>
     <g id="text_1">
      <!-- −12.5 -->
      <g transform="translate(50.460743 347.958438)scale(0.1 -0.1)">
       <defs>
        <path d="M 678 2272 
L 4684 2272 
L 4684 1741 
L 678 1741 
L 678 2272 
z
" id="DejaVuSans-2212" transform="scale(0.015625)"/>
        <path d="M 794 531 
L 1825 531 
L 1825 4091 
L 703 3866 
L 703 4441 
L 1819 4666 
L 2450 4666 
L 2450 531 
L 3481 531 
L 3481 0 
L 794 0 
L 794 531 
z
" id="DejaVuSans-31" transform="scale(0.015625)"/>
        <path d="M 1228 531 
L 3431 531 
L 3431 0 
L 469 0 
L 469 531 
Q 828 903 1448 1529 
Q 2069 2156 2228 2338 
Q 2531 2678 2651 2914 
Q 2772 3150 2772 3378 
Q 2772 3750 2511 3984 
Q 2250 4219 1831 4219 
Q 1534 4219 1204 4116 
Q 875 4013 500 3803 
L 500 4441 
Q 881 4594 1212 4672 
Q 1544 4750 1819 4750 
Q 2544 4750 2975 4387 
Q 3406 4025 3406 3419 
Q 3406 3131 3298 2873 
Q 3191 2616 2906 2266 
Q 2828 2175 2409 1742 
Q 1991 1309 1228 531 
z
" id="DejaVuSans-32" transform="scale(0.015625)"/>
        <path d="M 684 794 
L 1344 794 
L 1344 0 
L 684 0 
L 684 794 
z
" id="DejaVuSans-2e" transform="scale(0.015625)"/>
        <path d="M 691 4666 
L 3169 4666 
L 3169 4134 
L 1269 4134 
L 1269 2991 
Q 1406 3038 1543 3061 
Q 1681 3084 1819 3084 
Q 2600 3084 3056 2656 
Q 3513 2228 3513 1497 
Q 3513 744 3044 326 
Q 2575 -91 1722 -91 
Q 1428 -91 1123 -41 
Q 819 9 494 109 
L 494 744 
Q 775 591 1075 516 
Q 1375 441 1709 441 
Q 2250 441 2565 725 
Q 2881 1009 2881 1497 
Q 2881 1984 2565 2268 
Q 2250 2553 1709 2553 
Q 1456 2553 1204 2497 
Q 953 2441 691 2322 
L 691 4666 
z
" id="DejaVuSans-35" transform="scale(0.015625)"/>
       </defs>
       <use xlink:href="#DejaVuSans-2212"/>
       <use x="83.789062" xlink:href="#DejaVuSans-31"/>
       <use x="147.412109" xlink:href="#DejaVuSans-32"/>
       <use x="211.035156" xlink:href="#DejaVuSans-2e"/>
       <use x="242.822266" xlink:href="#DejaVuSans-35"/>
      </g>
     </g>
    </g>
    <g id="xtick_2">
     <g id="line2d_2">
      <g>
       <use style="stroke:#000000;stroke-width:0.8;" x="116.493905" xlink:href="#mbcecd67378" y="333.36"/>
      </g>
     </g>
     <g id="text_2">
      <!-- −10.0 -->
      <g transform="translate(101.171249 347.958438)scale(0.1 -0.1)">
       <defs>
        <path d="M 2034 4250 
Q 1547 4250 1301 3770 
Q 1056 3291 1056 2328 
Q 1056 1369 1301 889 
Q 1547 409 2034 409 
Q 2525 409 2770 889 
Q 3016 1369 3016 2328 
Q 3016 3291 2770 3770 
Q 2525 4250 2034 4250 
z
M 2034 4750 
Q 2819 4750 3233 4129 
Q 3647 3509 3647 2328 
Q 3647 1150 3233 529 
Q 2819 -91 2034 -91 
Q 1250 -91 836 529 
Q 422 1150 422 2328 
Q 422 3509 836 4129 
Q 1250 4750 2034 4750 
z
" id="DejaVuSans-30" transform="scale(0.015625)"/>
       </defs>
       <use xlink:href="#DejaVuSans-2212"/>
       <use x="83.789062" xlink:href="#DejaVuSans-31"/>
       <use x="147.412109" xlink:href="#DejaVuSans-30"/>
       <use x="211.035156" xlink:href="#DejaVuSans-2e"/>
       <use x="242.822266" xlink:href="#DejaVuSans-30"/>
      </g>
     </g>
    </g>
    <g id="xtick_3">
     <g id="line2d_3">
      <g>
       <use style="stroke:#000000;stroke-width:0.8;" x="167.204411" xlink:href="#mbcecd67378" y="333.36"/>
      </g>
     </g>
     <g id="text_3">
      <!-- −7.5 -->
      <g transform="translate(155.063005 347.958438)scale(0.1 -0.1)">
       <defs>
        <path d="M 525 4666 
L 3525 4666 
L 3525 4397 
L 1831 0 
L 1172 0 
L 2766 4134 
L 525 4134 
L 525 4666 
z
" id="DejaVuSans-37" transform="scale(0.015625)"/>
       </defs>
       <use xlink:href="#DejaVuSans-2212"/>
       <use x="83.789062" xlink:href="#DejaVuSans-37"/>
       <use x="147.412109" xlink:href="#DejaVuSans-2e"/>
       <use x="179.199219" xlink:href="#DejaVuSans-35"/>
      </g>
     </g>
    </g>
    <g id="xtick_4">
     <g id="line2d_4">
      <g>
       <use style="stroke:#000000;stroke-width:0.8;" x="217.914917" xlink:href="#mbcecd67378" y="333.36"/>
      </g>
     </g>
     <g id="text_4">
      <!-- −5.0 -->
      <g transform="translate(205.773511 347.958438)scale(0.1 -0.1)">
       <use xlink:href="#DejaVuSans-2212"/>
       <use x="83.789062" xlink:href="#DejaVuSans-35"/>
       <use x="147.412109" xlink:href="#DejaVuSans-2e"/>
       <use x="179.199219" xlink:href="#DejaVuSans-30"/>
      </g>
     </g>
    </g>
    <g id="xtick_5">
     <g id="line2d_5">
      <g>
       <use style="stroke:#000000;stroke-width:0.8;" x="268.625423" xlink:href="#mbcecd67378" y="333.36"/>
      </g>
     </g>
     <g id="text_5">
      <!-- −2.5 -->
      <g transform="translate(256.484017 347.958438)scale(0.1 -0.1)">
       <use xlink:href="#DejaVuSans-2212"/>
       <use x="83.789062" xlink:href="#DejaVuSans-32"/>
       <use x="147.412109" xlink:href="#DejaVuSans-2e"/>
       <use x="179.199219" xlink:href="#DejaVuSans-35"/>
      </g>
     </g>
    </g>
    <g id="xtick_6">
     <g id="line2d_6">
      <g>
       <use style="stroke:#000000;stroke-width:0.8;" x="319.335929" xlink:href="#mbcecd67378" y="333.36"/>
      </g>
     </g>
     <g id="text_6">
      <!-- 0.0 -->
      <g transform="translate(311.384366 347.958438)scale(0.1 -0.1)">
       <use xlink:href="#DejaVuSans-30"/>
       <use x="63.623047" xlink:href="#DejaVuSans-2e"/>
       <use x="95.410156" xlink:href="#DejaVuSans-30"/>
      </g>
     </g>
    </g>
    <g id="xtick_7">
     <g id="line2d_7">
      <g>
       <use style="stroke:#000000;stroke-width:0.8;" x="370.046435" xlink:href="#mbcecd67378" y="333.36"/>
      </g>
     </g>
     <g id="text_7">
      <!-- 2.5 -->
      <g transform="translate(362.094872 347.958438)scale(0.1 -0.1)">
       <use xlink:href="#DejaVuSans-32"/>
       <use x="63.623047" xlink:href="#DejaVuSans-2e"/>
       <use x="95.410156" xlink:href="#DejaVuSans-35"/>
      </g>
     </g>
    </g>
    <g id="xtick_8">
     <g id="line2d_8">
      <g>
       <use style="stroke:#000000;stroke-width:0.8;" x="420.756941" xlink:href="#mbcecd67378" y="333.36"/>
      </g>
     </g>
     <g id="text_8">
      <!-- 5.0 -->
      <g transform="translate(412.805378 347.958438)scale(0.1 -0.1)">
       <use xlink:href="#DejaVuSans-35"/>
       <use x="63.623047" xlink:href="#DejaVuSans-2e"/>
       <use x="95.410156" xlink:href="#DejaVuSans-30"/>
      </g>
     </g>
    </g>
    <g id="xtick_9">
     <g id="line2d_9">
      <g>
       <use style="stroke:#000000;stroke-width:0.8;" x="471.467447" xlink:href="#mbcecd67378" y="333.36"/>
      </g>
     </g>
     <g id="text_9">
      <!-- 7.5 -->
      <g transform="translate(463.515884 347.958438)scale(0.1 -0.1)">
       <use xlink:href="#DejaVuSans-37"/>
       <use x="63.623047" xlink:href="#DejaVuSans-2e"/>
       <use x="95.410156" xlink:href="#DejaVuSans-35"/>
      </g>
     </g>
    </g>
    <g id="text_10">
     <!-- Component 0 [-] -->
     <g transform="translate(224.726562 361.636563)scale(0.1 -0.1)">
      <defs>
       <path d="M 4122 4306 
L 4122 3641 
Q 3803 3938 3442 4084 
Q 3081 4231 2675 4231 
Q 1875 4231 1450 3742 
Q 1025 3253 1025 2328 
Q 1025 1406 1450 917 
Q 1875 428 2675 428 
Q 3081 428 3442 575 
Q 3803 722 4122 1019 
L 4122 359 
Q 3791 134 3420 21 
Q 3050 -91 2638 -91 
Q 1578 -91 968 557 
Q 359 1206 359 2328 
Q 359 3453 968 4101 
Q 1578 4750 2638 4750 
Q 3056 4750 3426 4639 
Q 3797 4528 4122 4306 
z
" id="DejaVuSans-43" transform="scale(0.015625)"/>
       <path d="M 1959 3097 
Q 1497 3097 1228 2736 
Q 959 2375 959 1747 
Q 959 1119 1226 758 
Q 1494 397 1959 397 
Q 2419 397 2687 759 
Q 2956 1122 2956 1747 
Q 2956 2369 2687 2733 
Q 2419 3097 1959 3097 
z
M 1959 3584 
Q 2709 3584 3137 3096 
Q 3566 2609 3566 1747 
Q 3566 888 3137 398 
Q 2709 -91 1959 -91 
Q 1206 -91 779 398 
Q 353 888 353 1747 
Q 353 2609 779 3096 
Q 1206 3584 1959 3584 
z
" id="DejaVuSans-6f" transform="scale(0.015625)"/>
       <path d="M 3328 2828 
Q 3544 3216 3844 3400 
Q 4144 3584 4550 3584 
Q 5097 3584 5394 3201 
Q 5691 2819 5691 2113 
L 5691 0 
L 5113 0 
L 5113 2094 
Q 5113 2597 4934 2840 
Q 4756 3084 4391 3084 
Q 3944 3084 3684 2787 
Q 3425 2491 3425 1978 
L 3425 0 
L 2847 0 
L 2847 2094 
Q 2847 2600 2669 2842 
Q 2491 3084 2119 3084 
Q 1678 3084 1418 2786 
Q 1159 2488 1159 1978 
L 1159 0 
L 581 0 
L 581 3500 
L 1159 3500 
L 1159 2956 
Q 1356 3278 1631 3431 
Q 1906 3584 2284 3584 
Q 2666 3584 2933 3390 
Q 3200 3197 3328 2828 
z
" id="DejaVuSans-6d" transform="scale(0.015625)"/>
       <path d="M 1159 525 
L 1159 -1331 
L 581 -1331 
L 581 3500 
L 1159 3500 
L 1159 2969 
Q 1341 3281 1617 3432 
Q 1894 3584 2278 3584 
Q 2916 3584 3314 3078 
Q 3713 2572 3713 1747 
Q 3713 922 3314 415 
Q 2916 -91 2278 -91 
Q 1894 -91 1617 61 
Q 1341 213 1159 525 
z
M 3116 1747 
Q 3116 2381 2855 2742 
Q 2594 3103 2138 3103 
Q 1681 3103 1420 2742 
Q 1159 2381 1159 1747 
Q 1159 1113 1420 752 
Q 1681 391 2138 391 
Q 2594 391 2855 752 
Q 3116 1113 3116 1747 
z
" id="DejaVuSans-70" transform="scale(0.015625)"/>
       <path d="M 3513 2113 
L 3513 0 
L 2938 0 
L 2938 2094 
Q 2938 2591 2744 2837 
Q 2550 3084 2163 3084 
Q 1697 3084 1428 2787 
Q 1159 2491 1159 1978 
L 1159 0 
L 581 0 
L 581 3500 
L 1159 3500 
L 1159 2956 
Q 1366 3272 1645 3428 
Q 1925 3584 2291 3584 
Q 2894 3584 3203 3211 
Q 3513 2838 3513 2113 
z
" id="DejaVuSans-6e" transform="scale(0.015625)"/>
       <path d="M 3597 1894 
L 3597 1613 
L 953 1613 
Q 991 1019 1311 708 
Q 1631 397 2203 397 
Q 2534 397 2845 478 
Q 3156 559 3463 722 
L 3463 178 
Q 3153 47 2828 -22 
Q 2503 -91 2169 -91 
Q 1331 -91 842 396 
Q 353 884 353 1716 
Q 353 2575 817 3079 
Q 1281 3584 2069 3584 
Q 2775 3584 3186 3129 
Q 3597 2675 3597 1894 
z
M 3022 2063 
Q 3016 2534 2758 2815 
Q 2500 3097 2075 3097 
Q 1594 3097 1305 2825 
Q 1016 2553 972 2059 
L 3022 2063 
z
" id="DejaVuSans-65" transform="scale(0.015625)"/>
       <path d="M 1172 4494 
L 1172 3500 
L 2356 3500 
L 2356 3053 
L 1172 3053 
L 1172 1153 
Q 1172 725 1289 603 
Q 1406 481 1766 481 
L 2356 481 
L 2356 0 
L 1766 0 
Q 1100 0 847 248 
Q 594 497 594 1153 
L 594 3053 
L 172 3053 
L 172 3500 
L 594 3500 
L 594 4494 
L 1172 4494 
z
" id="DejaVuSans-74" transform="scale(0.015625)"/>
       <path id="DejaVuSans-20" transform="scale(0.015625)"/>
       <path d="M 550 4863 
L 1875 4863 
L 1875 4416 
L 1125 4416 
L 1125 -397 
L 1875 -397 
L 1875 -844 
L 550 -844 
L 550 4863 
z
" id="DejaVuSans-5b" transform="scale(0.015625)"/>
       <path d="M 313 2009 
L 1997 2009 
L 1997 1497 
L 313 1497 
L 313 2009 
z
" id="DejaVuSans-2d" transform="scale(0.015625)"/>
       <path d="M 1947 4863 
L 1947 -844 
L 622 -844 
L 622 -397 
L 1369 -397 
L 1369 4416 
L 622 4416 
L 622 4863 
L 1947 4863 
z
" id="DejaVuSans-5d" transform="scale(0.015625)"/>
      </defs>
      <use xlink:href="#DejaVuSans-43"/>
      <use x="69.824219" xlink:href="#DejaVuSans-6f"/>
      <use x="131.005859" xlink:href="#DejaVuSans-6d"/>
      <use x="228.417969" xlink:href="#DejaVuSans-70"/>
      <use x="291.894531" xlink:href="#DejaVuSans-6f"/>
      <use x="353.076172" xlink:href="#DejaVuSans-6e"/>
      <use x="416.455078" xlink:href="#DejaVuSans-65"/>
      <use x="477.978516" xlink:href="#DejaVuSans-6e"/>
      <use x="541.357422" xlink:href="#DejaVuSans-74"/>
      <use x="580.566406" xlink:href="#DejaVuSans-20"/>
      <use x="612.353516" xlink:href="#DejaVuSans-30"/>
      <use x="675.976562" xlink:href="#DejaVuSans-20"/>
      <use x="707.763672" xlink:href="#DejaVuSans-5b"/>
      <use x="746.777344" xlink:href="#DejaVuSans-2d"/>
      <use x="782.861328" xlink:href="#DejaVuSans-5d"/>
     </g>
    </g>
   </g>
   <g id="matplotlib.axis_2">
    <g id="ytick_1">
     <g id="line2d_10">
      <defs>
       <path d="M 0 0 
L -3.5 0 
" id="m48943991c8" style="stroke:#000000;stroke-width:0.8;"/>
      </defs>
      <g>
       <use style="stroke:#000000;stroke-width:0.8;" x="42.620312" xlink:href="#m48943991c8" y="310.944195"/>
      </g>
     </g>
     <g id="text_11">
      <!-- −8 -->
      <g transform="translate(20.878125 314.743414)scale(0.1 -0.1)">
       <defs>
        <path d="M 2034 2216 
Q 1584 2216 1326 1975 
Q 1069 1734 1069 1313 
Q 1069 891 1326 650 
Q 1584 409 2034 409 
Q 2484 409 2743 651 
Q 3003 894 3003 1313 
Q 3003 1734 2745 1975 
Q 2488 2216 2034 2216 
z
M 1403 2484 
Q 997 2584 770 2862 
Q 544 3141 544 3541 
Q 544 4100 942 4425 
Q 1341 4750 2034 4750 
Q 2731 4750 3128 4425 
Q 3525 4100 3525 3541 
Q 3525 3141 3298 2862 
Q 3072 2584 2669 2484 
Q 3125 2378 3379 2068 
Q 3634 1759 3634 1313 
Q 3634 634 3220 271 
Q 2806 -91 2034 -91 
Q 1263 -91 848 271 
Q 434 634 434 1313 
Q 434 1759 690 2068 
Q 947 2378 1403 2484 
z
M 1172 3481 
Q 1172 3119 1398 2916 
Q 1625 2713 2034 2713 
Q 2441 2713 2670 2916 
Q 2900 3119 2900 3481 
Q 2900 3844 2670 4047 
Q 2441 4250 2034 4250 
Q 1625 4250 1398 4047 
Q 1172 3844 1172 3481 
z
" id="DejaVuSans-38" transform="scale(0.015625)"/>
       </defs>
       <use xlink:href="#DejaVuSans-2212"/>
       <use x="83.789062" xlink:href="#DejaVuSans-38"/>
      </g>
     </g>
    </g>
    <g id="ytick_2">
     <g id="line2d_11">
      <g>
       <use style="stroke:#000000;stroke-width:0.8;" x="42.620312" xlink:href="#m48943991c8" y="267.367654"/>
      </g>
     </g>
     <g id="text_12">
      <!-- −6 -->
      <g transform="translate(20.878125 271.166872)scale(0.1 -0.1)">
       <defs>
        <path d="M 2113 2584 
Q 1688 2584 1439 2293 
Q 1191 2003 1191 1497 
Q 1191 994 1439 701 
Q 1688 409 2113 409 
Q 2538 409 2786 701 
Q 3034 994 3034 1497 
Q 3034 2003 2786 2293 
Q 2538 2584 2113 2584 
z
M 3366 4563 
L 3366 3988 
Q 3128 4100 2886 4159 
Q 2644 4219 2406 4219 
Q 1781 4219 1451 3797 
Q 1122 3375 1075 2522 
Q 1259 2794 1537 2939 
Q 1816 3084 2150 3084 
Q 2853 3084 3261 2657 
Q 3669 2231 3669 1497 
Q 3669 778 3244 343 
Q 2819 -91 2113 -91 
Q 1303 -91 875 529 
Q 447 1150 447 2328 
Q 447 3434 972 4092 
Q 1497 4750 2381 4750 
Q 2619 4750 2861 4703 
Q 3103 4656 3366 4563 
z
" id="DejaVuSans-36" transform="scale(0.015625)"/>
       </defs>
       <use xlink:href="#DejaVuSans-2212"/>
       <use x="83.789062" xlink:href="#DejaVuSans-36"/>
      </g>
     </g>
    </g>
    <g id="ytick_3">
     <g id="line2d_12">
      <g>
       <use style="stroke:#000000;stroke-width:0.8;" x="42.620312" xlink:href="#m48943991c8" y="223.791112"/>
      </g>
     </g>
     <g id="text_13">
      <!-- −4 -->
      <g transform="translate(20.878125 227.590331)scale(0.1 -0.1)">
       <defs>
        <path d="M 2419 4116 
L 825 1625 
L 2419 1625 
L 2419 4116 
z
M 2253 4666 
L 3047 4666 
L 3047 1625 
L 3713 1625 
L 3713 1100 
L 3047 1100 
L 3047 0 
L 2419 0 
L 2419 1100 
L 313 1100 
L 313 1709 
L 2253 4666 
z
" id="DejaVuSans-34" transform="scale(0.015625)"/>
       </defs>
       <use xlink:href="#DejaVuSans-2212"/>
       <use x="83.789062" xlink:href="#DejaVuSans-34"/>
      </g>
     </g>
    </g>
    <g id="ytick_4">
     <g id="line2d_13">
      <g>
       <use style="stroke:#000000;stroke-width:0.8;" x="42.620312" xlink:href="#m48943991c8" y="180.21457"/>
      </g>
     </g>
     <g id="text_14">
      <!-- −2 -->
      <g transform="translate(20.878125 184.013789)scale(0.1 -0.1)">
       <use xlink:href="#DejaVuSans-2212"/>
       <use x="83.789062" xlink:href="#DejaVuSans-32"/>
      </g>
     </g>
    </g>
    <g id="ytick_5">
     <g id="line2d_14">
      <g>
       <use style="stroke:#000000;stroke-width:0.8;" x="42.620312" xlink:href="#m48943991c8" y="136.638029"/>
      </g>
     </g>
     <g id="text_15">
      <!-- 0 -->
      <g transform="translate(29.257812 140.437247)scale(0.1 -0.1)">
       <use xlink:href="#DejaVuSans-30"/>
      </g>
     </g>
    </g>
    <g id="ytick_6">
     <g id="line2d_15">
      <g>
       <use style="stroke:#000000;stroke-width:0.8;" x="42.620312" xlink:href="#m48943991c8" y="93.061487"/>
      </g>
     </g>
     <g id="text_16">
      <!-- 2 -->
      <g transform="translate(29.257812 96.860706)scale(0.1 -0.1)">
       <use xlink:href="#DejaVuSans-32"/>
      </g>
     </g>
    </g>
    <g id="ytick_7">
     <g id="line2d_16">
      <g>
       <use style="stroke:#000000;stroke-width:0.8;" x="42.620312" xlink:href="#m48943991c8" y="49.484946"/>
      </g>
     </g>
     <g id="text_17">
      <!-- 4 -->
      <g transform="translate(29.257812 53.284164)scale(0.1 -0.1)">
       <use xlink:href="#DejaVuSans-34"/>
      </g>
     </g>
    </g>
    <g id="text_18">
     <!-- Component 1 [-] -->
     <g transform="translate(14.798437 211.37375)rotate(-90)scale(0.1 -0.1)">
      <use xlink:href="#DejaVuSans-43"/>
      <use x="69.824219" xlink:href="#DejaVuSans-6f"/>
      <use x="131.005859" xlink:href="#DejaVuSans-6d"/>
      <use x="228.417969" xlink:href="#DejaVuSans-70"/>
      <use x="291.894531" xlink:href="#DejaVuSans-6f"/>
      <use x="353.076172" xlink:href="#DejaVuSans-6e"/>
      <use x="416.455078" xlink:href="#DejaVuSans-65"/>
      <use x="477.978516" xlink:href="#DejaVuSans-6e"/>
      <use x="541.357422" xlink:href="#DejaVuSans-74"/>
      <use x="580.566406" xlink:href="#DejaVuSans-20"/>
      <use x="612.353516" xlink:href="#DejaVuSans-31"/>
      <use x="675.976562" xlink:href="#DejaVuSans-20"/>
      <use x="707.763672" xlink:href="#DejaVuSans-5b"/>
      <use x="746.777344" xlink:href="#DejaVuSans-2d"/>
      <use x="782.861328" xlink:href="#DejaVuSans-5d"/>
     </g>
    </g>
   </g>
   <g id="patch_3">
    <path d="M 42.620312 333.36 
L 42.620312 7.2 
" style="fill:none;stroke:#000000;stroke-linecap:square;stroke-linejoin:miter;stroke-width:0.8;"/>
   </g>
   <g id="patch_4">
    <path d="M 489.020312 333.36 
L 489.020312 7.2 
" style="fill:none;stroke:#000000;stroke-linecap:square;stroke-linejoin:miter;stroke-width:0.8;"/>
   </g>
   <g id="patch_5">
    <path d="M 42.620313 333.36 
L 489.020313 333.36 
" style="fill:none;stroke:#000000;stroke-linecap:square;stroke-linejoin:miter;stroke-width:0.8;"/>
   </g>
   <g id="patch_6">
    <path d="M 42.620313 7.2 
L 489.020313 7.2 
" style="fill:none;stroke:#000000;stroke-linecap:square;stroke-linejoin:miter;stroke-width:0.8;"/>
   </g>
  </g>
 </g>
 <defs>
  <clipPath id="p31ea6316ab">
   <rect height="326.16" width="446.4" x="42.620312" y="7.2"/>
  </clipPath>
 </defs>
</svg>
