<?xml version="1.0" encoding="utf-8" standalone="no"?>
<!DOCTYPE svg PUBLIC "-//W3C//DTD SVG 1.1//EN"
  "http://www.w3.org/Graphics/SVG/1.1/DTD/svg11.dtd">
<svg height="262.19625pt" version="1.1" viewBox="0 0 388.965625 262.19625" width="388.965625pt" xmlns="http://www.w3.org/2000/svg" xmlns:xlink="http://www.w3.org/1999/xlink">
 <metadata>
  <rdf:RDF xmlns:cc="http://creativecommons.org/ns#" xmlns:dc="http://purl.org/dc/elements/1.1/" xmlns:rdf="http://www.w3.org/1999/02/22-rdf-syntax-ns#">
   <cc:Work>
    <dc:type rdf:resource="http://purl.org/dc/dcmitype/StillImage"/>
    <dc:date>2021-05-24T13:24:03.506954</dc:date>
    <dc:format>image/svg+xml</dc:format>
    <dc:creator>
     <cc:Agent>
      <dc:title>Matplotlib v3.4.1, https://matplotlib.org/</dc:title>
     </cc:Agent>
    </dc:creator>
   </cc:Work>
  </rdf:RDF>
 </metadata>
 <defs>
  <style type="text/css">*{stroke-linecap:butt;stroke-linejoin:round;}</style>
 </defs>
 <g id="figure_1">
  <g id="patch_1">
   <path d="M 0 262.19625 
L 388.965625 262.19625 
L 388.965625 0 
L 0 0 
z
" style="fill:none;"/>
  </g>
  <g id="axes_1">
   <g id="patch_2">
    <path d="M 46.965625 224.64 
L 381.765625 224.64 
L 381.765625 7.2 
L 46.965625 7.2 
z
" style="fill:#ffffff;"/>
   </g>
   <g id="matplotlib.axis_1">
    <g id="xtick_1">
     <g id="line2d_1">
      <defs>
       <path d="M 0 0 
L 0 3.5 
" id="m07527aaade" style="stroke:#000000;stroke-width:0.8;"/>
      </defs>
      <g>
       <use style="stroke:#000000;stroke-width:0.8;" x="93.427343" xlink:href="#m07527aaade" y="224.64"/>
      </g>
     </g>
     <g id="text_1">
      <!-- 5 -->
      <g transform="translate(90.246093 239.238437)scale(0.1 -0.1)">
       <defs>
        <path d="M 691 4666 
L 3169 4666 
L 3169 4134 
L 1269 4134 
L 1269 2991 
Q 1406 3038 1543 3061 
Q 1681 3084 1819 3084 
Q 2600 3084 3056 2656 
Q 3513 2228 3513 1497 
Q 3513 744 3044 326 
Q 2575 -91 1722 -91 
Q 1428 -91 1123 -41 
Q 819 9 494 109 
L 494 744 
Q 775 591 1075 516 
Q 1375 441 1709 441 
Q 2250 441 2565 725 
Q 2881 1009 2881 1497 
Q 2881 1984 2565 2268 
Q 2250 2553 1709 2553 
Q 1456 2553 1204 2497 
Q 953 2441 691 2322 
L 691 4666 
z
" id="DejaVuSans-35" transform="scale(0.015625)"/>
       </defs>
       <use xlink:href="#DejaVuSans-35"/>
      </g>
     </g>
    </g>
    <g id="xtick_2">
     <g id="line2d_2">
      <g>
       <use style="stroke:#000000;stroke-width:0.8;" x="142.969404" xlink:href="#m07527aaade" y="224.64"/>
      </g>
     </g>
     <g id="text_2">
      <!-- 10 -->
      <g transform="translate(136.606904 239.238437)scale(0.1 -0.1)">
       <defs>
        <path d="M 794 531 
L 1825 531 
L 1825 4091 
L 703 3866 
L 703 4441 
L 1819 4666 
L 2450 4666 
L 2450 531 
L 3481 531 
L 3481 0 
L 794 0 
L 794 531 
z
" id="DejaVuSans-31" transform="scale(0.015625)"/>
        <path d="M 2034 4250 
Q 1547 4250 1301 3770 
Q 1056 3291 1056 2328 
Q 1056 1369 1301 889 
Q 1547 409 2034 409 
Q 2525 409 2770 889 
Q 3016 1369 3016 2328 
Q 3016 3291 2770 3770 
Q 2525 4250 2034 4250 
z
M 2034 4750 
Q 2819 4750 3233 4129 
Q 3647 3509 3647 2328 
Q 3647 1150 3233 529 
Q 2819 -91 2034 -91 
Q 1250 -91 836 529 
Q 422 1150 422 2328 
Q 422 3509 836 4129 
Q 1250 4750 2034 4750 
z
" id="DejaVuSans-30" transform="scale(0.015625)"/>
       </defs>
       <use xlink:href="#DejaVuSans-31"/>
       <use x="63.623047" xlink:href="#DejaVuSans-30"/>
      </g>
     </g>
    </g>
    <g id="xtick_3">
     <g id="line2d_3">
      <g>
       <use style="stroke:#000000;stroke-width:0.8;" x="192.511466" xlink:href="#m07527aaade" y="224.64"/>
      </g>
     </g>
     <g id="text_3">
      <!-- 15 -->
      <g transform="translate(186.148966 239.238437)scale(0.1 -0.1)">
       <use xlink:href="#DejaVuSans-31"/>
       <use x="63.623047" xlink:href="#DejaVuSans-35"/>
      </g>
     </g>
    </g>
    <g id="xtick_4">
     <g id="line2d_4">
      <g>
       <use style="stroke:#000000;stroke-width:0.8;" x="242.053527" xlink:href="#m07527aaade" y="224.64"/>
      </g>
     </g>
     <g id="text_4">
      <!-- 20 -->
      <g transform="translate(235.691027 239.238437)scale(0.1 -0.1)">
       <defs>
        <path d="M 1228 531 
L 3431 531 
L 3431 0 
L 469 0 
L 469 531 
Q 828 903 1448 1529 
Q 2069 2156 2228 2338 
Q 2531 2678 2651 2914 
Q 2772 3150 2772 3378 
Q 2772 3750 2511 3984 
Q 2250 4219 1831 4219 
Q 1534 4219 1204 4116 
Q 875 4013 500 3803 
L 500 4441 
Q 881 4594 1212 4672 
Q 1544 4750 1819 4750 
Q 2544 4750 2975 4387 
Q 3406 4025 3406 3419 
Q 3406 3131 3298 2873 
Q 3191 2616 2906 2266 
Q 2828 2175 2409 1742 
Q 1991 1309 1228 531 
z
" id="DejaVuSans-32" transform="scale(0.015625)"/>
       </defs>
       <use xlink:href="#DejaVuSans-32"/>
       <use x="63.623047" xlink:href="#DejaVuSans-30"/>
      </g>
     </g>
    </g>
    <g id="xtick_5">
     <g id="line2d_5">
      <g>
       <use style="stroke:#000000;stroke-width:0.8;" x="291.595589" xlink:href="#m07527aaade" y="224.64"/>
      </g>
     </g>
     <g id="text_5">
      <!-- 25 -->
      <g transform="translate(285.233089 239.238437)scale(0.1 -0.1)">
       <use xlink:href="#DejaVuSans-32"/>
       <use x="63.623047" xlink:href="#DejaVuSans-35"/>
      </g>
     </g>
    </g>
    <g id="xtick_6">
     <g id="line2d_6">
      <g>
       <use style="stroke:#000000;stroke-width:0.8;" x="341.13765" xlink:href="#m07527aaade" y="224.64"/>
      </g>
     </g>
     <g id="text_6">
      <!-- 30 -->
      <g transform="translate(334.77515 239.238437)scale(0.1 -0.1)">
       <defs>
        <path d="M 2597 2516 
Q 3050 2419 3304 2112 
Q 3559 1806 3559 1356 
Q 3559 666 3084 287 
Q 2609 -91 1734 -91 
Q 1441 -91 1130 -33 
Q 819 25 488 141 
L 488 750 
Q 750 597 1062 519 
Q 1375 441 1716 441 
Q 2309 441 2620 675 
Q 2931 909 2931 1356 
Q 2931 1769 2642 2001 
Q 2353 2234 1838 2234 
L 1294 2234 
L 1294 2753 
L 1863 2753 
Q 2328 2753 2575 2939 
Q 2822 3125 2822 3475 
Q 2822 3834 2567 4026 
Q 2313 4219 1838 4219 
Q 1578 4219 1281 4162 
Q 984 4106 628 3988 
L 628 4550 
Q 988 4650 1302 4700 
Q 1616 4750 1894 4750 
Q 2613 4750 3031 4423 
Q 3450 4097 3450 3541 
Q 3450 3153 3228 2886 
Q 3006 2619 2597 2516 
z
" id="DejaVuSans-33" transform="scale(0.015625)"/>
       </defs>
       <use xlink:href="#DejaVuSans-33"/>
       <use x="63.623047" xlink:href="#DejaVuSans-30"/>
      </g>
     </g>
    </g>
    <g id="text_7">
     <!-- Time [s] -->
     <g transform="translate(194.036719 252.916562)scale(0.1 -0.1)">
      <defs>
       <path d="M -19 4666 
L 3928 4666 
L 3928 4134 
L 2272 4134 
L 2272 0 
L 1638 0 
L 1638 4134 
L -19 4134 
L -19 4666 
z
" id="DejaVuSans-54" transform="scale(0.015625)"/>
       <path d="M 603 3500 
L 1178 3500 
L 1178 0 
L 603 0 
L 603 3500 
z
M 603 4863 
L 1178 4863 
L 1178 4134 
L 603 4134 
L 603 4863 
z
" id="DejaVuSans-69" transform="scale(0.015625)"/>
       <path d="M 3328 2828 
Q 3544 3216 3844 3400 
Q 4144 3584 4550 3584 
Q 5097 3584 5394 3201 
Q 5691 2819 5691 2113 
L 5691 0 
L 5113 0 
L 5113 2094 
Q 5113 2597 4934 2840 
Q 4756 3084 4391 3084 
Q 3944 3084 3684 2787 
Q 3425 2491 3425 1978 
L 3425 0 
L 2847 0 
L 2847 2094 
Q 2847 2600 2669 2842 
Q 2491 3084 2119 3084 
Q 1678 3084 1418 2786 
Q 1159 2488 1159 1978 
L 1159 0 
L 581 0 
L 581 3500 
L 1159 3500 
L 1159 2956 
Q 1356 3278 1631 3431 
Q 1906 3584 2284 3584 
Q 2666 3584 2933 3390 
Q 3200 3197 3328 2828 
z
" id="DejaVuSans-6d" transform="scale(0.015625)"/>
       <path d="M 3597 1894 
L 3597 1613 
L 953 1613 
Q 991 1019 1311 708 
Q 1631 397 2203 397 
Q 2534 397 2845 478 
Q 3156 559 3463 722 
L 3463 178 
Q 3153 47 2828 -22 
Q 2503 -91 2169 -91 
Q 1331 -91 842 396 
Q 353 884 353 1716 
Q 353 2575 817 3079 
Q 1281 3584 2069 3584 
Q 2775 3584 3186 3129 
Q 3597 2675 3597 1894 
z
M 3022 2063 
Q 3016 2534 2758 2815 
Q 2500 3097 2075 3097 
Q 1594 3097 1305 2825 
Q 1016 2553 972 2059 
L 3022 2063 
z
" id="DejaVuSans-65" transform="scale(0.015625)"/>
       <path id="DejaVuSans-20" transform="scale(0.015625)"/>
       <path d="M 550 4863 
L 1875 4863 
L 1875 4416 
L 1125 4416 
L 1125 -397 
L 1875 -397 
L 1875 -844 
L 550 -844 
L 550 4863 
z
" id="DejaVuSans-5b" transform="scale(0.015625)"/>
       <path d="M 2834 3397 
L 2834 2853 
Q 2591 2978 2328 3040 
Q 2066 3103 1784 3103 
Q 1356 3103 1142 2972 
Q 928 2841 928 2578 
Q 928 2378 1081 2264 
Q 1234 2150 1697 2047 
L 1894 2003 
Q 2506 1872 2764 1633 
Q 3022 1394 3022 966 
Q 3022 478 2636 193 
Q 2250 -91 1575 -91 
Q 1294 -91 989 -36 
Q 684 19 347 128 
L 347 722 
Q 666 556 975 473 
Q 1284 391 1588 391 
Q 1994 391 2212 530 
Q 2431 669 2431 922 
Q 2431 1156 2273 1281 
Q 2116 1406 1581 1522 
L 1381 1569 
Q 847 1681 609 1914 
Q 372 2147 372 2553 
Q 372 3047 722 3315 
Q 1072 3584 1716 3584 
Q 2034 3584 2315 3537 
Q 2597 3491 2834 3397 
z
" id="DejaVuSans-73" transform="scale(0.015625)"/>
       <path d="M 1947 4863 
L 1947 -844 
L 622 -844 
L 622 -397 
L 1369 -397 
L 1369 4416 
L 622 4416 
L 622 4863 
L 1947 4863 
z
" id="DejaVuSans-5d" transform="scale(0.015625)"/>
      </defs>
      <use xlink:href="#DejaVuSans-54"/>
      <use x="57.958984" xlink:href="#DejaVuSans-69"/>
      <use x="85.742188" xlink:href="#DejaVuSans-6d"/>
      <use x="183.154297" xlink:href="#DejaVuSans-65"/>
      <use x="244.677734" xlink:href="#DejaVuSans-20"/>
      <use x="276.464844" xlink:href="#DejaVuSans-5b"/>
      <use x="315.478516" xlink:href="#DejaVuSans-73"/>
      <use x="367.578125" xlink:href="#DejaVuSans-5d"/>
     </g>
    </g>
   </g>
   <g id="matplotlib.axis_2">
    <g id="ytick_1">
     <g id="line2d_7">
      <defs>
       <path d="M 0 0 
L -3.5 0 
" id="m7974b83b88" style="stroke:#000000;stroke-width:0.8;"/>
      </defs>
      <g>
       <use style="stroke:#000000;stroke-width:0.8;" x="46.965625" xlink:href="#m7974b83b88" y="204.045887"/>
      </g>
     </g>
     <g id="text_8">
      <!-- 700 -->
      <g transform="translate(20.878125 207.845106)scale(0.1 -0.1)">
       <defs>
        <path d="M 525 4666 
L 3525 4666 
L 3525 4397 
L 1831 0 
L 1172 0 
L 2766 4134 
L 525 4134 
L 525 4666 
z
" id="DejaVuSans-37" transform="scale(0.015625)"/>
       </defs>
       <use xlink:href="#DejaVuSans-37"/>
       <use x="63.623047" xlink:href="#DejaVuSans-30"/>
       <use x="127.246094" xlink:href="#DejaVuSans-30"/>
      </g>
     </g>
    </g>
    <g id="ytick_2">
     <g id="line2d_8">
      <g>
       <use style="stroke:#000000;stroke-width:0.8;" x="46.965625" xlink:href="#m7974b83b88" y="166.853301"/>
      </g>
     </g>
     <g id="text_9">
      <!-- 750 -->
      <g transform="translate(20.878125 170.65252)scale(0.1 -0.1)">
       <use xlink:href="#DejaVuSans-37"/>
       <use x="63.623047" xlink:href="#DejaVuSans-35"/>
       <use x="127.246094" xlink:href="#DejaVuSans-30"/>
      </g>
     </g>
    </g>
    <g id="ytick_3">
     <g id="line2d_9">
      <g>
       <use style="stroke:#000000;stroke-width:0.8;" x="46.965625" xlink:href="#m7974b83b88" y="129.660716"/>
      </g>
     </g>
     <g id="text_10">
      <!-- 800 -->
      <g transform="translate(20.878125 133.459935)scale(0.1 -0.1)">
       <defs>
        <path d="M 2034 2216 
Q 1584 2216 1326 1975 
Q 1069 1734 1069 1313 
Q 1069 891 1326 650 
Q 1584 409 2034 409 
Q 2484 409 2743 651 
Q 3003 894 3003 1313 
Q 3003 1734 2745 1975 
Q 2488 2216 2034 2216 
z
M 1403 2484 
Q 997 2584 770 2862 
Q 544 3141 544 3541 
Q 544 4100 942 4425 
Q 1341 4750 2034 4750 
Q 2731 4750 3128 4425 
Q 3525 4100 3525 3541 
Q 3525 3141 3298 2862 
Q 3072 2584 2669 2484 
Q 3125 2378 3379 2068 
Q 3634 1759 3634 1313 
Q 3634 634 3220 271 
Q 2806 -91 2034 -91 
Q 1263 -91 848 271 
Q 434 634 434 1313 
Q 434 1759 690 2068 
Q 947 2378 1403 2484 
z
M 1172 3481 
Q 1172 3119 1398 2916 
Q 1625 2713 2034 2713 
Q 2441 2713 2670 2916 
Q 2900 3119 2900 3481 
Q 2900 3844 2670 4047 
Q 2441 4250 2034 4250 
Q 1625 4250 1398 4047 
Q 1172 3844 1172 3481 
z
" id="DejaVuSans-38" transform="scale(0.015625)"/>
       </defs>
       <use xlink:href="#DejaVuSans-38"/>
       <use x="63.623047" xlink:href="#DejaVuSans-30"/>
       <use x="127.246094" xlink:href="#DejaVuSans-30"/>
      </g>
     </g>
    </g>
    <g id="ytick_4">
     <g id="line2d_10">
      <g>
       <use style="stroke:#000000;stroke-width:0.8;" x="46.965625" xlink:href="#m7974b83b88" y="92.46813"/>
      </g>
     </g>
     <g id="text_11">
      <!-- 850 -->
      <g transform="translate(20.878125 96.267349)scale(0.1 -0.1)">
       <use xlink:href="#DejaVuSans-38"/>
       <use x="63.623047" xlink:href="#DejaVuSans-35"/>
       <use x="127.246094" xlink:href="#DejaVuSans-30"/>
      </g>
     </g>
    </g>
    <g id="ytick_5">
     <g id="line2d_11">
      <g>
       <use style="stroke:#000000;stroke-width:0.8;" x="46.965625" xlink:href="#m7974b83b88" y="55.275545"/>
      </g>
     </g>
     <g id="text_12">
      <!-- 900 -->
      <g transform="translate(20.878125 59.074763)scale(0.1 -0.1)">
       <defs>
        <path d="M 703 97 
L 703 672 
Q 941 559 1184 500 
Q 1428 441 1663 441 
Q 2288 441 2617 861 
Q 2947 1281 2994 2138 
Q 2813 1869 2534 1725 
Q 2256 1581 1919 1581 
Q 1219 1581 811 2004 
Q 403 2428 403 3163 
Q 403 3881 828 4315 
Q 1253 4750 1959 4750 
Q 2769 4750 3195 4129 
Q 3622 3509 3622 2328 
Q 3622 1225 3098 567 
Q 2575 -91 1691 -91 
Q 1453 -91 1209 -44 
Q 966 3 703 97 
z
M 1959 2075 
Q 2384 2075 2632 2365 
Q 2881 2656 2881 3163 
Q 2881 3666 2632 3958 
Q 2384 4250 1959 4250 
Q 1534 4250 1286 3958 
Q 1038 3666 1038 3163 
Q 1038 2656 1286 2365 
Q 1534 2075 1959 2075 
z
" id="DejaVuSans-39" transform="scale(0.015625)"/>
       </defs>
       <use xlink:href="#DejaVuSans-39"/>
       <use x="63.623047" xlink:href="#DejaVuSans-30"/>
       <use x="127.246094" xlink:href="#DejaVuSans-30"/>
      </g>
     </g>
    </g>
    <g id="ytick_6">
     <g id="line2d_12">
      <g>
       <use style="stroke:#000000;stroke-width:0.8;" x="46.965625" xlink:href="#m7974b83b88" y="18.082959"/>
      </g>
     </g>
     <g id="text_13">
      <!-- 950 -->
      <g transform="translate(20.878125 21.882178)scale(0.1 -0.1)">
       <use xlink:href="#DejaVuSans-39"/>
       <use x="63.623047" xlink:href="#DejaVuSans-35"/>
       <use x="127.246094" xlink:href="#DejaVuSans-30"/>
      </g>
     </g>
    </g>
    <g id="text_14">
     <!-- Fluorescence [-] -->
     <g transform="translate(14.798438 156.152031)rotate(-90)scale(0.1 -0.1)">
      <defs>
       <path d="M 628 4666 
L 3309 4666 
L 3309 4134 
L 1259 4134 
L 1259 2759 
L 3109 2759 
L 3109 2228 
L 1259 2228 
L 1259 0 
L 628 0 
L 628 4666 
z
" id="DejaVuSans-46" transform="scale(0.015625)"/>
       <path d="M 603 4863 
L 1178 4863 
L 1178 0 
L 603 0 
L 603 4863 
z
" id="DejaVuSans-6c" transform="scale(0.015625)"/>
       <path d="M 544 1381 
L 544 3500 
L 1119 3500 
L 1119 1403 
Q 1119 906 1312 657 
Q 1506 409 1894 409 
Q 2359 409 2629 706 
Q 2900 1003 2900 1516 
L 2900 3500 
L 3475 3500 
L 3475 0 
L 2900 0 
L 2900 538 
Q 2691 219 2414 64 
Q 2138 -91 1772 -91 
Q 1169 -91 856 284 
Q 544 659 544 1381 
z
M 1991 3584 
L 1991 3584 
z
" id="DejaVuSans-75" transform="scale(0.015625)"/>
       <path d="M 1959 3097 
Q 1497 3097 1228 2736 
Q 959 2375 959 1747 
Q 959 1119 1226 758 
Q 1494 397 1959 397 
Q 2419 397 2687 759 
Q 2956 1122 2956 1747 
Q 2956 2369 2687 2733 
Q 2419 3097 1959 3097 
z
M 1959 3584 
Q 2709 3584 3137 3096 
Q 3566 2609 3566 1747 
Q 3566 888 3137 398 
Q 2709 -91 1959 -91 
Q 1206 -91 779 398 
Q 353 888 353 1747 
Q 353 2609 779 3096 
Q 1206 3584 1959 3584 
z
" id="DejaVuSans-6f" transform="scale(0.015625)"/>
       <path d="M 2631 2963 
Q 2534 3019 2420 3045 
Q 2306 3072 2169 3072 
Q 1681 3072 1420 2755 
Q 1159 2438 1159 1844 
L 1159 0 
L 581 0 
L 581 3500 
L 1159 3500 
L 1159 2956 
Q 1341 3275 1631 3429 
Q 1922 3584 2338 3584 
Q 2397 3584 2469 3576 
Q 2541 3569 2628 3553 
L 2631 2963 
z
" id="DejaVuSans-72" transform="scale(0.015625)"/>
       <path d="M 3122 3366 
L 3122 2828 
Q 2878 2963 2633 3030 
Q 2388 3097 2138 3097 
Q 1578 3097 1268 2742 
Q 959 2388 959 1747 
Q 959 1106 1268 751 
Q 1578 397 2138 397 
Q 2388 397 2633 464 
Q 2878 531 3122 666 
L 3122 134 
Q 2881 22 2623 -34 
Q 2366 -91 2075 -91 
Q 1284 -91 818 406 
Q 353 903 353 1747 
Q 353 2603 823 3093 
Q 1294 3584 2113 3584 
Q 2378 3584 2631 3529 
Q 2884 3475 3122 3366 
z
" id="DejaVuSans-63" transform="scale(0.015625)"/>
       <path d="M 3513 2113 
L 3513 0 
L 2938 0 
L 2938 2094 
Q 2938 2591 2744 2837 
Q 2550 3084 2163 3084 
Q 1697 3084 1428 2787 
Q 1159 2491 1159 1978 
L 1159 0 
L 581 0 
L 581 3500 
L 1159 3500 
L 1159 2956 
Q 1366 3272 1645 3428 
Q 1925 3584 2291 3584 
Q 2894 3584 3203 3211 
Q 3513 2838 3513 2113 
z
" id="DejaVuSans-6e" transform="scale(0.015625)"/>
       <path d="M 313 2009 
L 1997 2009 
L 1997 1497 
L 313 1497 
L 313 2009 
z
" id="DejaVuSans-2d" transform="scale(0.015625)"/>
      </defs>
      <use xlink:href="#DejaVuSans-46"/>
      <use x="57.519531" xlink:href="#DejaVuSans-6c"/>
      <use x="85.302734" xlink:href="#DejaVuSans-75"/>
      <use x="148.681641" xlink:href="#DejaVuSans-6f"/>
      <use x="209.863281" xlink:href="#DejaVuSans-72"/>
      <use x="248.726562" xlink:href="#DejaVuSans-65"/>
      <use x="310.25" xlink:href="#DejaVuSans-73"/>
      <use x="362.349609" xlink:href="#DejaVuSans-63"/>
      <use x="417.330078" xlink:href="#DejaVuSans-65"/>
      <use x="478.853516" xlink:href="#DejaVuSans-6e"/>
      <use x="542.232422" xlink:href="#DejaVuSans-63"/>
      <use x="597.212891" xlink:href="#DejaVuSans-65"/>
      <use x="658.736328" xlink:href="#DejaVuSans-20"/>
      <use x="690.523438" xlink:href="#DejaVuSans-5b"/>
      <use x="729.537109" xlink:href="#DejaVuSans-2d"/>
      <use x="765.621094" xlink:href="#DejaVuSans-5d"/>
     </g>
    </g>
   </g>
   <g id="line2d_13">
    <path clip-path="url(#p126ac48635)" d="M 62.183807 65.340734 
L 62.793835 51.563467 
L 63.403863 17.083636 
L 64.013891 41.054587 
L 64.623588 121.324239 
L 65.233616 57.641621 
L 65.843644 30.930636 
L 66.453672 74.562706 
L 67.06337 75.332301 
L 67.673398 57.632305 
L 68.893453 47.573523 
L 69.503151 96.185179 
L 70.113179 80.610197 
L 70.723207 57.106781 
L 71.333235 108.896964 
L 71.942932 51.21329 
L 72.55296 93.886402 
L 73.162988 110.549412 
L 73.773016 73.032693 
L 74.382714 98.320056 
L 74.992742 113.355476 
L 76.212798 100.259438 
L 76.822495 83.441144 
L 77.432523 99.231678 
L 78.042551 110.294781 
L 78.652579 91.139951 
L 79.262277 98.841796 
L 79.872304 117.621693 
L 80.482332 100.679335 
L 81.09236 101.812824 
L 81.702058 101.240917 
L 82.312086 110.018061 
L 82.922114 100.209824 
L 83.532142 66.622218 
L 84.141839 110.676635 
L 84.751867 121.720193 
L 85.361895 111.806482 
L 85.971923 89.320373 
L 86.581621 99.975504 
L 87.191649 63.195905 
L 87.801677 84.681422 
L 88.411704 79.143293 
L 89.021402 68.711321 
L 89.63143 72.281002 
L 90.241458 79.090591 
L 90.851486 132.789427 
L 91.461183 51.725015 
L 92.071211 108.666449 
L 92.681239 79.138918 
L 93.291267 95.634922 
L 93.901295 89.391597 
L 94.510993 75.25417 
L 95.121021 69.395841 
L 95.731049 99.869849 
L 96.341077 87.373299 
L 96.950774 99.044531 
L 97.560802 106.531699 
L 98.17083 93.40037 
L 98.780858 83.045279 
L 99.390556 83.105657 
L 100.000583 108.035392 
L 100.610611 115.075798 
L 101.220639 116.18957 
L 101.830337 92.675065 
L 102.440365 122.957323 
L 103.050393 107.073519 
L 103.660421 113.045131 
L 104.270118 125.49027 
L 104.880146 105.935076 
L 105.490174 137.499735 
L 106.100202 107.036607 
L 106.7099 99.302701 
L 107.929956 137.775631 
L 108.539983 135.330934 
L 109.149681 125.128042 
L 109.759709 122.819516 
L 110.369737 154.419477 
L 110.979765 175.572724 
L 111.589462 136.896606 
L 112.19949 135.67296 
L 112.809518 154.628079 
L 113.419546 183.76996 
L 114.029244 183.26898 
L 114.639272 156.584539 
L 115.2493 153.485545 
L 115.859328 160.082837 
L 116.469025 153.585345 
L 117.689081 174.562677 
L 118.299109 158.212668 
L 118.908807 158.779089 
L 119.518835 176.34943 
L 120.128862 131.870667 
L 120.73889 153.717769 
L 121.348588 153.922918 
L 121.958616 165.39761 
L 122.568644 126.709738 
L 123.178672 164.14584 
L 123.788369 130.157626 
L 124.398397 151.17892 
L 125.008425 165.720165 
L 125.618453 135.472821 
L 126.228151 151.406002 
L 126.838179 171.762355 
L 127.448207 160.904254 
L 128.058235 127.75888 
L 128.667932 146.955834 
L 129.27796 137.270601 
L 129.887988 154.438415 
L 130.498016 160.859792 
L 131.107714 174.64147 
L 131.717742 148.510981 
L 132.327769 156.063279 
L 132.937797 121.972002 
L 133.547495 168.680445 
L 134.157523 104.24962 
L 134.767551 164.720066 
L 135.377579 130.829436 
L 135.987276 138.618616 
L 136.597304 142.840903 
L 137.207332 157.795098 
L 137.81736 132.470323 
L 138.427058 115.74269 
L 139.037086 133.338821 
L 139.647114 116.270348 
L 140.257141 107.65104 
L 140.866839 136.987776 
L 141.476867 89.1077 
L 142.086895 120.299771 
L 142.696923 139.186995 
L 143.306621 141.159863 
L 143.916648 109.582439 
L 144.526676 124.806672 
L 145.136704 116.786727 
L 145.746402 138.391717 
L 146.35643 141.60128 
L 146.966458 135.989141 
L 147.576486 87.458621 
L 148.186183 151.647838 
L 148.796211 95.499726 
L 149.406239 103.425472 
L 150.016267 101.117134 
L 150.625965 124.183158 
L 151.235993 75.75336 
L 151.846021 85.167038 
L 152.456048 117.466038 
L 153.065746 112.97197 
L 153.675774 121.528147 
L 154.285802 123.441079 
L 154.89583 116.58427 
L 155.505527 115.714248 
L 156.115555 95.983488 
L 156.725583 125.455841 
L 157.335611 95.102161 
L 157.945639 98.949606 
L 158.555337 137.844964 
L 159.165365 113.510767 
L 159.775393 99.677266 
L 160.385421 95.935953 
L 160.995118 136.836682 
L 161.605146 136.549944 
L 162.215174 138.773963 
L 162.825202 100.252587 
L 163.4349 126.277305 
L 164.044927 127.505916 
L 164.654955 130.484788 
L 165.264983 116.734699 
L 165.874681 107.934156 
L 166.484709 142.636554 
L 167.094737 149.156488 
L 167.704765 133.272635 
L 168.314462 142.713168 
L 168.92449 165.138478 
L 169.534518 137.636152 
L 170.144546 189.608308 
L 170.754244 130.347103 
L 171.364272 125.951569 
L 171.9743 172.931573 
L 172.584327 164.944608 
L 173.194025 148.768096 
L 173.804053 137.668665 
L 174.414081 164.529376 
L 175.024109 182.454051 
L 175.633806 157.407199 
L 176.243834 162.03453 
L 176.853862 178.492252 
L 177.46389 167.917455 
L 178.073588 141.829698 
L 178.683616 150.856917 
L 179.293644 151.304714 
L 179.903672 144.163784 
L 180.513369 146.991892 
L 181.123397 152.880144 
L 181.733425 161.6208 
L 182.343453 174.724444 
L 182.953151 155.466971 
L 183.563179 167.861419 
L 184.173206 163.212686 
L 184.783234 175.985107 
L 185.392932 191.356775 
L 186.612988 165.440404 
L 187.223016 166.737744 
L 187.832713 158.86115 
L 188.442741 171.292008 
L 189.052769 171.028037 
L 189.662797 133.733259 
L 190.272495 176.39304 
L 190.882523 133.521408 
L 191.492551 185.956447 
L 192.102579 169.201388 
L 192.712276 145.042163 
L 193.932332 156.507942 
L 194.54236 157.420772 
L 195.152058 130.103855 
L 195.762085 144.787122 
L 196.372113 140.720972 
L 196.982141 126.043784 
L 197.592169 159.560061 
L 198.201867 161.688401 
L 198.811895 113.110255 
L 199.421923 105.098722 
L 200.031951 107.962164 
L 200.641648 153.879352 
L 201.251676 119.328141 
L 201.861704 123.146408 
L 202.471732 142.422771 
L 203.08143 144.837075 
L 203.691458 131.920699 
L 204.301485 125.15164 
L 204.911513 135.035525 
L 205.521211 142.589683 
L 206.131239 108.149895 
L 206.741267 110.296965 
L 207.351295 152.751498 
L 207.960992 135.377177 
L 208.57102 135.357057 
L 209.181048 111.749194 
L 209.791076 142.942581 
L 210.400774 156.664979 
L 211.010802 138.327891 
L 211.62083 124.648046 
L 212.230858 165.402267 
L 212.840555 127.709538 
L 213.450583 150.067979 
L 214.060611 154.900962 
L 214.670639 170.299997 
L 215.280337 159.68284 
L 215.890365 145.227218 
L 216.500392 179.225349 
L 217.11042 176.275688 
L 217.720118 143.082389 
L 218.330146 135.241045 
L 218.940174 137.982243 
L 219.550202 116.525792 
L 220.159899 156.893484 
L 220.769927 144.446462 
L 221.379955 186.829501 
L 221.989983 172.062131 
L 223.209709 161.632532 
L 223.819737 131.522594 
L 224.429765 132.953838 
L 225.039462 161.908572 
L 225.64949 168.291924 
L 226.259518 167.572836 
L 226.869546 141.539046 
L 227.479244 137.62163 
L 228.089271 165.674348 
L 228.699299 164.400554 
L 229.309327 174.330204 
L 229.919025 176.95265 
L 230.529053 187.977764 
L 231.139081 155.959205 
L 231.749109 163.39375 
L 232.359137 147.898703 
L 232.968834 127.290328 
L 233.578862 174.767207 
L 234.18889 163.345814 
L 234.798918 171.253872 
L 235.408616 181.028568 
L 236.018644 133.928476 
L 236.628671 179.39661 
L 237.238699 166.322348 
L 237.848397 167.931167 
L 238.458425 166.007808 
L 239.068453 143.428571 
L 239.678481 146.433215 
L 240.288178 194.520639 
L 240.898206 187.533434 
L 241.508234 172.344267 
L 242.118262 184.161464 
L 242.72796 170.05155 
L 243.337988 162.845178 
L 243.948016 168.817825 
L 244.558044 148.538505 
L 245.167741 169.576615 
L 245.777769 168.375616 
L 246.997825 125.246576 
L 247.607523 126.998379 
L 248.21755 156.142809 
L 248.827578 157.483672 
L 249.437606 136.918972 
L 250.047304 156.410948 
L 250.657332 144.410547 
L 251.26736 125.061479 
L 251.877388 126.175195 
L 252.487085 156.473346 
L 253.097113 157.448855 
L 253.707141 152.503128 
L 254.317169 151.834182 
L 254.926867 161.199425 
L 255.536895 122.77366 
L 256.146923 159.267618 
L 256.75695 153.294423 
L 257.366648 138.65549 
L 257.976676 143.57828 
L 258.586704 170.426565 
L 259.196732 154.653633 
L 259.806429 133.606139 
L 260.416457 130.145653 
L 261.026485 138.653759 
L 261.636513 123.337648 
L 262.246541 135.67713 
L 262.856239 153.892132 
L 263.466267 124.484248 
L 264.076295 142.067949 
L 264.686323 138.198389 
L 265.29602 113.793721 
L 265.906048 132.773466 
L 266.516076 160.607339 
L 267.126104 160.621487 
L 267.735802 150.253385 
L 268.345829 143.542108 
L 268.955857 175.362192 
L 269.565885 180.123541 
L 270.175583 166.489815 
L 270.785611 175.145106 
L 271.395639 190.683886 
L 272.005667 150.305278 
L 272.615364 178.280384 
L 273.225392 166.320478 
L 273.83542 172.175163 
L 275.055146 141.001106 
L 275.665174 149.551259 
L 276.275202 172.379391 
L 276.885229 176.131612 
L 277.494927 162.399997 
L 278.104955 189.167203 
L 279.325011 130.591129 
L 279.934709 170.352753 
L 280.544736 182.067937 
L 281.154764 161.875574 
L 281.764792 182.556798 
L 282.37449 160.402644 
L 282.984518 148.870416 
L 284.204574 179.818578 
L 285.424299 154.364886 
L 286.034327 147.649085 
L 286.644355 177.813957 
L 287.254053 184.33539 
L 287.864081 147.758839 
L 288.474109 165.153804 
L 289.084136 162.608818 
L 289.694164 183.324836 
L 290.303862 174.040049 
L 290.91389 184.969726 
L 291.523918 142.6431 
L 292.133946 184.996675 
L 292.743643 194.561868 
L 293.353671 166.284145 
L 293.963699 150.136565 
L 294.573727 144.845441 
L 295.183425 158.981361 
L 295.793453 169.414961 
L 296.403481 201.115514 
L 297.013508 188.792803 
L 297.623206 182.950293 
L 298.233234 178.936796 
L 298.843262 163.715216 
L 299.45329 182.791622 
L 300.062988 173.080517 
L 300.673015 168.615452 
L 301.283043 149.103623 
L 302.502769 175.68777 
L 303.112797 150.004557 
L 303.722825 157.195072 
L 304.332853 147.501566 
L 304.94255 141.277711 
L 305.552578 187.016664 
L 306.162606 160.029847 
L 306.772634 167.977982 
L 307.382332 139.805698 
L 307.99236 177.722254 
L 308.602388 143.699853 
L 309.822113 167.209797 
L 310.432141 155.319388 
L 311.042169 148.977105 
L 311.652197 168.542632 
L 312.262225 157.594929 
L 312.871922 166.230261 
L 313.48195 136.532033 
L 314.091978 136.296827 
L 314.702006 121.399281 
L 315.311704 145.134741 
L 315.921732 114.08219 
L 316.53176 146.547153 
L 317.141788 100.022109 
L 317.751485 153.995283 
L 318.361513 100.381587 
L 318.971541 121.320594 
L 319.581569 131.942039 
L 320.191267 140.126653 
L 320.801294 139.048524 
L 321.411322 153.17519 
L 322.02135 149.637964 
L 322.631048 115.626206 
L 323.241076 118.823742 
L 323.851104 156.737713 
L 324.461132 119.959461 
L 325.070829 151.871839 
L 325.680857 139.279823 
L 326.290885 132.184525 
L 326.900913 154.228523 
L 327.510611 116.256041 
L 328.120639 136.808 
L 328.730667 124.458655 
L 329.340694 118.930347 
L 329.950392 130.908728 
L 330.56042 133.777377 
L 331.170448 150.007242 
L 331.780476 162.041156 
L 332.390173 129.691474 
L 333.000201 124.686964 
L 333.610229 150.002175 
L 334.220257 137.728099 
L 334.829955 128.559078 
L 335.439983 169.278221 
L 336.660039 134.818316 
L 337.270067 158.113831 
L 337.879764 130.125031 
L 338.489792 190.349511 
L 339.09982 166.314499 
L 339.709848 172.165101 
L 340.319546 181.334363 
L 340.929573 172.834686 
L 341.539601 177.217123 
L 342.149629 134.243496 
L 342.759327 173.36408 
L 343.369355 169.662194 
L 343.979383 177.670384 
L 344.589411 195.332402 
L 345.199108 167.688024 
L 345.809136 202.747687 
L 346.419164 149.371849 
L 347.029192 160.72799 
L 347.63889 191.75147 
L 348.248918 143.682322 
L 348.858946 168.328754 
L 349.468973 180.491777 
L 350.078671 190.372286 
L 350.688699 212.00626 
L 351.298727 194.053847 
L 351.908755 204.329925 
L 352.518452 201.498532 
L 353.12848 201.858316 
L 353.738508 189.700548 
L 354.348536 186.071778 
L 354.958234 194.216599 
L 355.568262 156.746618 
L 356.17829 202.349771 
L 356.788318 184.243374 
L 357.398346 197.176105 
L 358.008043 195.109231 
L 358.618071 191.60827 
L 359.228099 203.952974 
L 359.838127 209.13979 
L 360.447825 153.274308 
L 361.057852 159.00474 
L 361.66788 182.919103 
L 362.277908 174.000991 
L 362.887606 191.320687 
L 363.497634 189.449783 
L 364.107662 188.301164 
L 364.71769 197.593388 
L 365.327387 176.990177 
L 365.937415 172.126426 
L 366.547443 214.756364 
L 366.547443 214.756364 
" style="fill:none;stroke:#1f77b4;stroke-linecap:square;stroke-width:1.5;"/>
   </g>
   <g id="line2d_14">
    <path clip-path="url(#p126ac48635)" d="M 62.183807 53.568009 
L 62.793835 54.278521 
L 63.403863 55.579909 
L 65.233616 60.441867 
L 65.843644 61.606001 
L 67.06337 63.460127 
L 67.673398 64.683288 
L 68.283425 66.400327 
L 68.893453 68.660448 
L 70.113179 74.343105 
L 73.773016 92.789664 
L 74.382714 95.16791 
L 74.992742 96.969142 
L 75.60277 98.175854 
L 76.212798 98.912239 
L 78.042551 100.418796 
L 79.262277 101.682966 
L 79.872304 102.109388 
L 80.482332 102.227808 
L 81.09236 102.024186 
L 83.532142 100.247452 
L 84.141839 99.613456 
L 84.751867 98.434316 
L 85.361895 96.451499 
L 86.581621 90.39585 
L 87.191649 87.18668 
L 87.801677 84.614917 
L 88.411704 83.090392 
L 89.021402 82.727995 
L 89.63143 83.337713 
L 91.461183 86.753633 
L 92.071211 87.253914 
L 92.681239 87.314865 
L 93.901295 87.057119 
L 94.510993 87.314075 
L 95.121021 88.067989 
L 95.731049 89.280343 
L 98.17083 95.422596 
L 99.390556 99.238993 
L 102.440365 110.774522 
L 103.660421 113.864914 
L 106.100202 118.632895 
L 106.7099 120.580843 
L 107.319928 123.198321 
L 108.539983 130.287715 
L 111.589462 150.787004 
L 112.809518 157.258528 
L 113.419546 159.574247 
L 114.029244 161.079324 
L 114.639272 161.801904 
L 115.2493 161.94791 
L 116.469025 161.561483 
L 117.079053 161.260276 
L 117.689081 160.779547 
L 118.299109 159.967419 
L 118.908807 158.757556 
L 120.128862 155.501111 
L 121.348588 152.274782 
L 121.958616 151.029455 
L 122.568644 150.146321 
L 123.178672 149.678155 
L 123.788369 149.630477 
L 124.398397 149.926726 
L 125.618453 150.829069 
L 126.228151 151.025914 
L 126.838179 150.923685 
L 128.058235 150.403357 
L 128.667932 150.454879 
L 129.27796 150.843932 
L 129.887988 151.368729 
L 130.498016 151.64705 
L 131.107714 151.307797 
L 131.717742 150.190601 
L 132.937797 146.338293 
L 134.157523 142.683539 
L 135.377579 140.363431 
L 135.987276 139.206021 
L 136.597304 137.626878 
L 137.207332 135.439417 
L 138.427058 129.557143 
L 139.647114 123.894815 
L 140.257141 122.085432 
L 140.866839 121.223736 
L 141.476867 121.255473 
L 142.086895 121.954947 
L 143.916648 125.040745 
L 144.526676 125.6761 
L 145.136704 125.874594 
L 145.746402 125.469534 
L 146.35643 124.297897 
L 146.966458 122.288119 
L 148.186183 116.27799 
L 149.406239 109.771054 
L 150.016267 107.301116 
L 150.625965 105.799252 
L 151.235993 105.447968 
L 151.846021 106.211951 
L 152.456048 107.798822 
L 153.675774 111.419034 
L 154.285802 112.511301 
L 154.89583 112.864042 
L 155.505527 112.627142 
L 156.725583 111.696183 
L 157.335611 111.596036 
L 157.945639 111.943736 
L 158.555337 112.766267 
L 159.165365 114.043968 
L 160.385421 117.620395 
L 161.605146 121.240915 
L 162.215174 122.527063 
L 162.825202 123.419063 
L 164.044927 124.913932 
L 164.654955 126.146141 
L 165.264983 128.038357 
L 165.874681 130.666323 
L 167.094737 137.565785 
L 168.314462 144.564225 
L 168.92449 147.306092 
L 169.534518 149.348489 
L 170.144546 150.764321 
L 172.584327 154.859383 
L 173.804053 158.058934 
L 175.024109 161.066889 
L 175.633806 161.7809 
L 176.243834 161.647577 
L 176.853862 160.639439 
L 178.683616 155.312727 
L 179.293644 154.2725 
L 179.903672 154.177678 
L 180.513369 155.079978 
L 181.123397 156.82942 
L 182.343453 161.772533 
L 183.563179 166.880544 
L 184.173206 168.933437 
L 184.783234 170.35322 
L 185.392932 170.954196 
L 186.00296 170.667108 
L 186.612988 169.584979 
L 187.832713 166.046229 
L 189.052769 162.563584 
L 189.662797 161.290828 
L 192.102579 157.271834 
L 192.712276 155.536316 
L 193.932332 150.955462 
L 195.762085 143.859935 
L 197.592169 137.069011 
L 198.811895 132.027518 
L 199.421923 130.108622 
L 200.031951 129.062296 
L 200.641648 128.970696 
L 201.251676 129.625592 
L 202.471732 131.538352 
L 203.08143 132.050344 
L 203.691458 132.038734 
L 204.301485 131.58578 
L 205.521211 130.35789 
L 206.131239 130.136498 
L 206.741267 130.403928 
L 207.351295 131.165848 
L 207.960992 132.335039 
L 209.181048 135.445987 
L 211.010802 140.990039 
L 212.230858 145.314072 
L 214.670639 155.072611 
L 215.280337 156.390523 
L 215.890365 156.632415 
L 216.500392 155.714403 
L 217.11042 153.858566 
L 218.330146 149.71531 
L 218.940174 148.870335 
L 219.550202 149.422273 
L 220.159899 151.197708 
L 221.379955 155.679526 
L 221.989983 156.915367 
L 222.599681 157.070035 
L 223.209709 156.418918 
L 223.819737 155.497104 
L 224.429765 154.806593 
L 225.039462 154.622262 
L 225.64949 154.991273 
L 226.259518 155.866844 
L 226.869546 157.215841 
L 228.089271 161.091592 
L 228.699299 163.136427 
L 229.309327 164.671322 
L 229.919025 165.285375 
L 230.529053 164.841817 
L 231.139081 163.583308 
L 231.749109 162.049603 
L 232.359137 160.843873 
L 232.968834 160.372991 
L 233.578862 160.696761 
L 235.408616 163.429567 
L 236.018644 163.944766 
L 237.848397 164.561005 
L 238.458425 165.252337 
L 239.068453 166.489403 
L 240.898206 171.287746 
L 241.508234 171.794448 
L 242.118262 171.233982 
L 242.72796 169.648676 
L 243.337988 167.253828 
L 244.558044 161.007052 
L 246.387797 151.001375 
L 246.997825 148.469328 
L 247.607523 146.666373 
L 248.21755 145.530963 
L 248.827578 144.841191 
L 250.047304 144.000683 
L 250.657332 143.855497 
L 251.26736 144.105213 
L 251.877388 144.840885 
L 253.707141 148.166637 
L 254.317169 148.764126 
L 254.926867 148.962841 
L 256.146923 148.739142 
L 256.75695 148.51829 
L 257.366648 148.143014 
L 257.976676 147.421945 
L 258.586704 146.19543 
L 259.806429 142.384347 
L 261.026485 138.555955 
L 261.636513 137.305185 
L 262.246541 136.576215 
L 262.856239 136.292178 
L 263.466267 136.411425 
L 264.076295 137.008718 
L 264.686323 138.257574 
L 265.29602 140.322996 
L 265.906048 143.243131 
L 267.126104 151.002092 
L 268.955857 163.178896 
L 269.565885 166.258119 
L 270.175583 168.453057 
L 270.785611 169.635123 
L 271.395639 169.798273 
L 272.005667 169.064768 
L 272.615364 167.672885 
L 273.83542 164.280861 
L 274.445448 163.041173 
L 275.055146 162.485276 
L 275.665174 162.639905 
L 277.494927 164.619976 
L 278.104955 164.889822 
L 279.325011 165.056279 
L 280.544736 165.594106 
L 281.154764 165.855176 
L 281.764792 165.930156 
L 282.37449 165.793239 
L 284.204574 164.967109 
L 284.814271 164.846498 
L 285.424299 164.893004 
L 286.034327 165.135668 
L 286.644355 165.589853 
L 287.254053 166.253942 
L 288.474109 168.126122 
L 289.694164 170.220336 
L 290.303862 170.980094 
L 290.91389 171.319555 
L 291.523918 171.131652 
L 292.133946 170.433991 
L 293.353671 168.486741 
L 293.963699 168.108071 
L 294.573727 168.666071 
L 295.183425 170.21993 
L 296.403481 174.643137 
L 297.013508 176.232355 
L 297.623206 176.769533 
L 298.233234 176.169047 
L 298.843262 174.614635 
L 300.062988 169.914055 
L 301.283043 164.918396 
L 302.502769 160.985974 
L 303.112797 159.694508 
L 303.722825 158.950979 
L 304.332853 158.737952 
L 304.94255 158.915829 
L 306.162606 159.47153 
L 306.772634 159.444117 
L 307.382332 159.156271 
L 310.432141 156.915197 
L 311.042169 155.924882 
L 311.652197 154.260986 
L 312.262225 151.77677 
L 313.48195 144.695748 
L 314.702006 136.93194 
L 315.311704 133.650069 
L 315.921732 131.0215 
L 316.53176 129.119931 
L 317.141788 127.994204 
L 317.751485 127.703916 
L 318.361513 128.272171 
L 318.971541 129.603262 
L 320.801294 134.906515 
L 321.411322 135.894216 
L 322.02135 136.30139 
L 325.070829 136.642553 
L 325.680857 136.39243 
L 326.290885 135.723813 
L 328.120639 132.824956 
L 328.730667 132.632293 
L 329.340694 133.198929 
L 329.950392 134.430152 
L 331.780476 138.929153 
L 334.220257 143.182576 
L 334.829955 144.853296 
L 336.050011 149.254163 
L 337.270067 155.142156 
L 339.09982 164.851542 
L 339.709848 167.048173 
L 340.319546 168.385141 
L 340.929573 169.045195 
L 341.539601 169.433641 
L 342.149629 169.981593 
L 342.759327 170.929778 
L 343.979383 173.490854 
L 344.589411 174.365483 
L 345.199108 174.579542 
L 345.809136 174.185915 
L 346.419164 173.548913 
L 347.029192 173.225136 
L 347.63889 173.762132 
L 348.248918 175.507738 
L 348.858946 178.484861 
L 350.688699 190.330285 
L 351.298727 193.153621 
L 351.908755 194.676114 
L 352.518452 194.873763 
L 353.12848 194.002087 
L 354.958234 189.710068 
L 355.568262 189.141494 
L 356.17829 189.235849 
L 357.398346 190.221258 
L 358.008043 190.217774 
L 358.618071 189.417021 
L 359.228099 187.801672 
L 360.447825 183.625514 
L 361.057852 182.183726 
L 361.66788 181.714708 
L 362.277908 182.232519 
L 362.887606 183.465304 
L 364.71769 187.991453 
L 365.327387 189.126498 
L 365.937415 189.947181 
L 366.547443 190.385699 
L 366.547443 190.385699 
" style="fill:none;stroke:#ff7f0e;stroke-linecap:square;stroke-width:1.5;"/>
   </g>
   <g id="line2d_15">
    <path clip-path="url(#p126ac48635)" d="M 62.183807 58.271888 
L 62.793835 58.499409 
L 63.403863 58.950737 
L 64.013891 59.618024 
L 64.623588 60.492315 
L 65.843644 62.820106 
L 67.06337 65.856024 
L 68.283425 69.524833 
L 70.113179 75.966291 
L 73.773016 89.381426 
L 74.992742 92.984266 
L 76.212798 95.838478 
L 77.432523 97.901489 
L 78.042551 98.643294 
L 78.652579 99.198841 
L 79.262277 99.57126 
L 79.872304 99.762691 
L 80.482332 99.776339 
L 81.09236 99.611989 
L 81.702058 99.268683 
L 82.312086 98.750218 
L 83.532142 97.220781 
L 84.751867 95.156602 
L 87.801677 89.576152 
L 89.021402 88.061949 
L 89.63143 87.574221 
L 90.241458 87.274636 
L 90.851486 87.160119 
L 91.461183 87.219916 
L 92.071211 87.442079 
L 92.681239 87.814768 
L 93.901295 88.978726 
L 95.121021 90.673376 
L 96.341077 92.893465 
L 97.560802 95.614739 
L 99.390556 100.471044 
L 101.830337 107.755186 
L 104.270118 115.552963 
L 106.100202 122.193599 
L 107.929956 129.975965 
L 112.19949 149.287642 
L 113.419546 153.334272 
L 114.029244 154.899485 
L 114.639272 156.138023 
L 115.2493 157.04958 
L 115.859328 157.645161 
L 116.469025 157.945552 
L 117.079053 157.979028 
L 117.689081 157.780327 
L 118.299109 157.389151 
L 119.518835 156.201898 
L 122.568644 152.762162 
L 123.788369 151.792819 
L 125.008425 151.151449 
L 126.838179 150.566379 
L 128.058235 150.168164 
L 129.27796 149.532018 
L 130.498016 148.488546 
L 131.717742 146.925498 
L 132.937797 144.806979 
L 134.157523 142.177209 
L 135.987276 137.533894 
L 138.427058 131.131085 
L 139.647114 128.425512 
L 140.866839 126.301974 
L 142.086895 124.733045 
L 145.136704 121.436121 
L 146.35643 119.580891 
L 148.186183 116.159727 
L 149.406239 113.923203 
L 150.625965 112.17587 
L 151.235993 111.569635 
L 151.846021 111.159254 
L 152.456048 110.939606 
L 153.065746 110.895257 
L 153.675774 111.004127 
L 154.89583 111.587449 
L 156.115555 112.54236 
L 157.335611 113.814463 
L 158.555337 115.425315 
L 159.775393 117.414089 
L 160.995118 119.801257 
L 162.215174 122.595696 
L 163.4349 125.812504 
L 165.264983 131.430076 
L 170.754244 149.574022 
L 171.9743 152.546705 
L 173.194025 154.862865 
L 174.414081 156.500808 
L 175.633806 157.513663 
L 176.853862 158.071621 
L 178.683616 158.719356 
L 179.903672 159.487952 
L 181.123397 160.707844 
L 184.173206 164.39796 
L 184.783234 164.85969 
L 185.392932 165.124686 
L 186.00296 165.171723 
L 186.612988 164.988516 
L 187.223016 164.577279 
L 187.832713 163.95132 
L 189.052769 162.130635 
L 190.272495 159.687925 
L 191.492551 156.761087 
L 193.322304 151.667914 
L 197.592169 138.943962 
L 198.811895 136.092114 
L 200.031951 133.954746 
L 200.641648 133.170022 
L 201.251676 132.56783 
L 201.861704 132.136679 
L 202.471732 131.861415 
L 203.08143 131.727512 
L 203.691458 131.723775 
L 204.301485 131.844153 
L 204.911513 132.087477 
L 205.521211 132.45733 
L 206.741267 133.607139 
L 207.960992 135.347784 
L 209.181048 137.670881 
L 211.010802 141.949568 
L 212.840555 146.354044 
L 214.060611 148.81946 
L 215.280337 150.64732 
L 216.500392 151.823439 
L 217.720118 152.525405 
L 220.769927 153.846223 
L 222.599681 154.981965 
L 224.429765 156.414006 
L 226.259518 158.124609 
L 228.699299 160.456974 
L 229.919025 161.354829 
L 231.139081 161.991764 
L 235.408616 163.774998 
L 239.068453 166.011613 
L 239.678481 166.132547 
L 240.288178 166.077074 
L 240.898206 165.809338 
L 241.508234 165.304137 
L 242.118262 164.54763 
L 242.72796 163.540994 
L 243.948016 160.867533 
L 248.21755 149.984758 
L 249.437606 148.112671 
L 250.047304 147.496119 
L 250.657332 147.074393 
L 251.26736 146.822051 
L 252.487085 146.679106 
L 254.926867 146.691075 
L 256.146923 146.284532 
L 257.366648 145.433117 
L 259.196732 143.569564 
L 260.416457 142.382029 
L 261.026485 141.96212 
L 261.636513 141.732616 
L 262.246541 141.742882 
L 262.856239 142.032587 
L 263.466267 142.6295 
L 264.076295 143.544546 
L 264.686323 144.770813 
L 265.906048 148.037119 
L 269.565885 159.732156 
L 270.785611 162.419729 
L 271.395639 163.358826 
L 272.005667 164.038705 
L 272.615364 164.487764 
L 273.225392 164.745336 
L 274.445448 164.875895 
L 277.494927 164.740298 
L 279.325011 164.940957 
L 283.594546 165.688469 
L 285.424299 166.289288 
L 287.254053 167.238975 
L 291.523918 169.723745 
L 293.963699 170.848993 
L 295.183425 171.267697 
L 296.403481 171.378077 
L 297.013508 171.245538 
L 297.623206 170.955711 
L 298.233234 170.495919 
L 299.45329 169.078266 
L 300.673015 167.151763 
L 303.112797 162.997232 
L 304.332853 161.276494 
L 306.162606 159.222878 
L 307.99236 157.171866 
L 309.212415 155.329448 
L 310.432141 152.843763 
L 311.652197 149.660603 
L 313.48195 143.994669 
L 315.311704 138.513041 
L 316.53176 135.747358 
L 317.141788 134.752467 
L 317.751485 134.031935 
L 318.361513 133.576418 
L 318.971541 133.359769 
L 319.581569 133.343108 
L 320.801294 133.719514 
L 323.241076 134.85436 
L 324.461132 135.177944 
L 327.510611 135.628836 
L 328.730667 136.196495 
L 329.340694 136.66181 
L 330.56042 138.025721 
L 331.780476 140.00574 
L 333.000201 142.600894 
L 334.220257 145.7711 
L 336.050011 151.389071 
L 339.709848 163.109384 
L 340.929573 166.28945 
L 342.149629 168.935434 
L 343.979383 172.162115 
L 346.419164 176.318602 
L 347.63889 178.80757 
L 351.298727 186.849774 
L 352.518452 188.63998 
L 353.12848 189.225585 
L 353.738508 189.600917 
L 354.348536 189.780114 
L 354.958234 189.783099 
L 355.568262 189.636114 
L 356.788318 189.007301 
L 360.447825 186.505183 
L 361.66788 186.156359 
L 362.887606 186.217961 
L 364.71769 186.796808 
L 365.937415 187.151885 
L 366.547443 187.234923 
L 366.547443 187.234923 
" style="fill:none;stroke:#2ca02c;stroke-linecap:square;stroke-width:1.5;"/>
   </g>
   <g id="patch_3">
    <path d="M 46.965625 224.64 
L 46.965625 7.2 
" style="fill:none;stroke:#000000;stroke-linecap:square;stroke-linejoin:miter;stroke-width:0.8;"/>
   </g>
   <g id="patch_4">
    <path d="M 381.765625 224.64 
L 381.765625 7.2 
" style="fill:none;stroke:#000000;stroke-linecap:square;stroke-linejoin:miter;stroke-width:0.8;"/>
   </g>
   <g id="patch_5">
    <path d="M 46.965625 224.64 
L 381.765625 224.64 
" style="fill:none;stroke:#000000;stroke-linecap:square;stroke-linejoin:miter;stroke-width:0.8;"/>
   </g>
   <g id="patch_6">
    <path d="M 46.965625 7.2 
L 381.765625 7.2 
" style="fill:none;stroke:#000000;stroke-linecap:square;stroke-linejoin:miter;stroke-width:0.8;"/>
   </g>
   <g id="legend_1">
    <g id="patch_7">
     <path d="M 243.014063 59.234375 
L 374.765625 59.234375 
Q 376.765625 59.234375 376.765625 57.234375 
L 376.765625 14.2 
Q 376.765625 12.2 374.765625 12.2 
L 243.014063 12.2 
Q 241.014063 12.2 241.014063 14.2 
L 241.014063 57.234375 
Q 241.014063 59.234375 243.014063 59.234375 
z
" style="fill:#ffffff;opacity:0.8;stroke:#cccccc;stroke-linejoin:miter;"/>
    </g>
    <g id="line2d_16">
     <path d="M 245.014063 20.298437 
L 265.014063 20.298437 
" style="fill:none;stroke:#1f77b4;stroke-linecap:square;stroke-width:1.5;"/>
    </g>
    <g id="line2d_17"/>
    <g id="text_15">
     <!-- original data -->
     <g transform="translate(273.014063 23.798437)scale(0.1 -0.1)">
      <defs>
       <path d="M 2906 1791 
Q 2906 2416 2648 2759 
Q 2391 3103 1925 3103 
Q 1463 3103 1205 2759 
Q 947 2416 947 1791 
Q 947 1169 1205 825 
Q 1463 481 1925 481 
Q 2391 481 2648 825 
Q 2906 1169 2906 1791 
z
M 3481 434 
Q 3481 -459 3084 -895 
Q 2688 -1331 1869 -1331 
Q 1566 -1331 1297 -1286 
Q 1028 -1241 775 -1147 
L 775 -588 
Q 1028 -725 1275 -790 
Q 1522 -856 1778 -856 
Q 2344 -856 2625 -561 
Q 2906 -266 2906 331 
L 2906 616 
Q 2728 306 2450 153 
Q 2172 0 1784 0 
Q 1141 0 747 490 
Q 353 981 353 1791 
Q 353 2603 747 3093 
Q 1141 3584 1784 3584 
Q 2172 3584 2450 3431 
Q 2728 3278 2906 2969 
L 2906 3500 
L 3481 3500 
L 3481 434 
z
" id="DejaVuSans-67" transform="scale(0.015625)"/>
       <path d="M 2194 1759 
Q 1497 1759 1228 1600 
Q 959 1441 959 1056 
Q 959 750 1161 570 
Q 1363 391 1709 391 
Q 2188 391 2477 730 
Q 2766 1069 2766 1631 
L 2766 1759 
L 2194 1759 
z
M 3341 1997 
L 3341 0 
L 2766 0 
L 2766 531 
Q 2569 213 2275 61 
Q 1981 -91 1556 -91 
Q 1019 -91 701 211 
Q 384 513 384 1019 
Q 384 1609 779 1909 
Q 1175 2209 1959 2209 
L 2766 2209 
L 2766 2266 
Q 2766 2663 2505 2880 
Q 2244 3097 1772 3097 
Q 1472 3097 1187 3025 
Q 903 2953 641 2809 
L 641 3341 
Q 956 3463 1253 3523 
Q 1550 3584 1831 3584 
Q 2591 3584 2966 3190 
Q 3341 2797 3341 1997 
z
" id="DejaVuSans-61" transform="scale(0.015625)"/>
       <path d="M 2906 2969 
L 2906 4863 
L 3481 4863 
L 3481 0 
L 2906 0 
L 2906 525 
Q 2725 213 2448 61 
Q 2172 -91 1784 -91 
Q 1150 -91 751 415 
Q 353 922 353 1747 
Q 353 2572 751 3078 
Q 1150 3584 1784 3584 
Q 2172 3584 2448 3432 
Q 2725 3281 2906 2969 
z
M 947 1747 
Q 947 1113 1208 752 
Q 1469 391 1925 391 
Q 2381 391 2643 752 
Q 2906 1113 2906 1747 
Q 2906 2381 2643 2742 
Q 2381 3103 1925 3103 
Q 1469 3103 1208 2742 
Q 947 2381 947 1747 
z
" id="DejaVuSans-64" transform="scale(0.015625)"/>
       <path d="M 1172 4494 
L 1172 3500 
L 2356 3500 
L 2356 3053 
L 1172 3053 
L 1172 1153 
Q 1172 725 1289 603 
Q 1406 481 1766 481 
L 2356 481 
L 2356 0 
L 1766 0 
Q 1100 0 847 248 
Q 594 497 594 1153 
L 594 3053 
L 172 3053 
L 172 3500 
L 594 3500 
L 594 4494 
L 1172 4494 
z
" id="DejaVuSans-74" transform="scale(0.015625)"/>
      </defs>
      <use xlink:href="#DejaVuSans-6f"/>
      <use x="61.181641" xlink:href="#DejaVuSans-72"/>
      <use x="102.294922" xlink:href="#DejaVuSans-69"/>
      <use x="130.078125" xlink:href="#DejaVuSans-67"/>
      <use x="193.554688" xlink:href="#DejaVuSans-69"/>
      <use x="221.337891" xlink:href="#DejaVuSans-6e"/>
      <use x="284.716797" xlink:href="#DejaVuSans-61"/>
      <use x="345.996094" xlink:href="#DejaVuSans-6c"/>
      <use x="373.779297" xlink:href="#DejaVuSans-20"/>
      <use x="405.566406" xlink:href="#DejaVuSans-64"/>
      <use x="469.042969" xlink:href="#DejaVuSans-61"/>
      <use x="530.322266" xlink:href="#DejaVuSans-74"/>
      <use x="569.53125" xlink:href="#DejaVuSans-61"/>
     </g>
    </g>
    <g id="line2d_18">
     <path d="M 245.014063 34.976562 
L 265.014063 34.976562 
" style="fill:none;stroke:#ff7f0e;stroke-linecap:square;stroke-width:1.5;"/>
    </g>
    <g id="line2d_19"/>
    <g id="text_16">
     <!-- Gaussian filter, σ=3 -->
     <g transform="translate(273.014063 38.476562)scale(0.1 -0.1)">
      <defs>
       <path d="M 3809 666 
L 3809 1919 
L 2778 1919 
L 2778 2438 
L 4434 2438 
L 4434 434 
Q 4069 175 3628 42 
Q 3188 -91 2688 -91 
Q 1594 -91 976 548 
Q 359 1188 359 2328 
Q 359 3472 976 4111 
Q 1594 4750 2688 4750 
Q 3144 4750 3555 4637 
Q 3966 4525 4313 4306 
L 4313 3634 
Q 3963 3931 3569 4081 
Q 3175 4231 2741 4231 
Q 1884 4231 1454 3753 
Q 1025 3275 1025 2328 
Q 1025 1384 1454 906 
Q 1884 428 2741 428 
Q 3075 428 3337 486 
Q 3600 544 3809 666 
z
" id="DejaVuSans-47" transform="scale(0.015625)"/>
       <path d="M 2375 4863 
L 2375 4384 
L 1825 4384 
Q 1516 4384 1395 4259 
Q 1275 4134 1275 3809 
L 1275 3500 
L 2222 3500 
L 2222 3053 
L 1275 3053 
L 1275 0 
L 697 0 
L 697 3053 
L 147 3053 
L 147 3500 
L 697 3500 
L 697 3744 
Q 697 4328 969 4595 
Q 1241 4863 1831 4863 
L 2375 4863 
z
" id="DejaVuSans-66" transform="scale(0.015625)"/>
       <path d="M 750 794 
L 1409 794 
L 1409 256 
L 897 -744 
L 494 -744 
L 750 256 
L 750 794 
z
" id="DejaVuSans-2c" transform="scale(0.015625)"/>
       <path d="M 1959 3044 
Q 1484 3044 1228 2700 
Q 959 2341 959 1747 
Q 959 1119 1226 758 
Q 1494 397 1959 397 
Q 2419 397 2687 759 
Q 2956 1122 2956 1747 
Q 2956 2319 2688 2700 
Q 2441 3044 1959 3044 
z
M 1959 3500 
L 3869 3500 
L 3869 2925 
L 3225 2925 
Q 3566 2438 3566 1747 
Q 3566 888 3138 400 
Q 2709 -91 1959 -91 
Q 1206 -91 781 400 
Q 353 888 353 1747 
Q 353 2613 781 3097 
Q 1134 3500 1959 3500 
z
" id="DejaVuSans-3c3" transform="scale(0.015625)"/>
       <path d="M 678 2906 
L 4684 2906 
L 4684 2381 
L 678 2381 
L 678 2906 
z
M 678 1631 
L 4684 1631 
L 4684 1100 
L 678 1100 
L 678 1631 
z
" id="DejaVuSans-3d" transform="scale(0.015625)"/>
      </defs>
      <use xlink:href="#DejaVuSans-47"/>
      <use x="77.490234" xlink:href="#DejaVuSans-61"/>
      <use x="138.769531" xlink:href="#DejaVuSans-75"/>
      <use x="202.148438" xlink:href="#DejaVuSans-73"/>
      <use x="254.248047" xlink:href="#DejaVuSans-73"/>
      <use x="306.347656" xlink:href="#DejaVuSans-69"/>
      <use x="334.130859" xlink:href="#DejaVuSans-61"/>
      <use x="395.410156" xlink:href="#DejaVuSans-6e"/>
      <use x="458.789062" xlink:href="#DejaVuSans-20"/>
      <use x="490.576172" xlink:href="#DejaVuSans-66"/>
      <use x="525.78125" xlink:href="#DejaVuSans-69"/>
      <use x="553.564453" xlink:href="#DejaVuSans-6c"/>
      <use x="581.347656" xlink:href="#DejaVuSans-74"/>
      <use x="620.556641" xlink:href="#DejaVuSans-65"/>
      <use x="682.080078" xlink:href="#DejaVuSans-72"/>
      <use x="723.193359" xlink:href="#DejaVuSans-2c"/>
      <use x="754.980469" xlink:href="#DejaVuSans-20"/>
      <use x="786.767578" xlink:href="#DejaVuSans-3c3"/>
      <use x="850.146484" xlink:href="#DejaVuSans-3d"/>
      <use x="933.935547" xlink:href="#DejaVuSans-33"/>
     </g>
    </g>
    <g id="line2d_20">
     <path d="M 245.014063 49.654687 
L 265.014063 49.654687 
" style="fill:none;stroke:#2ca02c;stroke-linecap:square;stroke-width:1.5;"/>
    </g>
    <g id="line2d_21"/>
    <g id="text_17">
     <!-- Gaussian filter, σ=6 -->
     <g transform="translate(273.014063 53.154687)scale(0.1 -0.1)">
      <defs>
       <path d="M 2113 2584 
Q 1688 2584 1439 2293 
Q 1191 2003 1191 1497 
Q 1191 994 1439 701 
Q 1688 409 2113 409 
Q 2538 409 2786 701 
Q 3034 994 3034 1497 
Q 3034 2003 2786 2293 
Q 2538 2584 2113 2584 
z
M 3366 4563 
L 3366 3988 
Q 3128 4100 2886 4159 
Q 2644 4219 2406 4219 
Q 1781 4219 1451 3797 
Q 1122 3375 1075 2522 
Q 1259 2794 1537 2939 
Q 1816 3084 2150 3084 
Q 2853 3084 3261 2657 
Q 3669 2231 3669 1497 
Q 3669 778 3244 343 
Q 2819 -91 2113 -91 
Q 1303 -91 875 529 
Q 447 1150 447 2328 
Q 447 3434 972 4092 
Q 1497 4750 2381 4750 
Q 2619 4750 2861 4703 
Q 3103 4656 3366 4563 
z
" id="DejaVuSans-36" transform="scale(0.015625)"/>
      </defs>
      <use xlink:href="#DejaVuSans-47"/>
      <use x="77.490234" xlink:href="#DejaVuSans-61"/>
      <use x="138.769531" xlink:href="#DejaVuSans-75"/>
      <use x="202.148438" xlink:href="#DejaVuSans-73"/>
      <use x="254.248047" xlink:href="#DejaVuSans-73"/>
      <use x="306.347656" xlink:href="#DejaVuSans-69"/>
      <use x="334.130859" xlink:href="#DejaVuSans-61"/>
      <use x="395.410156" xlink:href="#DejaVuSans-6e"/>
      <use x="458.789062" xlink:href="#DejaVuSans-20"/>
      <use x="490.576172" xlink:href="#DejaVuSans-66"/>
      <use x="525.78125" xlink:href="#DejaVuSans-69"/>
      <use x="553.564453" xlink:href="#DejaVuSans-6c"/>
      <use x="581.347656" xlink:href="#DejaVuSans-74"/>
      <use x="620.556641" xlink:href="#DejaVuSans-65"/>
      <use x="682.080078" xlink:href="#DejaVuSans-72"/>
      <use x="723.193359" xlink:href="#DejaVuSans-2c"/>
      <use x="754.980469" xlink:href="#DejaVuSans-20"/>
      <use x="786.767578" xlink:href="#DejaVuSans-3c3"/>
      <use x="850.146484" xlink:href="#DejaVuSans-3d"/>
      <use x="933.935547" xlink:href="#DejaVuSans-36"/>
     </g>
    </g>
   </g>
  </g>
 </g>
 <defs>
  <clipPath id="p126ac48635">
   <rect height="217.44" width="334.8" x="46.965625" y="7.2"/>
  </clipPath>
 </defs>
</svg>
